SplineFontDB: 3.2
FontName: ZameroSans-Regular
FullName: Zamero Sans Regular
FamilyName: Zamero Sans
Weight: Regular
Copyright: Copyright (c) 2024-2025, Zamero Type Foundry
UComments: "2025-7-21: Created with FontForge (http://fontforge.org)+AAoACgAA-Charlie & The Fonts: The Sequel"
Version: 002.000
ItalicAngle: 0
UnderlinePosition: -100
UnderlineWidth: 50
Ascent: 800
Descent: 200
InvalidEm: 0
LayerCount: 2
Layer: 0 0 "Back" 1
Layer: 1 0 "Fore" 0
XUID: [1021 474 1118879153 6842]
StyleMap: 0x0040
FSType: 0
OS2Version: 0
OS2_WeightWidthSlopeOnly: 0
OS2_UseTypoMetrics: 1
CreationTime: 1753108689
ModificationTime: 1756010835
PfmFamily: 33
TTFWeight: 400
TTFWidth: 5
LineGap: 415
VLineGap: 90
Panose: 2 11 5 3 2 2 2 6 2 4
OS2TypoAscent: 751
OS2TypoAOffset: 0
OS2TypoDescent: -190
OS2TypoDOffset: 0
OS2TypoLinegap: 415
OS2WinAscent: 751
OS2WinAOffset: 0
OS2WinDescent: -190
OS2WinDOffset: 0
HheadAscent: 751
HheadAOffset: 0
HheadDescent: -190
HheadDOffset: 0
OS2CapHeight: 731
OS2XHeight: 521
OS2Vendor: 'ZAM '
MarkAttachClasses: 1
DEI: 91125

StartChar: O
Encoding: 79 79 0
Width: 810
Flags: W
HStem: -10.0078 98.7998<299.88 510.34> 636.192 102.8<299.88 510.34>
VStem: 50 111.4<237.21 486.152> 649.6 110.4<237.21 486.152>
AnchorPoint: "Anchor-3" 419 0 basechar 0
AnchorPoint: "Anchor-2" 405 0 basechar 0
AnchorPoint: "Anchor-0" 405 731.008 basechar 0
LayerCount: 2
Fore
SplineSet
161.400390625 363.372856784 m 0
 161.400390625 194.468195758 254.669224322 88.7919921875 405 88.7919921875 c 0
 555.947898079 88.7919921875 649.599609375 194.468268918 649.599609375 363.373046875 c 0
 649.599609375 532.281463149 555.948023416 636.192382812 405 636.192382812 c 0
 254.669099497 636.192382812 161.400390625 532.281390747 161.400390625 363.372856784 c 0
50 364.692001047 m 0
 50 589.4728941 191.923393468 738.9921875 405 738.9921875 c 0
 618.076606532 738.9921875 760 589.4728941 760 364.692001047 c 0
 760 139.911175312 618.076691538 -10.0078125 405 -10.0078125 c 0
 191.923308462 -10.0078125 50 139.911175312 50 364.692001047 c 0
EndSplineSet
Validated: 1
EndChar

StartChar: I
Encoding: 73 73 1
Width: 448
VWidth: 0
Flags: W
HStem: 0 91<43 172.5 275.5 405> 30 61<172.5 275.5> 639 92<43 172.5 275.5 405> 639 62<172.5 275.5>
VStem: 172.5 103<30 701>
AnchorPoint: "Anchor-3" 238 0 basechar 0
AnchorPoint: "Anchor-2" 225 0 basechar 0
AnchorPoint: "Anchor-0" 223 731 basechar 0
LayerCount: 2
Fore
SplineSet
405 0 m 257x88
 43 0 l 257
 43 91 l 257
 405 91 l 257
 405 0 l 257x88
405 639 m 257x28
 43 639 l 257
 43 731 l 257
 405 731 l 257
 405 639 l 257x28
172.5 30 m 257x58
 172.5 701 l 257
 275.5 701 l 257
 275.5 30 l 257
 172.5 30 l 257x58
EndSplineSet
Validated: 5
EndChar

StartChar: H
Encoding: 72 72 2
Width: 729
VWidth: 0
Flags: W
HStem: 0 21G<70 178 551 659> 314 94<150 588> 711.008 20G<70 178 551 659>
VStem: 70 108<0 314 408 731.008> 150 28<314 408> 551 108<0 314 408 731.008> 551 37<314 408>
AnchorPoint: "Anchor-2" 362 0 basechar 0
AnchorPoint: "Anchor-0" 362 731.008 basechar 0
LayerCount: 2
Fore
SplineSet
150 408 m 1xea
 588 408 l 1
 588 314 l 1
 150 314 l 1
 150 408 l 1xea
551 0 m 257xe4
 551 731.0078125 l 257
 659 731.0078125 l 257
 659 0 l 257
 551 0 l 257xe4
70 0 m 261xf0
 70 731.0078125 l 261
 178 731.0078125 l 261
 178 0 l 261
 70 0 l 261xf0
EndSplineSet
Validated: 5
EndChar

StartChar: L
Encoding: 76 76 3
Width: 568
VWidth: 0
Flags: W
HStem: 0 97<177 523> 711.008 20G<70 177>
VStem: 70 107<97 731.008>
AnchorPoint: "Anchor-0" 123 731.008 basechar 0
AnchorPoint: "Anchor-2" 302 0 basechar 0
LayerCount: 2
Fore
SplineSet
70 0 m 5
 70 731.0078125 l 5
 177 731.0078125 l 5
 177 97 l 5
 523 97 l 5
 523 0 l 5
 70 0 l 5
EndSplineSet
Validated: 1
EndChar

StartChar: F
Encoding: 70 70 4
Width: 583
VWidth: 0
Flags: W
HStem: 0 21G<70 177> 300 97<150 483> 633.008 98<177 538>
VStem: 70 107<0 300 397 633.008> 150 27<300 397>
AnchorPoint: "Anchor-2" 302 0 basechar 0
AnchorPoint: "Anchor-0" 302 731.015 basechar 0
LayerCount: 2
Fore
SplineSet
150 397 m 5xe8
 483 397 l 5
 483 300 l 5
 150 300 l 5
 150 397 l 5xe8
70 731.0078125 m 5xf0
 538 731.0078125 l 5
 538 633.0078125 l 5
 177 633.0078125 l 5
 177 0 l 5
 70 0 l 5
 70 731.0078125 l 5xf0
EndSplineSet
Validated: 5
EndChar

StartChar: E
Encoding: 69 69 5
Width: 583
VWidth: 0
Flags: W
HStem: 0 97<177 538> 322 97<150 473> 634.008 97<177 538>
VStem: 150 27<322 419>
AnchorPoint: "Anchor-3" 457 0 basechar 0
AnchorPoint: "Anchor-2" 302 0 basechar 0
AnchorPoint: "Anchor-0" 302 731.015 basechar 0
LayerCount: 2
Fore
SplineSet
150 419 m 1
 473 419 l 1
 473 322 l 1
 150 322 l 1
 150 419 l 1
70 731.0078125 m 1
 538 731.0078125 l 1
 538 634.0078125 l 1
 177 634.0078125 l 1
 177 97 l 5
 538 97 l 5
 538 0 l 1
 70 0 l 1
 70 731.0078125 l 1
EndSplineSet
Validated: 5
EndChar

StartChar: T
Encoding: 84 84 6
Width: 587
VWidth: 0
Flags: W
HStem: 0 21G<253.5 358.5> 635.008 96<45 253.5 358.5 567> 635.008 65.9922<253.5 358.5>
VStem: 253.5 105<0 701>
AnchorPoint: "Anchor-2" 307 0 basechar 0
AnchorPoint: "Anchor-0" 305 731 basechar 0
LayerCount: 2
Fore
SplineSet
567 635.0078125 m 261xd0
 45 635.0078125 l 261
 45 731.0078125 l 261
 567 731.0078125 l 261
 567 635.0078125 l 261xd0
253.5 0 m 261
 253.5 701 l 261
 358.5 701 l 261xb0
 358.5 0 l 261
 253.5 0 l 261
EndSplineSet
Validated: 5
EndChar

StartChar: N
Encoding: 78 78 7
Width: 735
VWidth: 0
Flags: W
HStem: 0 21G<70 172 550.812 665> 711.008 20G<70 184.188 563 665>
VStem: 70 102<0 554.008> 563 102<177 731.008>
AnchorPoint: "Anchor-2" 365 0 basechar 0
AnchorPoint: "Anchor-0" 365 731.008 basechar 0
LayerCount: 2
Fore
SplineSet
70 0 m 5
 70 731.0078125 l 5
 170 731.0078125 l 5
 563 177 l 5
 563 731.0078125 l 5
 665 731.0078125 l 5
 665 0 l 5
 565 0 l 5
 172 554.0078125 l 5
 172 0 l 5
 70 0 l 5
EndSplineSet
Validated: 1
EndChar

StartChar: M
Encoding: 77 77 8
Width: 826
VWidth: 0
Flags: W
HStem: 0 21G<70 174 652 756> 711.008 20G<70 187.588 638.231 756>
VStem: 70 104<0 543.008> 652 104<0 543.008>
AnchorPoint: "Anchor-2" 411 0 basechar 0
AnchorPoint: "Anchor-0" 411 731.008 basechar 0
LayerCount: 2
Fore
SplineSet
70 0 m 1
 70 731.0078125 l 1
 177 731.0078125 l 1
 411 289 l 1
 649 731.0078125 l 1
 756 731.0078125 l 1
 756 0 l 1
 652 0 l 1
 652 543.0078125 l 1
 444 155 l 1
 378 155 l 1
 174 543.0078125 l 1
 174 0 l 1
 70 0 l 1
EndSplineSet
Validated: 1
EndChar

StartChar: Q
Encoding: 81 81 9
Width: 865
Flags: W
HStem: -10.0078 108.8<299.875 509.637> 636.192 102.8<298.902 510.041>
VStem: 50 111.4<243.324 491.775> 649.6 111.4<244.767 491.676>
AnchorPoint: "Anchor-2" 455 0 basechar 0
AnchorPoint: "Anchor-0" 405 731.008 basechar 0
LayerCount: 2
Fore
SplineSet
161.400390625 368.373046875 m 0
 161.400390625 202.543950489 254.669224322 98.7919921875 405 98.7919921875 c 0
 555.947898079 98.7919921875 649.599609375 203.313677861 649.599609375 370.373046875 c 0
 649.599609375 534.947610089 555.948023416 636.192382812 405 636.192382812 c 0
 254.669099497 636.192382812 161.400390625 534.18585382 161.400390625 368.373046875 c 0
50 364.9921875 m 0
 50 587.876718178 189.604661839 738.9921875 403 738.9921875 c 0
 619.374715703 738.9921875 761 597.109134634 761 372.9921875 c 0
 761 184.687285809 635.006835938 99.0087890625 635.006835938 99.0087890625 c 1
 721.183118246 102.179052737 817 116.9921875 817 116.9921875 c 1
 825 14.9921875 l 1
 825 14.9921875 744.093333333 -10.0078125 455 -10.0078125 c 0
 196.471083365 -10.0078125 50 128.412068449 50 364.9921875 c 0
EndSplineSet
Validated: 1
EndChar

StartChar: C
Encoding: 67 67 10
Width: 678
Flags: W
HStem: -10.0078 98.7998<298.239 545.421> 637.192 101.8<300.904 537.81>
VStem: 50 110.4<229.211 485.572>
AnchorPoint: "Anchor-2" 395 0 basechar 0
AnchorPoint: "Anchor-0" 396 731.008 basechar 0
LayerCount: 2
Fore
SplineSet
50 356.9921875 m 0
 50 580.915039062 180.273651541 738.9921875 410 738.9921875 c 0
 561.777464304 738.9921875 630.728515625 687.216796875 630.728515625 687.216796875 c 1
 606.446289062 575.676757812 l 1
 606.446289062 575.676757812 549.513308203 637.192382812 413 637.192382812 c 0
 241.7644898 637.192382812 160.400390625 517.387975631 160.400390625 355.791992188 c 0
 160.400390625 193.178735618 241.719857449 88.7919921875 415 88.7919921875 c 4
 551.157547777 88.7919921875 617.084960938 148.7421875 617.084960938 148.7421875 c 5
 638 44 l 5
 638 44 561.898363675 -10.0078125 410 -10.0078125 c 0
 179.642535199 -10.0078125 50 132.518554688 50 356.9921875 c 0
EndSplineSet
Validated: 1
EndChar

StartChar: G
Encoding: 71 71 11
Width: 767
Flags: W
HStem: -10.0078 97.7998<293.19 514.114> 305 94<407 551 665 746> 305 44<551 665> 637.192 101.8<302.931 540.586>
VStem: 50 109.4<231.732 482.771> 581 106<148.157 303.473>
AnchorPoint: "Anchor-0" 395 731.008 basechar 0
AnchorPoint: "Anchor-2" 395 0 basechar 0
LayerCount: 2
Fore
SplineSet
407 399 m 1xdc
 746 399 l 1
 746 305 l 1
 407 305 l 1
 407 399 l 1xdc
402 -10.0078125 m 0
 167.300735688 -10.0078125 50 143.518554688 50 364.9921875 c 0
 50 585.915039062 181.083007812 738.9921875 414 738.9921875 c 0
 564.401751754 738.9921875 632.728515625 686.216796875 632.728515625 686.216796875 c 1
 608.446289062 574.676757812 l 1
 608.446289062 574.676757812 552.102147003 637.192382812 417 637.192382812 c 0
 241.678196135 637.192382812 159.400390625 521.185095116 159.400390625 360.791992188 c 0
 159.400390625 202.420826367 237.206442259 87.7919921875 403 87.7919921875 c 0
 528.665657068 87.7919921875 581 138.517468802 581 234 c 0
 581 308.531837686 551 349 551 349 c 1
 665 349 l 1xbc
 665 349 687 289.330827068 687 221 c 0
 687 80.8474007623 593.583528202 -10.0078125 402 -10.0078125 c 0
EndSplineSet
Validated: 5
EndChar

StartChar: S
Encoding: 83 83 12
Width: 589
Flags: W
HStem: -9.99805 97.9893<143.769 375.279> 642.003 96.9893<207.2 427.146>
VStem: 51.8838 109.989<476.496 601.319> 429.483 109.517<134.28 264.748>
AnchorPoint: "Anchor-2" 285.593 0.0117188 basechar 0
AnchorPoint: "Anchor-0" 289.593 731 basechar 0
LayerCount: 2
Fore
SplineSet
518.522460938 686.368164062 m 1
 489.865234375 586.505859375 l 1
 489.865234375 586.505859375 427.267578125 642.002929688 304.778320312 642.002929688 c 0
 209.653320312 642.002929688 161.873046875 605.21484375 161.873046875 533 c 0
 161.873046875 473.882542855 208.714688999 447.464990879 295.239257812 425.0390625 c 0
 473.886838769 378.736169453 539 322.043800156 539 196.296875 c 0
 539 65.3115234375 442.756835938 -9.998046875 273.978515625 -9.998046875 c 0
 130.6640625 -9.998046875 35 48.2158203125 35 48.2158203125 c 1
 63.6572265625 148.078125 l 1
 63.6572265625 148.078125 145.205078125 87.9912109375 272.978515625 87.9912109375 c 0
 362.0703125 87.9912109375 429.483398438 119.5390625 429.483398438 196 c 0
 429.483398438 268.744492778 391.16919743 300.029243338 262.233398438 329.452148438 c 0
 110.76341584 364.017311551 51.8837890625 432.264266961 51.8837890625 533.723632812 c 0
 51.8837890625 664.713867188 142.28125 738.9921875 301.778320312 738.9921875 c 0
 449.62966456 738.9921875 518.522460938 686.368164062 518.522460938 686.368164062 c 1
EndSplineSet
Validated: 1
EndChar

StartChar: D
Encoding: 68 68 13
Width: 734
Flags: W
HStem: 0 98<177 429.066> 633.008 98<177 429.158>
VStem: 70 107<98 633.008> 577.6 111.4<239.467 491.32>
AnchorPoint: "Anchor-2" 302 0 basechar 0
AnchorPoint: "Anchor-0" 302 731.015 basechar 0
LayerCount: 2
Fore
SplineSet
304 731.0078125 m 2
 572.5078125 731.0078125 689 583.118446321 689 364.9921875 c 0
 689 147.471100908 572.25 0 304 0 c 2
 70 0 l 1
 70 731.0078125 l 1
 304 731.0078125 l 2
287 633.0078125 m 2
 177 633.0078125 l 1
 177 98 l 1
 287 98 l 2
 471.272460938 98 577.599609375 175.05078125 577.599609375 365.791992188 c 0
 577.599609375 555.977539062 471.252929688 633.0078125 287 633.0078125 c 2
EndSplineSet
Validated: 1
EndChar

StartChar: P
Encoding: 80 80 14
Width: 639
Flags: W
HStem: 0 21G<70 180> 250 96<161 412.952> 634.008 97<180 410.209>
VStem: 70 110<0 250 346 634.008> 161 19<250 346> 479.6 114.4<406.148 569.811>
AnchorPoint: "Anchor-2" 302 0 basechar 0
AnchorPoint: "Anchor-0" 292 731.015 basechar 0
LayerCount: 2
Fore
SplineSet
161 250 m 1xec
 161 346 l 1xec
 303 346 l 2
 411.983593421 346 479.599609375 385.408443681 479.599609375 486.791992188 c 0
 479.599609375 591.963867187 411.972070419 634.0078125 303 634.0078125 c 2
 180 634.0078125 l 1
 180 0 l 1
 70 0 l 1
 70 731.0078125 l 1xf4
 317 731.0078125 l 2
 506.736333917 731.0078125 594 632.604492188 594 485.9921875 c 0
 594 344.75390625 506.5546875 250 317 250 c 2
 161 250 l 1xec
EndSplineSet
Validated: 5
EndChar

StartChar: R
Encoding: 82 82 15
Width: 654
Flags: W
HStem: 0 21G<70 178 513.467 639> 292 89<141 384.689> 634.008 97<178 417.529>
VStem: 70 108<0 292 381 634.008> 141 37<292 381> 473.6 112.4<432.819 582.773>
AnchorPoint: "Anchor-2" 342 0 basechar 0
AnchorPoint: "Anchor-0" 298 731.015 basechar 0
LayerCount: 2
Fore
SplineSet
141 292 m 5xec
 141 381 l 5xec
 315 381 l 6
 412.875371643 381 473.599609375 417.142912498 473.599609375 507.791992188 c 4
 473.599609375 597.961142006 415.162784176 634.0078125 321 634.0078125 c 6
 178 634.0078125 l 5
 178 0 l 5
 70 0 l 5
 70 731.0078125 l 5xf4
 338 731.0078125 l 6
 507.872241197 731.0078125 586 642.514098701 586 511.9921875 c 4
 586 344.606777323 450.451171875 326.877929688 450.451171875 326.877929688 c 5
 450.451171875 326.877929688 512.405656853 325.150139753 561.3359375 199.475585938 c 6
 639 0 l 5
 521 0 l 5
 455.046875 175.096679688 l 6
 418.506997238 270.937116181 373.688162016 292 270 292 c 6
 141 292 l 5xec
EndSplineSet
Validated: 5
EndChar

StartChar: B
Encoding: 66 66 16
Width: 645
Flags: W
HStem: -0.0078125 93<179 426.598> 328 89<134 413.575> 638.008 93<179 410.21>
VStem: 134 45<328 417> 457.6 110.4<459.409 594.007> 484.6 115.4<141.894 281.745>
AnchorPoint: "Anchor-2" 302 0 basechar 0
AnchorPoint: "Anchor-0" 302 731.015 basechar 0
LayerCount: 2
Fore
SplineSet
70 731.0078125 m 1xf4
 334 731.0078125 l 2
 497.594304797 731.0078125 568 650.443359375 568 538.9921875 c 0xf8
 568 409.569335938 463.087890625 380.067382812 463.087890625 380.067382812 c 1
 463.087890625 380.067382812 600 355.202531826 600 201.0078125 c 0
 600 79.3884969937 515.958745912 -0.0078125 347 -0.0078125 c 2
 70 -0.0078125 l 1
 70 731.0078125 l 1xf4
134 417 m 1
 324 417 l 2
 406.447759597 417 457.599609375 451.609255478 457.599609375 527.791992188 c 0xf8
 457.599609375 605.266973868 402.609426697 638.0078125 314 638.0078125 c 2
 179 638.0078125 l 1
 179 92.9921875 l 1
 324 92.9921875 l 2
 422.500727547 92.9921875 484.599609375 125.847104015 484.599609375 213.208007812 c 0xf4
 484.599609375 295.980717694 427.515251647 328 323 328 c 2
 134 328 l 1
 134 417 l 1
EndSplineSet
Validated: 5
EndChar

StartChar: K
Encoding: 75 75 17
Width: 644
VWidth: 0
Flags: W
HStem: 0 21G<70 176 487.605 642> 317 95<138 278> 711.008 20G<70 176 467.101 620>
VStem: 70 106<0 317 412 731.008> 138 38<317 412> 222 56<344 382>
AnchorPoint: "Anchor-2" 322 0 basechar 0
AnchorPoint: "Anchor-0" 322 731.008 basechar 0
LayerCount: 2
Fore
SplineSet
138 412 m 1xec
 278 412 l 1
 278 317 l 1
 138 317 l 1
 138 412 l 1xec
504 0 m 257
 222 344 l 1
 222 382 l 1
 482 731.0078125 l 261
 620 731.0078125 l 261
 335 372 l 1
 642 0 l 257
 504 0 l 257
70 0 m 257xf4
 70 731.0078125 l 257
 176 731.0078125 l 257
 176 0 l 257
 70 0 l 257xf4
EndSplineSet
Validated: 5
EndChar

StartChar: V
Encoding: 86 86 18
Width: 679
VWidth: 0
Flags: W
HStem: 0 21G<270.668 405.414> 711.008 20G<10 136.83 542.065 669>
AnchorPoint: "Anchor-2" 340 0 basechar 0
AnchorPoint: "Anchor-0" 336 731.008 basechar 0
LayerCount: 2
Fore
SplineSet
398 0 m 1
 278 0 l 1
 10 731.0078125 l 1
 130 731.0078125 l 1
 337.908203125 122.2421875 l 5
 549 731.0078125 l 1
 669 731.0078125 l 1
 398 0 l 1
EndSplineSet
Validated: 1
EndChar

StartChar: A
Encoding: 65 65 19
Width: 699
VWidth: 0
Flags: W
HStem: 0 21G<10 135.3 564.64 689> 184 98<160 543> 711.008 20G<281.367 416.661>
AnchorPoint: "Anchor-3" 609 0 basechar 0
AnchorPoint: "Anchor-0" 353 731.008 basechar 0
AnchorPoint: "Anchor-2" 354 0 basechar 0
LayerCount: 2
Fore
SplineSet
289 731.0078125 m 1
 409 731.0078125 l 1
 689 0 l 1
 572 0 l 1
 349.091796875 605.765625 l 1
 128 0 l 1
 10 0 l 1
 289 731.0078125 l 1
160 282 m 1
 543 282 l 1
 543 184 l 1
 160 184 l 1
 160 282 l 1
EndSplineSet
Validated: 5
EndChar

StartChar: W
Encoding: 87 87 20
Width: 969
VWidth: 0
Flags: W
HStem: 0 21G<192.856 332.904 625.264 765.445> 711.008 20G<10 125.842 842.954 959>
AnchorPoint: "Anchor-2" 490 0 basechar 0
AnchorPoint: "Anchor-0" 486 731.008 basechar 0
LayerCount: 2
Fore
SplineSet
327 0 m 1
 198 0 l 1
 10 731.0078125 l 1
 121 731.0078125 l 1
 267.908203125 124.2421875 l 5
 430 689.0078125 l 1
 533 689.0078125 l 1
 694.908203125 124.2421875 l 5
 848 731.0078125 l 1
 959 731.0078125 l 1
 760 0 l 1
 631 0 l 1
 481.201171875 522.340820312 l 1
 327 0 l 1
EndSplineSet
Validated: 1
EndChar

StartChar: X
Encoding: 88 88 21
Width: 643
VWidth: 0
Flags: W
HStem: 0 21G<10 151.453 488.989 633> 711.008 20G<22 159.554 479.047 621>
VStem: 286 59<358 388>
AnchorPoint: "Anchor-0" 328 731.008 basechar 0
AnchorPoint: "Anchor-2" 328 0 basechar 0
LayerCount: 2
Fore
SplineSet
140 0 m 257
 10 0 l 257
 240 379 l 5
 22 731.0078125 l 257
 148 731.0078125 l 257
 345 390 l 5
 345 358 l 5
 140 0 l 257
501 0 m 257
 286 358 l 5
 286 388 l 5
 491 731.0078125 l 257
 621 731.0078125 l 257
 391 383 l 5
 633 0 l 257
 501 0 l 257
EndSplineSet
Validated: 5
EndChar

StartChar: U
Encoding: 85 85 22
Width: 716
VWidth: 0
Flags: W
HStem: -10 95<255.861 458.698> 711.008 20G<70 178 538 646>
VStem: 70 108<167.595 731.008> 538 108<167.595 731.008>
AnchorPoint: "Anchor-3" 372 0 basechar 0
AnchorPoint: "Anchor-2" 358 0 basechar 0
AnchorPoint: "Anchor-0" 359 731.008 basechar 0
LayerCount: 2
Fore
SplineSet
356 85 m 4
 492.333067162 85 538 157.218675595 538 282 c 6
 538 731.0078125 l 5
 646 731.0078125 l 5
 646 270 l 6
 646 116 580.678082192 -10 357 -10 c 4
 135.317241379 -10 70 116 70 270 c 6
 70 731.0078125 l 5
 178 731.0078125 l 5
 178 282 l 6
 178 157.219119407 222.663549157 85 356 85 c 4
EndSplineSet
Validated: 1
EndChar

StartChar: J
Encoding: 74 74 23
Width: 422
VWidth: 0
Flags: W
HStem: -9.99805 96.998<49.6733 216.167> 639 92<80 246>
VStem: 246 106<118.078 639>
AnchorPoint: "Anchor-2" 162 0 basechar 0
AnchorPoint: "Anchor-0" 204 731 basechar 0
LayerCount: 2
Fore
SplineSet
246 639 m 1
 80 639 l 1
 80 731 l 1
 352 731 l 1
 352 180 l 30
 352 31.798828125 269.072265625 -9.998046875 162 -9.998046875 c 4
 69.68359375 -9.998046875 20 20 20 20 c 5
 32 118 l 5
 32 118 82.08984375 87 139 87 c 4
 214.771763393 87 246 117.68359375 246 188 c 14
 246 639 l 1
EndSplineSet
Validated: 1
EndChar

StartChar: Y
Encoding: 89 89 24
Width: 634
VWidth: 0
Flags: W
HStem: 0 21G<259.5 368.5> 247 61<278.406 350> 711.008 20G<10 143.352 490.282 624>
VStem: 259.5 109<0 308>
AnchorPoint: "Anchor-2" 316 0 basechar 0
AnchorPoint: "Anchor-0" 309 731.008 basechar 0
LayerCount: 2
Fore
SplineSet
350 247 m 5
 278.40625 247 l 5
 10 731.0078125 l 5
 133 731.0078125 l 5
 313.807617188 381.6875 l 5
 501 731.0078125 l 5
 624 731.0078125 l 5
 350 247 l 5
259.5 0 m 261
 259.5 308 l 261
 368.5 308 l 261
 368.5 0 l 261
 259.5 0 l 261
EndSplineSet
Validated: 5
EndChar

StartChar: Z
Encoding: 90 90 25
Width: 596
VWidth: 0
Flags: W
HStem: 0 100<182.542 551> 630.008 101<55 413.458>
AnchorPoint: "Anchor-2" 301 0 basechar 0
AnchorPoint: "Anchor-0" 301 731.016 basechar 0
LayerCount: 2
Fore
SplineSet
45 83 m 1
 413.458007812 630.0078125 l 1
 55 630.0078125 l 1
 55 731.0078125 l 1
 551 731.0078125 l 5
 551 653.0078125 l 5
 182.541992188 100 l 1
 551 100 l 1
 551 0 l 1
 45 0 l 1
 45 83 l 1
EndSplineSet
Validated: 1
EndChar

StartChar: i
Encoding: 105 105 26
Width: 231
VWidth: 0
Flags: W
HStem: 0 21G<65 166> 501.011 20G<65 166> 618.002 133<65.3011 165.699>
VStem: 50.5 130<633.197 735.912> 65 101<0 521.011>
AnchorPoint: "Anchor-3" 130 0 basechar 0
AnchorPoint: "Anchor-2" 117 0 basechar 0
LayerCount: 2
Back
SplineSet
-1.0283203125 0 m 257xe8
 90.5869140625 521.010742188 l 257
 191.586914062 521.010742188 l 257
 99.9716796875 0 l 257
 -1.0283203125 0 l 257xe8
105.768554688 678.702148438 m 128xf0
 105.768554688 723.737373142 133.045219568 751.001953125 173.99609375 751.001953125 c 132
 209.955961081 751.001953125 233.907303003 726.914361204 233.908203125 690.702148438 c 128
 233.908203125 647.090120758 206.628824734 618.001953125 165.672851562 618.001953125 c 128
 129.716233157 618.001953125 105.768554688 642.288785492 105.768554688 678.702148438 c 128xf0
EndSplineSet
Fore
Refer: 59 729 N 1 0 0 1 10.5 12 2
Refer: 28 305 N 1 0 0 1 0 0 2
Validated: 1
EndChar

StartChar: o
Encoding: 111 111 27
Width: 611
Flags: W
HStem: -10.0078 84.7998<222.704 388.806> 442.192 88.7998<222.704 388.806>
VStem: 45 100.4<157.315 359.226> 465.6 100.4<157.315 359.227>
AnchorPoint: "Anchor-3" 320 0 basechar 0
AnchorPoint: "Anchor-2" 306 0 basechar 0
AnchorPoint: "Anchor-0" 306 523.008 basechar 0
LayerCount: 2
Fore
SplineSet
145.400390625 259.373046875 m 0
 145.400390625 145.830575592 206.816540763 74.7919921875 305.807617188 74.7919921875 c 0
 404.801691092 74.7919921875 465.599609375 145.830271366 465.599609375 259.373046875 c 0
 465.599609375 372.560509513 404.801691092 442.192382812 305.807617188 442.192382812 c 0
 206.816540763 442.192382812 145.400390625 372.560244952 145.400390625 259.373046875 c 0
45 260.692382812 m 0
 45 423.017578125 150.498488216 530.9921875 305.807617188 530.9921875 c 0
 461.117327695 530.9921875 566 423.017578125 566 260.692382812 c 0
 566 98.3007812502 461.118039505 -10.0078125 305.807617188 -10.0078125 c 0
 150.497776408 -10.0078125 45 98.30078125 45 260.692382812 c 0
EndSplineSet
Validated: 1
EndChar

StartChar: dotlessi
Encoding: 305 305 28
Width: 231
VWidth: 0
Flags: W
HStem: 0 21G<65 166> 501.011 20G<65 166>
VStem: 65 101<0 521.011>
AnchorPoint: "Anchor-0" 117 521.019 basechar 0
AnchorPoint: "Anchor-2" 117 0 basechar 0
AnchorPoint: "Anchor-3" 130 0 basechar 0
LayerCount: 2
Fore
SplineSet
65 0 m 257
 65 521.010742188 l 257
 166 521.010742188 l 257
 166 0 l 257
 65 0 l 257
EndSplineSet
Validated: 1
EndChar

StartChar: n
Encoding: 110 110 29
Width: 589
VWidth: 0
Flags: W
HStem: 0 21G<65 165 427.6 528> 442.819 88.1729<240.496 386.626> 501.011 20G<65 165>
VStem: 65 100<0 521.011> 116 49<270.692 427.012> 427.6 100.4<0 397.124>
AnchorPoint: "Anchor-2" 293 0 basechar 0
AnchorPoint: "Anchor-0" 295 521.019 basechar 0
LayerCount: 2
Fore
SplineSet
165 254 m 5xd4
 116 270.692382812 l 5xcc
 116 427.01171875 199.358764648 530.9921875 341 530.9921875 c 4
 470.95703125 530.9921875 528 455.100211175 528 314 c 6
 528 0 l 5
 427.599609375 0 l 5
 427.599609375 305.373046875 l 6
 427.599609375 397.406576266 393.157415275 442.819335938 314 442.819335938 c 4
 225.11590808 442.819335938 165 376 165 254 c 5xd4
65 0 m 261xb4
 65 521.010742188 l 261
 165 521.010742188 l 261
 165 0 l 261
 65 0 l 261xb4
EndSplineSet
Validated: 5
EndChar

StartChar: h
Encoding: 104 104 31
Width: 589
VWidth: 0
Flags: W
HStem: 0 21G<65 164 428.6 528> 442.819 88.1729<239.803 386.947> 731.002 20G<65 164>
VStem: 65 99<0 751.002> 114 50<270.692 427.012> 428.6 99.4004<0 397.124>
AnchorPoint: "Anchor-2" 293 0 basechar 0
AnchorPoint: "Anchor-0" 114 751.019 basechar 0
LayerCount: 2
Fore
SplineSet
164 254 m 1xf4
 114 270.692382812 l 1xec
 114 427.01171875 198.099731445 530.9921875 341 530.9921875 c 0
 470.95703125 530.9921875 528 455.100211175 528 314 c 2
 528 0 l 1
 428.599609375 0 l 1
 428.599609375 305.373046875 l 2
 428.599609375 397.406576266 393.854225905 442.819335938 314 442.819335938 c 0
 224.51937055 442.819335938 164 376 164 254 c 1xf4
65 0 m 257xf4
 65 751.001953125 l 257
 164 751.001953125 l 257
 164 0 l 257
 65 0 l 257xf4
EndSplineSet
Validated: 5
EndChar

StartChar: u
Encoding: 117 117 32
Width: 589
VWidth: 0
Flags: W
HStem: -10 88.1729<202.374 348.281> -0.0185547 21G<424 524> 500.992 20G<61 161.4 424 524>
VStem: 61 100.4<123.868 520.992> 424 100<250.3 520.992> 424 48<93.9805 250.3>
AnchorPoint: "Anchor-3" 465 0 basechar 0
AnchorPoint: "Anchor-2" 289 0 basechar 0
AnchorPoint: "Anchor-0" 291 521.019 basechar 0
LayerCount: 2
Fore
SplineSet
424 266.9921875 m 5xb8
 472 250.299804688 l 5xb4
 472 93.98046875 389.010742188 -10 248 -10 c 4
 118.04296875 -10 61 65.8916015625 61 206.9921875 c 6
 61 520.9921875 l 5
 161.400390625 520.9921875 l 5
 161.400390625 215.619140625 l 6
 161.400390625 123.5859375 195.84375 78.1728515625 275 78.1728515625 c 4
 363.883789062 78.1728515625 424 144.9921875 424 266.9921875 c 5xb8
524 520.9921875 m 261x78
 524 -0.0185546875 l 261x78
 424 -0.0185546875 l 261x74
 424 520.9921875 l 261
 524 520.9921875 l 261x78
EndSplineSet
Validated: 5
EndChar

StartChar: m
Encoding: 109 109 33
Width: 892
VWidth: 0
Flags: W
HStem: 0 21G<65 165 396.6 499 730.6 831> 444.819 86.1729<228.023 359.876 560.197 693.662> 501.011 20G<65 165>
VStem: 65 100<0 521.011> 116 49<279.692 430.607> 396.6 102.4<0 401.719> 452 47<289.692 434.602> 730.6 100.4<0 407.664>
AnchorPoint: "Anchor-2" 450 0 basechar 0
AnchorPoint: "Anchor-0" 451 521.019 basechar 0
LayerCount: 2
Fore
SplineSet
499 263 m 1xc5
 452 289.692382812 l 1xc3
 452 434.601539682 526.837646484 530.9921875 654 530.9921875 c 0
 777.007457386 530.9921875 831 458.247917987 831 323 c 2
 831 0 l 1
 730.599609375 0 l 1
 730.599609375 314.373046875 l 2
 730.599609375 401.719402025 699.189308984 444.819335938 627 444.819335938 c 0
 550.643196203 444.819335938 499 380.477158122 499 263 c 1xc5
165 263 m 1xd5
 116 279.692382812 l 1xc9
 116 430.606897086 191.578613281 530.9921875 320 530.9921875 c 0
 444.397372159 530.9921875 499 458.247917987 499 323 c 2
 499 0 l 1
 396.599609375 0 l 1
 396.599609375 314.373046875 l 2
 396.599609375 401.719402025 365.189308984 444.819335938 293 444.819335938 c 0
 216.643196203 444.819335938 165 380.477158122 165 263 c 1xd5
65 0 m 257xb1
 65 521.010742188 l 257
 165 521.010742188 l 257
 165 0 l 257
 65 0 l 257xb1
EndSplineSet
Validated: 5
EndChar

StartChar: c
Encoding: 99 99 34
Width: 510
Flags: W
HStem: -10.0078 86.7998<228.438 416.227> 442.192 88.7998<228.049 415.684>
VStem: 45 103.4<159.5 359.232>
AnchorPoint: "Anchor-2" 298 0 basechar 0
AnchorPoint: "Anchor-0" 299 523.008 basechar 0
LayerCount: 2
Fore
SplineSet
45 261.9921875 m 0
 45 419.676080354 141.628277043 530.9921875 308.828125 530.9921875 c 0
 422.597408914 530.9921875 474.728515625 487.216796875 474.728515625 487.216796875 c 1
 453.446289062 393.676757812 l 1
 453.446289062 393.676757812 412.949247532 442.192382812 316.66796875 442.192382812 c 0
 202.600339388 442.192382812 148.400390625 364.962175758 148.400390625 260.791992188 c 0
 148.400390625 148.729139743 203.397360695 76.7919921875 320.587890625 76.7919921875 c 4
 412.311561454 76.7919921875 457.084960938 125.7421875 457.084960938 125.7421875 c 5
 475 33 l 1
 475 33 418.873303323 -10.0078125 307.84765625 -10.0078125 c 0
 140.800035445 -10.0078125 45 95.6248084128 45 261.9921875 c 0
EndSplineSet
Validated: 1
EndChar

StartChar: s
Encoding: 115 115 35
Width: 466
Flags: W
HStem: -9.99805 83.9395<98.9112 297.726> 447.993 82.9404<156.648 348.715>
VStem: 39.0898 97.3896<339.027 427.982> 323.909 97.0908<100.436 193.53>
AnchorPoint: "Anchor-2" 222.063 -0.488281 basechar 0
AnchorPoint: "Anchor-0" 225.913 523.341 basechar 0
LayerCount: 2
Fore
SplineSet
407.396484375 491.990234375 m 1
 383.171875 406.271484375 l 1
 383.171875 406.271484375 334.492194253 447.993164062 239.240234375 447.993164062 c 0
 170.837647277 447.993164062 136.479492188 425.852539062 136.479492188 382.390625 c 0
 136.479492188 341.51497404 169.762997054 323.783085575 248.478515625 303.995117188 c 0
 368.074656298 276.233158649 421 234.38101314 421 149.390625 c 0
 421 48.1884765625 345.838353594 -9.998046875 214.030273438 -9.998046875 c 4
 90.4533945519 -9.998046875 25 34.3056640625 25 34.3056640625 c 5
 49.224609375 122.024414062 l 5
 49.224609375 122.024414062 111.501760147 73.94140625 209.080078125 73.94140625 c 4
 274.44802301 73.94140625 323.909179688 95.2931669973 323.909179688 147.041015625 c 0
 323.909179688 192.817726919 295.553143338 208.656855176 198.921875 231.020507812 c 0
 85.6261183119 257.158565141 39.08984375 297.360808632 39.08984375 377.028320312 c 0
 39.08984375 475.241210938 110.498046875 530.93359375 236.490234375 530.93359375 c 0
 353.07421875 530.93359375 407.396484375 491.990234375 407.396484375 491.990234375 c 1
EndSplineSet
Validated: 1
EndChar

StartChar: r
Encoding: 114 114 36
Width: 370
VWidth: 0
Flags: W
HStem: 0 21G<65 165> 443.819 87.1729<215.455 359.611> 501.011 20G<65 165>
VStem: 65 100<0 521.011> 142 23<318.692 446.186>
AnchorPoint: "Anchor-2" 268 0 basechar 0
AnchorPoint: "Anchor-0" 275 521.019 basechar 0
LayerCount: 2
Fore
SplineSet
357 421 m 5xc8
 357 421 335.322580646 443.819335938 285 443.819335938 c 0
 213.41549644 443.819335938 165 393.632347389 165 302 c 1xd0
 142 318.692382812 l 1
 142 446.18600321 183.031010913 530.9921875 301 530.9921875 c 0
 350.13372582 530.9921875 370 514 370 514 c 5
 357 421 l 5xc8
65 0 m 257
 65 521.010742188 l 257
 165 521.010742188 l 257xb0
 165 0 l 257
 65 0 l 257
EndSplineSet
Validated: 5
EndChar

StartChar: l
Encoding: 108 108 37
Width: 298
VWidth: 0
Flags: W
HStem: -9.99805 89.998<177.899 283.068> 731.002 20G<65 166>
VStem: 65 101<90.3441 751.002>
AnchorPoint: "Anchor-2" 172 0 basechar 0
AnchorPoint: "Anchor-0" 116 751.019 basechar 0
LayerCount: 2
Fore
SplineSet
201 -9.998046875 m 0
 103.518300173 -9.998046875 65 38.6584837429 65 135.991210938 c 2
 65 751.001953125 l 1
 166 751.001953125 l 1
 166 150 l 2
 166 93.8772398018 190.877773557 80 227 80 c 0
 261.658620069 80 282 95 282 95 c 1
 288 9 l 1
 288 9 261.797468354 -9.998046875 201 -9.998046875 c 0
EndSplineSet
Validated: 1
EndChar

StartChar: uni0237
Encoding: 567 567 38
Width: 231
VWidth: 0
Flags: W
HStem: -199.998 90.998<-76.2717 46.7153> 501.011 20G<65 166>
VStem: 65 101<-92.3306 521.011>
AnchorPoint: "Anchor-2" 64 -190 basechar 0
AnchorPoint: "Anchor-0" 113 521.019 basechar 0
LayerCount: 2
Fore
SplineSet
11 -199.998046875 m 0
 -56.3448275862 -199.998046875 -82 -180 -82 -180 c 1
 -75 -94 l 1
 -75 -94 -44.5081967213 -109 -12 -109 c 0
 29.8133333333 -109 65 -93.7350362181 65 -32 c 2
 65 521.010742188 l 1
 166 521.010742188 l 1
 166 -43 l 2
 166 -147.666519537 122.100466716 -199.998046875 11 -199.998046875 c 0
EndSplineSet
Validated: 1
EndChar

StartChar: e
Encoding: 101 101 40
Width: 561
Flags: W
HStem: -10.0078 88.7998<219.743 435.788> 227 79<124 423.324> 446.192 84.7998<210.725 364.213>
VStem: 124 15.4004<227 306>
AnchorPoint: "Anchor-3" 403 0 basechar 0
AnchorPoint: "Anchor-2" 302 0 basechar 0
AnchorPoint: "Anchor-0" 291 523.008 basechar 0
LayerCount: 2
Fore
SplineSet
38 261.9921875 m 0
 38 419.67578125 129.90625 530.9921875 288.927734375 530.9921875 c 0
 448.127929688 530.9921875 523 428.25 523 257 c 0
 523 239.674804688 522.6484375 227 522.6484375 227 c 1
 124 227 l 1
 124 306 l 1
 423.32421875 306 l 1
 415.921875 373.126953125 388.34375 446.192382812 287.028320312 446.192382812 c 0
 186.952148438 446.192382812 139.400390625 368.110351562 139.400390625 262.791992188 c 0
 139.400390625 150.729492188 192.375 78.7919921875 314.408203125 78.7919921875 c 4
 424.5390625 78.7919921875 478.733398438 123.7421875 478.733398438 123.7421875 c 5
 494.6484375 30 l 1
 494.6484375 30 433.927734375 -10.0078125 308.528320312 -10.0078125 c 0
 136.663085938 -10.0078125 38 95.625 38 261.9921875 c 0
EndSplineSet
Validated: 5
EndChar

StartChar: b
Encoding: 98 98 41
Width: 609
VWidth: 0
Flags: W
HStem: -10 84.1729<228.442 392.328> 0 21G<65 165> 443.819 87.1729<239.153 393.858> 731.002 20G<65 165>
VStem: 65 100<170.3 751.002> 127 38<300.692 438.996> 136 29<62.0233 170.3> 461.34 102.66<150.302 366.906>
AnchorPoint: "Anchor-2" 303 0 basechar 0
AnchorPoint: "Anchor-0" 114 751.019 basechar 0
LayerCount: 2
Fore
SplineSet
65 0 m 257x79
 65 751.001953125 l 257
 165 751.001953125 l 257x79
 165 0 l 257x73
 65 0 l 257x79
564 264 m 0
 564 83.2222366898 468.470073544 -10 329.059570312 -10 c 0
 202.062994344 -10 136 62.0233279829 136 170.299804688 c 1xb3
 165 236.9921875 l 1
 165 129.804134407 223.523184024 74.1728515625 309.459960938 74.1728515625 c 0
 405.596893602 74.1728515625 461.33984375 132.978218907 461.33984375 260.619140625 c 4
 461.33984375 378.840473754 406.244390734 443.819335938 316.3203125 443.819335938 c 0
 226.290420437 443.819335938 165 383.175299064 165 284 c 1xb9
 127 300.692382812 l 1xb5
 127 438.995646538 203.670267421 530.9921875 341.799804688 530.9921875 c 0
 473.704485816 530.9921875 564 423.608787154 564 264 c 0
EndSplineSet
Validated: 5
EndChar

StartChar: d
Encoding: 100 100 42
Width: 608
VWidth: 0
Flags: W
HStem: -10.0088 83.1729<217.058 376.301> -0.00878906 21G<443 543> 445.811 85.1729<219.455 379.047> 731.002 20G<443 543>
VStem: 45 103.4<148.507 365.925> 443 100<201.291 751.002> 443 38<313.684 444.18> 443 29<74.3979 201.291>
AnchorPoint: "Anchor-2" 312 -0.00878906 basechar 0
AnchorPoint: "Anchor-0" 494.012 751.01 basechar 0
LayerCount: 2
Fore
SplineSet
543 -0.0087890625 m 257x7c
 443 -0.0087890625 l 257x79
 443 751.001953125 l 257
 543 751.001953125 l 257
 543 -0.0087890625 l 257x7c
45 260.991210938 m 0
 45 422.393407726 141.234359732 530.983398438 281.307617188 530.983398438 c 0
 409.925612099 530.983398438 481 444.17989285 481 313.68359375 c 1xba
 443 276.991210938 l 1
 443 388.129214538 386.042691798 445.810546875 301.828125 445.810546875 c 0
 204.473515792 445.810546875 148.400390625 379.058246022 148.400390625 257.610351562 c 0
 148.400390625 131.338627616 204.974517181 73.1640625 297.908203125 73.1640625 c 0
 384.460505997 73.1640625 443 136.126292272 443 239.983398438 c 1xbc
 472 201.291015625 l 1
 472 74.3979309678 406.669621566 -10.0087890625 280.328125 -10.0087890625 c 0xb9
 140.831920187 -10.0087890625 45 82.1927662037 45 260.991210938 c 0
EndSplineSet
Validated: 5
EndChar

StartChar: p
Encoding: 112 112 43
Width: 608
VWidth: 0
Flags: W
HStem: -10.0586 84.1729<233.188 392.36> 446.761 84.1729<233.69 392.331> 501.011 20G<65 165>
VStem: 65 100<-189.994 521.011> 127 38<75.946 205.241> 136 29<317.634 445.728> 461.548 101.452<152.641 370.136>
AnchorPoint: "Anchor-2" 113 -189.988 basechar 0
AnchorPoint: "Anchor-0" 295 521.019 basechar 0
LayerCount: 2
Fore
SplineSet
563 255.93359375 m 4xc6
 563 96.9226098079 476.870572805 -10.05859375 326.700195312 -10.05859375 c 4
 198.079682192 -10.05859375 127 75.9459833184 127 205.241210938 c 5xca
 165 241.93359375 l 5
 165 131.453915234 225.495075706 74.1142578125 314.940429688 74.1142578125 c 4
 406.007343775 74.1142578125 461.547851562 139.802495463 461.547851562 259.314453125 c 4
 461.547851562 387.639973728 403.858586216 446.760742188 309.059570312 446.760742188 c 4
 223.123026485 446.760742188 165 383.421084766 165 278.94140625 c 5xd2
 136 317.633789062 l 5
 136 445.727945201 202.331096276 530.93359375 330.620117188 530.93359375 c 4
 468.359419882 530.93359375 563 437.371129919 563 255.93359375 c 4xc6
65 -189.994140625 m 261xb2
 65 521.010742188 l 261
 165 521.010742188 l 261
 165 -189.994140625 l 261
 65 -189.994140625 l 261xb2
EndSplineSet
Validated: 5
EndChar

StartChar: q
Encoding: 113 113 44
Width: 608
VWidth: 0
Flags: W
HStem: -10.0586 85.1729<217.215 380.287> 443.761 87.1729<221.04 374.312> 501.011 20G<443 543>
VStem: 45 102.4<148.868 365.101> 443 100<-189.917 521.011> 443 38<300.711 438.968> 443 29<61.9956 170.318>
AnchorPoint: "Anchor-2" 494.052 -189.911 basechar 0
AnchorPoint: "Anchor-0" 307 521.019 basechar 0
LayerCount: 2
Fore
SplineSet
45 258.94140625 m 4xd2
 45 421.539209462 139.614643581 530.93359375 277.307617188 530.93359375 c 4
 408.506989135 530.93359375 481 438.967870831 481 300.7109375 c 5xd4
 443 284.018554688 l 5
 443 389.180843776 386.026537608 443.760742188 301.788085938 443.760742188 c 4
 205.771238232 443.760742188 147.400390625 378.42719227 147.400390625 259.560546875 c 4
 147.400390625 133.288822928 205.089286521 75.1142578125 299.887695312 75.1142578125 c 4
 385.259162251 75.1142578125 443 130.430225427 443 237.010742188 c 5xd8
 472 170.318359375 l 5
 472 61.9955522765 406.655974457 -10.05859375 280.288085938 -10.05859375 c 4
 140.832043933 -10.05859375 45 81.4625072338 45 258.94140625 c 4xd2
543 -189.916992188 m 261xb8
 443 -189.916992188 l 261
 443 521.010742188 l 261
 543 521.010742188 l 261
 543 -189.916992188 l 261xb8
EndSplineSet
Validated: 5
EndChar

StartChar: g
Encoding: 103 103 45
Width: 607
VWidth: 0
Flags: W
HStem: -199.996 88.7998<150.706 376.971> 2.94141 81.1729<217.139 375.993> 443.761 87.1729<220.121 372.849> 501.011 20G<442 542>
VStem: 45 103.4<157.483 365.423> 442 100<-46.6198 55.083 204.318 521.011> 442 38<304.711 440.566> 442 29<83.3843 204.318>
AnchorPoint: "Anchor-2" 303 -189.988 basechar 0
AnchorPoint: "Anchor-0" 307 521.019 basechar 0
LayerCount: 2
Fore
SplineSet
45 267.94140625 m 4xe9
 45 425.158980557 138.818787682 530.93359375 275.408203125 530.93359375 c 4
 407.19187355 530.93359375 480 440.565727869 480 304.7109375 c 5xea
 442 287.018554688 l 5
 442 390.205868522 384.647111157 443.760742188 299.84765625 443.760742188 c 4
 205.659521571 443.760742188 148.400390625 379.491255473 148.400390625 262.560546875 c 4
 148.400390625 140.396416242 205.718725687 84.1142578125 299.908203125 84.1142578125 c 4
 384.670901662 84.1142578125 442 141.821949835 442 253.010742188 c 5xec
 471 204.318359375 l 5
 471 83.3843017279 405.667534426 2.94140625 279.328125 2.94140625 c 4
 140.429343698 2.94140625 45 93.101598669 45 267.94140625 c 4xe9
442 55.0830078125 m 2xdc
 442 521.010742188 l 257
 542 521.010742188 l 257
 542 44.0830078125 l 258
 542 -122.813404288 453.10765003 -199.99609375 284.208007812 -199.99609375 c 0
 166.161093017 -199.99609375 88 -160.98828125 88 -160.98828125 c 1
 102.915039062 -67.24609375 l 1
 102.915039062 -67.24609375 171.430363822 -111.196289062 270.408203125 -111.196289062 c 0
 388.938056617 -111.196289062 442 -65.9883499542 442 55.0830078125 c 2xdc
EndSplineSet
Validated: 5
EndChar

StartChar: a
Encoding: 97 97 46
Width: 563
VWidth: 0
Flags: W
HStem: -10.0088 81.1729<169.141 310.432 472.11 542.072> 255.811 69.1729<219.356 372> 445.192 85.7998<142.707 326.877>
VStem: 41 106.4<93.428 204.716> 367 99<78.4449 117 171.308 255.811 315.011 404.69> 367 28<62.4209 171.308>
AnchorPoint: "Anchor-3" 433 0 basechar 0
AnchorPoint: "Anchor-0" 258.729 523.008 basechar 0
AnchorPoint: "Anchor-2" 262 0 basechar 0
LayerCount: 2
Fore
SplineSet
388 255.810546875 m 1xf4
 233.283203125 252.475585938 147.400390625 230.244140625 147.400390625 152.610351562 c 0
 147.400390625 96.8525390625 180.547851562 71.1640625 235 71.1640625 c 0
 313.7421875 71.1640625 367 120.544921875 367 202 c 1xf8
 395 171.307617188 l 1
 395 62.4208984375 334.037109375 -10.0087890625 215 -10.0087890625 c 0
 111.055664062 -10.0087890625 41 41.7060546875 41 141.991210938 c 0
 41 263.384765625 150.973632812 321.44921875 372 324.983398438 c 1
 388 255.810546875 l 1xf4
367 315.010742188 m 2
 367 376.751953125 354.931640625 445.192382812 246.728515625 445.192382812 c 0
 149.590820312 445.192382812 103.282226562 397.676757812 103.282226562 397.676757812 c 1
 83 487.216796875 l 1
 83 487.216796875 142.33203125 530.9921875 259.728515625 530.9921875 c 0
 418.075195312 530.9921875 466 443.58984375 466 319.010742188 c 2
 466 117 l 2
 466 83.837890625 483.379882812 76 503 76 c 0
 528.8046875 76 541 85 541 85 c 5
 546 8 l 5
 546 8 527.057617188 -7.998046875 477 -7.998046875 c 0
 403.69921875 -7.998046875 367 29.419921875 367 105 c 2
 367 315.010742188 l 2
EndSplineSet
Validated: 5
EndChar

StartChar: t
Encoding: 116 116 47
Width: 365
VWidth: 0
Flags: W
HStem: -9.99805 90.998<210.791 325.705> 438 83<10 326>
VStem: 93 102<97.952 678.011>
AnchorPoint: "Anchor-2" 194 0 basechar 0
AnchorPoint: "Anchor-0" 142 688.019 basechar 0
LayerCount: 2
Fore
SplineSet
10 438 m 5
 10 521 l 5
 326 521 l 5
 326 438 l 5
 10 438 l 5
244 -9.998046875 m 4
 135.766601562 -9.998046875 93 46.6669921875 93 160 c 6
 93 678.010742188 l 5
 195 698.010742188 l 5
 195 171 l 6
 195 98.841796875 222.224609375 81 266 81 c 4
 296.443359375 81 325 93 325 93 c 5
 329 6 l 5
 329 6 305.551757812 -9.998046875 244 -9.998046875 c 4
EndSplineSet
Validated: 5
EndChar

StartChar: f
Encoding: 102 102 48
Width: 354
VWidth: 0
Flags: W
HStem: 0.00195312 21G<98 199> 437 84<20 342> 676.013 84.998<220.593 356.92>
VStem: 98 101<0.00195312 653.061>
AnchorPoint: "Anchor-0" 231 751.019 basechar 0
AnchorPoint: "Anchor-2" 192 0 basechar 0
LayerCount: 2
Fore
SplineSet
263 761.010742188 m 0
 335.4140625 761.010742188 363 740.012695312 363 740.012695312 c 1
 355 655.012695312 l 1
 355 655.012695312 327.866210938 676.012695312 283 676.012695312 c 0
 232.069335938 676.012695312 199 657.377929688 199 582.012695312 c 2
 199 0.001953125 l 1
 98 0.001953125 l 1
 98 591.012695312 l 2
 98 704.345703125 144.731445312 761.010742188 263 761.010742188 c 0
20 437 m 1
 20 521 l 1
 342 521 l 1
 342 437 l 1
 20 437 l 1
EndSplineSet
Validated: 5
EndChar

StartChar: v
Encoding: 118 118 49
Width: 509
VWidth: 0
Flags: W
HStem: 0 21G<185.783 320.332> 501.011 20G<5 117.682 390.216 504>
AnchorPoint: "Anchor-2" 255 0 basechar 0
AnchorPoint: "Anchor-0" 251 521.011 basechar 0
LayerCount: 2
Fore
SplineSet
313 0 m 5
 193 0 l 5
 5 521.010742188 l 5
 111 521.010742188 l 5
 252.908203125 96.2421875 l 5
 397 521.010742188 l 5
 504 521.010742188 l 5
 313 0 l 5
EndSplineSet
Validated: 1
EndChar

StartChar: w
Encoding: 119 119 50
Width: 751
VWidth: 0
Flags: W
HStem: 0 21G<139.626 271.72 468.517 600.796> 501.011 20G<5 116.563 635.099 746>
AnchorPoint: "Anchor-2" 381 0 basechar 0
AnchorPoint: "Anchor-0" 377 521.011 basechar 0
LayerCount: 2
Fore
SplineSet
266 0 m 5
 145 0 l 5
 5 521.010742188 l 5
 112 521.010742188 l 5
 208.908203125 96.2421875 l 5
 320 489.010742188 l 5
 425 489.010742188 l 5
 535.908203125 96.2421875 l 5
 640 521.010742188 l 5
 746 521.010742188 l 5
 595 0 l 5
 474 0 l 5
 372.201171875 371.34375 l 5
 266 0 l 5
EndSplineSet
Validated: 1
EndChar

StartChar: k
Encoding: 107 107 51
Width: 534
VWidth: 0
Flags: W
HStem: 0 21G<65 164 387.387 529> 221 95<143 257> 501.008 20G<373.66 510> 731.002 20G<65 164>
VStem: 65 99<0 221 316 751.002> 143 21<221 316> 198 59<248 286>
AnchorPoint: "Anchor-2" 283 0 basechar 0
AnchorPoint: "Anchor-0" 114 751.019 basechar 0
LayerCount: 2
Fore
SplineSet
143 316 m 1xf6
 257 316 l 1
 257 221 l 1
 143 221 l 1
 143 316 l 1xf6
404 0 m 257
 198 248 l 1
 198 286 l 1
 390 521.0078125 l 257
 510 521.0078125 l 257
 304 276 l 1
 529 0 l 257
 404 0 l 257
65 0 m 257xfa
 65 751.001953125 l 257
 164 751.001953125 l 261
 164 0 l 257
 65 0 l 257xfa
EndSplineSet
Validated: 5
EndChar

StartChar: x
Encoding: 120 120 52
Width: 513
VWidth: 0
Flags: W
HStem: 0 21G<5 138.419 371.419 508> 501.008 20G<16 147.236 363.511 495>
VStem: 228 52<248 284>
AnchorPoint: "Anchor-0" 254 521.011 basechar 0
AnchorPoint: "Anchor-2" 255 0 basechar 0
LayerCount: 2
Fore
SplineSet
126 0 m 257
 5 0 l 257
 189 274 l 5
 16 521.0078125 l 257
 135 521.0078125 l 257
 280 284 l 5
 280 248 l 5
 126 0 l 257
384 0 m 257
 228 248 l 5
 228 284 l 5
 376 521.0078125 l 257
 495 521.0078125 l 257
 318 274 l 5
 508 0 l 257
 384 0 l 257
EndSplineSet
Validated: 5
EndChar

StartChar: y
Encoding: 121 121 53
Width: 511
VWidth: 0
Flags: W
HStem: 501.011 20G<5 124.567 385.639 506>
AnchorPoint: "Anchor-2" 165 -188.994 basechar 0
AnchorPoint: "Anchor-0" 251 521.011 basechar 0
LayerCount: 2
Fore
SplineSet
203.71484375 47.6708984375 m 5
 5 521.010742188 l 5
 117 521.010742188 l 5
 256.908203125 151.2421875 l 5
 393 521.010742188 l 5
 506 521.010742188 l 5
 212 -189.994140625 l 5
 92 -189.994140625 l 5
 203.71484375 47.6708984375 l 5
EndSplineSet
Validated: 1
EndChar

StartChar: z
Encoding: 122 122 54
Width: 504
VWidth: 0
Flags: W
HStem: 0 90<184.542 454> 430.011 91<60 319.458>
AnchorPoint: "Anchor-2" 256 0 basechar 0
AnchorPoint: "Anchor-0" 256 521.019 basechar 0
LayerCount: 2
Fore
SplineSet
50 73 m 5
 319.458007812 430.010742188 l 5
 60 430.010742188 l 5
 60 521.010742188 l 5
 454 521.010742188 l 5
 454 453.010742188 l 5
 184.541992188 90 l 5
 454 90 l 5
 454 0 l 5
 50 0 l 5
 50 73 l 5
EndSplineSet
Validated: 1
EndChar

StartChar: period
Encoding: 46 46 55
Width: 270
Flags: W
HStem: -10.0078 155<80.6191 189.381>
VStem: 60 150<10.1052 125.001>
LayerCount: 2
Fore
SplineSet
60 67.6923828125 m 4
 60 114.114214553 89.984375 144.9921875 135 144.9921875 c 4
 180.015625 144.9921875 210 114.114214553 210 67.6923828125 c 4
 210 21.0807735595 180.016601562 -10.0078125 135 -10.0078125 c 4
 89.9833984375 -10.0078125 60 21.0807735595 60 67.6923828125 c 4
EndSplineSet
EndChar

StartChar: comma
Encoding: 44 44 56
Width: 269
Flags: W
HStem: -152 296.992
VStem: 48 161<13.2912 119.491>
LayerCount: 2
Fore
SplineSet
48 68.6923828125 m 4
 48 114.513671875 79.5830078125 144.9921875 127 144.9921875 c 4
 176.217773438 144.9921875 209 110.91796875 209 55 c 4
 209 -59.2919921875 90 -152 90 -152 c 5
 40 -110 l 5
 40 -110 101.78515625 -67.501953125 126.361328125 -11.1591796875 c 5
 74.40234375 -6.671875 48 24.943359375 48 68.6923828125 c 4
EndSplineSet
EndChar

StartChar: dotaccent
Encoding: 729 729 59
Width: 210
Flags: W
HStem: 606.002 133<54.8011 155.199>
VStem: 40 130<621.197 723.912>
LayerCount: 2
Fore
SplineSet
40 672.702148438 m 4
 40 712.518010717 65.9864583333 739.001953125 105 739.001953125 c 4
 144.013541667 739.001953125 170 712.518010717 170 672.702148438 c 4
 170 632.689334718 144.014388021 606.001953125 105 606.001953125 c 4
 65.9856119792 606.001953125 40 632.689334718 40 672.702148438 c 4
EndSplineSet
Validated: 1
EndChar

StartChar: exclam
Encoding: 33 33 60
Width: 270
VWidth: 0
Flags: W
HStem: -10.0078 155<80.6191 189.381> 711.008 20G<81 189>
VStem: 60 150<10.1052 125.001> 81 108<290.001 731.008> 89 92<227 668.007>
LayerCount: 2
Fore
SplineSet
89 227 m 257xc8
 81 731.0078125 l 257
 189 731.0078125 l 257xd0
 181 227 l 257
 89 227 l 257xc8
EndSplineSet
Refer: 55 46 S 1 0 0 1 0 0 2
EndChar

StartChar: question
Encoding: 63 63 61
Width: 532
VWidth: 0
Flags: W
HStem: -10.0078 155<141.619 250.381> 316.034 80.2188<183.802 323.228> 645.003 93.9893<104.738 319.213>
VStem: 121 150<10.1052 125.001> 149 93<227 316.257> 378.423 103.577<445.071 589.504>
LayerCount: 2
Fore
SplineSet
240.793945312 316.256835938 m 1xec
 242 227 l 1
 149 227 l 1
 150 401.0078125 l 1
 150 401.0078125 179.9375 396.252929688 217.583007812 396.252929688 c 0
 311.373046875 396.252929688 378.422851562 425.5546875 378.422851562 515 c 0
 378.422851562 600.040039062 324.295898438 645.002929688 220.517578125 645.002929688 c 0
 110.602539062 645.002929688 54.4306640625 594.505859375 54.4306640625 594.505859375 c 1
 30 693.286132812 l 1
 30 693.286132812 92.1455078125 738.9921875 225.517578125 738.9921875 c 0
 389.219726562 738.9921875 482 657.577148438 482 514 c 0
 482 401.971679688 418.549804688 316.034179688 269.760742188 316.034179688 c 0
 251.591796875 316.034179688 240.793945312 316.256835938 240.793945312 316.256835938 c 1xec
EndSplineSet
Refer: 55 46 S 1 0 0 1 61 0 2
EndChar

StartChar: quotesingle
Encoding: 39 39 62
Width: 237
VWidth: 0
Flags: W
HStem: 450 281.008<79 158>
VStem: 71 95<485.126 731.008> 79 79<450 695.882>
LayerCount: 2
Fore
SplineSet
79 450 m 261xa0
 71 731.0078125 l 261
 166 731.0078125 l 261xc0
 158 450 l 261
 79 450 l 261xa0
EndSplineSet
Validated: 1
EndChar

StartChar: hyphen
Encoding: 45 45 70
Width: 380
VWidth: 0
Flags: W
HStem: 227 89<40 340>
VStem: 40 300<227 316>
LayerCount: 2
Fore
SplineSet
40 227 m 5
 40 316 l 5
 340 316 l 5
 340 227 l 5
 40 227 l 5
EndSplineSet
Validated: 1
EndChar

StartChar: zero.tf
Encoding: 57344 57344 71
Width: 600
Flags: W
HStem: -10.0078 96.7998<225.144 375.078> 638.192 100.8<225.144 375.078>
VStem: 33 107.4<201.959 521.552> 460.6 106.4<201.959 521.552>
LayerCount: 2
Fore
SplineSet
140.400390625 363.373046875 m 0
 140.400390625 193.238084491 190.353178448 86.7919921875 300 86.7919921875 c 4
 410.270633835 86.7919921875 460.599609375 193.238084491 460.599609375 363.373046875 c 0
 460.599609375 533.519569766 410.270725396 638.192382812 300 638.192382812 c 0
 190.353087405 638.192382812 140.400390625 533.519569766 140.400390625 363.373046875 c 0
33 364.692382812 m 0
 33 589.47265625 128.376594835 738.9921875 300 738.9921875 c 0
 471.623405165 738.9921875 567 589.47265625 567 364.692382812 c 0
 567 139.911132812 471.623473633 -10.0078125 300 -10.0078125 c 4
 128.376526367 -10.0078125 33 139.911132812 33 364.692382812 c 0
EndSplineSet
Validated: 1
EndChar

StartChar: one.tf
Encoding: 57345 57345 72
Width: 600
VWidth: 0
Flags: W
HStem: 0 94<55 249 355 535> 20 74<249 355> 714.008 20G<226.829 355>
VStem: 249 106<20 619.008>
LayerCount: 2
Fore
SplineSet
355 734.0078125 m 5x70
 355 20 l 1
 249 20 l 1
 249 619.0078125 l 5
 93 519.0078125 l 1
 56 611.0078125 l 1
 260 734.0078125 l 5
 355 734.0078125 l 5x70
55 94 m 1xb0
 535 94 l 1
 535 0 l 1
 55 0 l 1
 55 94 l 1xb0
EndSplineSet
Validated: 5
EndChar

StartChar: two.tf
Encoding: 57346 57346 73
Width: 600
Flags: W
HStem: 0 101<156.287 544> 641.003 97.9893<165.98 370.51>
VStem: 424.127 107.989<447.217 589.131>
LayerCount: 2
Fore
SplineSet
44 58 m 2
 44 193.643779751 153.648240165 290.622008151 279.760742188 360.0390625 c 0
 364.666075721 406.774144731 424.126953125 436.389249148 424.126953125 517 c 0
 424.126953125 596.925749219 371.791363874 641.002929688 279.221679688 641.002929688 c 0
 161 641.002929688 87.134765625 575.509765625 87.134765625 575.505859375 c 1
 59.7041015625 677.286132812 l 1
 59.7041015625 677.286132812 135.20703125 738.9921875 282.221679688 738.9921875 c 0
 439.205941717 738.9921875 532.116210938 659.442780313 532.116210938 520.723632812 c 0
 532.116210938 395.297448673 458.781997212 340.764011534 329.766601562 276.452148438 c 0
 227.490856068 225.469521835 168.439588883 177.749759351 156.287109375 101 c 1
 544 101 l 5
 544 0 l 5
 44 0 l 1
 44 58 l 2
EndSplineSet
Validated: 1
EndChar

StartChar: three.tf
Encoding: 57347 57347 74
Width: 600
Flags: W
HStem: -9.99805 95.9893<147.008 370.893> 334.452 84.5869<173.645 367.108> 646.003 92.9893<161.142 366.946>
VStem: 415.011 107.989<463.187 600.097> 434.011 107.989<145.652 281.854>
LayerCount: 2
Back
SplineSet
239.754882812 331.452148438 m 4
 147.905420974 331.452148438 162.573519652 419.0390625 259.760742188 419.0390625 c 4
 351.857825345 419.0390625 414.126953125 444.085638389 414.126953125 527 c 4
 414.126953125 602.929589751 364.31985611 641.002929688 276.221679688 641.002929688 c 4
 156.052221156 641.002929688 91.134765625 573.509884905 91.134765625 573.505859375 c 5
 63.7041015625 675.286132812 l 5
 63.7041015625 675.286132812 130.131702003 738.9921875 279.221679688 738.9921875 c 4
 431.808110852 738.9921875 522.116210938 665.557946754 522.116210938 530.723632812 c 4
 522.116210938 401.308997943 406.258789062 376.3671875 406.258789062 376.3671875 c 5
 406.258789062 376.3671875 538.116210938 345.515992333 538.116210938 194 c 4
 538.116210938 69.6557789526 442.602915846 -9.998046875 281.221679688 -9.998046875 c 4
 130.242904469 -9.998046875 52.7041015625 51.7080078125 52.7041015625 51.7080078125 c 5
 80.134765625 153.48828125 l 5
 80.134765625 153.484375 156.307244137 87.9912109375 278.221679688 87.9912109375 c 4
 375.263491397 87.9912109375 430.126953125 130.646549469 430.126953125 207.994140625 c 4
 430.126953125 286.692149435 367.031677727 331.452148438 239.754882812 331.452148438 c 4
EndSplineSet
Fore
SplineSet
173.64453125 419.0390625 m 5xe8
 255.64453125 419.0390625 l 6
 351.917914248 419.0390625 415.010742188 444.78125 415.010742188 530 c 4
 415.010742188 607.927734375 365.397460938 646.002929688 274.10546875 646.002929688 c 4
 153.5546875 646.002929688 88.4306640625 580.509765625 88.4306640625 580.505859375 c 5
 63 678.286132812 l 5
 63 678.286132812 130.841696534 738.9921875 283.10546875 738.9921875 c 4
 433.807298845 738.9921875 523 666.592882045 523 538 c 4xf0
 523 403.474885486 409.142578125 378.3671875 409.142578125 378.3671875 c 5
 409.142578125 378.3671875 542 356.902449412 542 205 c 4
 542 68.9275146111 443.140508118 -9.998046875 276.10546875 -9.998046875 c 4
 121.434842386 -9.998046875 42 47.7080078125 42 47.7080078125 c 5
 69.4306640625 145.48828125 l 5
 69.4306640625 145.48473284 147.751913888 85.9912109375 273.10546875 85.9912109375 c 4
 376.53559138 85.9912109375 434.010742188 133.764648438 434.010742188 212 c 4
 434.010742188 292.86328125 377.532564164 334.452148438 261.638671875 334.452148438 c 6
 173.638671875 334.452148438 l 5
 173.64453125 419.0390625 l 5xe8
EndSplineSet
Validated: 1
EndChar

StartChar: four.tf
Encoding: 57348 57348 75
Width: 600
Flags: W
HStem: 0 21G<357 457> 193 92<130 574> 714 20G<349.891 457>
VStem: 357 100<0 586>
LayerCount: 2
Fore
SplineSet
365 734 m 29
 457 734 l 29
 457 0 l 25
 357 0 l 25
 357 586 l 29
 130 285 l 25
 574 285 l 25
 574 193 l 25
 33 193 l 25
 19 276 l 25
 365 734 l 29
EndSplineSet
Validated: 5
EndChar

StartChar: five.tf
Encoding: 57349 57349 76
Width: 600
Flags: W
HStem: -9.99805 95.9893<137.825 363.729> 402.452 81.915<221.898 384.625> 630.008 101<197 514>
VStem: 444.011 105.989<162.004 342.807>
LayerCount: 2
Fore
SplineSet
327 484.3671875 m 4
 470.28233941 484.3671875 550 394.362984942 550 247 c 4
 550 88.296395217 446.307112755 -9.998046875 271.10546875 -9.998046875 c 0
 115.113466793 -9.998046875 35 47.7080078125 35 47.7080078125 c 1
 62.4306640625 145.48828125 l 1
 62.4306640625 145.48473284 140.367373199 85.9912109375 265.10546875 85.9912109375 c 0
 389.566266281 85.9912109375 444.010742188 153.246411324 444.010742188 253 c 4
 444.010742188 341.250014075 403.771854092 402.452148438 300.638671875 402.452148438 c 4
 186.519220526 402.452148438 153.638671875 315.452148438 153.638671875 315.452148438 c 1
 73.64453125 336.0390625 l 1
 114 731.0078125 l 1
 514 731.0078125 l 1
 514 630.0078125 l 1
 197 630.0078125 l 1
 175 428 l 1
 175 428 214.8854442 484.3671875 327 484.3671875 c 4
EndSplineSet
Validated: 1
EndChar

StartChar: six.tf
Encoding: 57350 57350 77
Width: 600
Flags: W
HStem: -10.0078 88.7998<220.873 389.767> 390.192 85.7998<219.991 390.542> 641.003 97.9893<253.388 466.07>
VStem: 40 101.978<388.101 514.1> 456.6 105.4<147.231 325.754>
LayerCount: 2
Fore
SplineSet
154.400390625 237.373046875 m 4
 154.400390625 143.873046875 205.987304688 78.7919921875 307 78.7919921875 c 4
 405.864257812 78.7919921875 456.599609375 143.455078125 456.599609375 236.373046875 c 4
 456.599609375 327.638671875 407.090820312 390.192382812 305 390.192382812 c 4
 203.459960938 390.192382812 154.400390625 328.053710938 154.400390625 237.373046875 c 4
141.977539062 388.100585938 m 1
 141.977539062 388.100585938 183.682617188 475.9921875 329 475.9921875 c 0
 482.387695312 475.9921875 562 373.516601562 562 236.692382812 c 0
 562 92.7382812502 472.339074219 -10.0078125 311 -10.0078125 c 0
 136.80510245 -10.0078125 40 115.32421875 40 346 c 0
 40 621.2734375 152.76171875 738.9921875 346.89453125 738.9921875 c 0
 482.555664062 738.9921875 535 692.286132812 535 692.286132812 c 1
 512.569335938 591.505859375 l 1
 512.569335938 591.508789062 466.109375 641.002929688 344 641.002929688 c 0
 213.228515625 641.002929688 141.977539062 544.94179354 141.977539062 388.100585938 c 1
EndSplineSet
Validated: 1
EndChar

StartChar: seven.tf
Encoding: 57351 57351 78
Width: 600
VWidth: 0
Flags: W
HStem: 0 21G<176 290.463> 634.008 97<50 425>
VStem: 176 109<0 158.045>
LayerCount: 2
Fore
SplineSet
549 731.0078125 m 1
 549 647 l 5
 549 647 295.926797853 395.613007896 285 0 c 1
 176 0 l 1
 181.450927324 330.868788223 425 634.0078125 425 634.0078125 c 1
 50 634.0078125 l 1
 50 731.0078125 l 1
 549 731.0078125 l 1
EndSplineSet
Validated: 1
EndChar

StartChar: eight.tf
Encoding: 57352 57352 79
Width: 600
Flags: W
HStem: -10.0078 90.7998<205.27 398.198> 345.134 81.7168<210.544 390.089> 366.051 46.8828<149.588 450.412> 650.192 88.7998<216.799 383.508>
VStem: 37 105.4<137.668 289.388> 66 101.4<470.716 605.408> 433.6 100.4<470.716 605.408> 458.6 104.4<137.668 289.388>
LayerCount: 2
Fore
SplineSet
167.400390625 536.611328125 m 4xd6
 167.400390625 472.668591765 210.543510771 426.850585938 300 426.850585938 c 4
 390.088719811 426.850585938 433.599609375 472.668591765 433.599609375 536.611328125 c 4
 433.599609375 600.574989734 391.731630453 650.192382812 300 650.192382812 c 4
 208.902341136 650.192382812 167.400390625 600.574989734 167.400390625 536.611328125 c 4xd6
66 547 m 4
 66 657.406892917 153.147351727 738.9921875 300 738.9921875 c 4
 446.852648273 738.9921875 534 657.406892917 534 547 c 4
 534 436.053445924 450.411523628 366.05078125 300 366.05078125 c 4xb6
 149.588476372 366.05078125 66 436.053445924 66 547 c 4
142.400390625 214.373046875 m 0xd9
 142.400390625 136.698891075 191.727202131 80.7919921875 300 80.7919921875 c 0
 408.897397196 80.7919921875 458.599609375 136.698891075 458.599609375 214.373046875 c 0
 458.599609375 290.904833503 406.946688228 345.133789062 300 345.133789062 c 0
 193.677607159 345.133789062 142.400390625 290.904833503 142.400390625 214.373046875 c 0xd9
37 203.692382812 m 0
 37 329.349131814 130.947731991 412.93359375 300 412.93359375 c 0xb9
 469.052268009 412.93359375 563 329.349131814 563 203.692382812 c 0
 563 78.1802308118 465.052335452 -10.0078125 300 -10.0078125 c 0
 134.947664548 -10.0078125 37 78.1802308118 37 203.692382812 c 0
EndSplineSet
Validated: 5
EndChar

StartChar: slash
Encoding: 47 47 81
Width: 519
VWidth: 0
Flags: W
LayerCount: 2
Fore
SplineSet
10 -200 m 29
 407 761 l 29
 509 761 l 29
 112 -200 l 29
 10 -200 l 29
EndSplineSet
Validated: 1
EndChar

StartChar: backslash
Encoding: 92 92 82
Width: 519
VWidth: 0
Flags: W
LayerCount: 2
Fore
SplineSet
509 -200 m 29
 407 -200 l 29
 10 761 l 29
 112 761 l 29
 509 -200 l 29
EndSplineSet
Validated: 1
EndChar

StartChar: zero
Encoding: 48 48 83
Width: 664
Flags: W
HStem: -10.0078 96.7998<249.883 414.337> 638.192 100.8<249.883 414.337>
VStem: 45 108.4<211.776 516.02> 511.6 107.4<211.776 516.02>
LayerCount: 2
Fore
SplineSet
153.400390625 363.373046875 m 4
 153.400390625 193.23828125 209.300330775 86.7919921875 332 86.7919921875 c 4
 455.316240966 86.7919921875 511.599609375 193.23828125 511.599609375 363.373046875 c 4
 511.599609375 533.51953125 455.316240966 638.192382812 332 638.192382812 c 4
 209.300330775 638.192382812 153.400390625 533.51953125 153.400390625 363.373046875 c 4
45 364.692382812 m 4
 45 589.47265625 147.521294183 738.9921875 332 738.9921875 c 4
 516.478705817 738.9921875 619 589.47265625 619 364.692382812 c 4
 619 139.911132812 516.478705817 -10.0078125 332 -10.0078125 c 4
 147.521294183 -10.0078125 45 139.911132812 45 364.692382812 c 4
EndSplineSet
Validated: 1
EndChar

StartChar: one
Encoding: 49 49 84
Width: 384
VWidth: 0
Flags: W
HStem: 0 21G<193 299> 714.008 20G<170.829 299>
VStem: 193 106<0 619.008>
LayerCount: 2
Fore
SplineSet
299 734.0078125 m 5
 299 0 l 1
 193 0 l 1
 193 619.0078125 l 5
 37 519.0078125 l 1
 0 611.0078125 l 1
 204 734.0078125 l 5
 299 734.0078125 l 5
EndSplineSet
Validated: 1
EndChar

StartChar: four
Encoding: 52 52 87
Width: 620
Flags: W
HStem: 0 21G<363 463> 193 92<126 580> 714 20G<355.454 463>
VStem: 363 100<0 586>
LayerCount: 2
Fore
SplineSet
371 734 m 25
 463 734 l 25
 463 0 l 25
 363 0 l 25
 363 586 l 25
 126 285 l 25
 580 285 l 25
 580 193 l 25
 29 193 l 25
 15 276 l 25
 371 734 l 25
EndSplineSet
Validated: 5
EndChar

StartChar: seven
Encoding: 55 55 90
Width: 584
VWidth: 0
Flags: W
HStem: 0 21G<172 286.546> 634.008 97<40 425>
VStem: 172 109<0 158.045>
LayerCount: 2
Fore
SplineSet
549 731.0078125 m 5
 549 647 l 5
 549 647 292.092773438 395.61328125 281 0 c 5
 172 0 l 5
 177.538085938 330.869140625 425 634.0078125 425 634.0078125 c 5
 40 634.0078125 l 5
 40 731.0078125 l 5
 549 731.0078125 l 5
EndSplineSet
Validated: 1
EndChar

StartChar: ampersand
Encoding: 38 38 93
Width: 764
Flags: W
HStem: -9.99805 93<201.663 382.719 559.442 724.342> 650.992 88<311.056 473.062>
VStem: 45 105.52<130.927 269.472> 172.505 104.424<426.337 616.235> 570.435 98.6895<344.383 427.206>
LayerCount: 2
Fore
SplineSet
240.587890625 425 m 5
 268.361328125 352 l 5
 268.361328125 352 150.51953125 301.714285714 150.51953125 198 c 0
 150.51953125 126.36072555 200.782609231 83.001953125 286.823242188 83.001953125 c 0
 446.376953125 83.001953125 544.826171875 244 570.434570312 443 c 1
 669.124023438 426 l 1
 632.944335938 180 482.817382812 -9.998046875 270.079101562 -9.998046875 c 0
 129.419921875 -9.998046875 45 76 45 186 c 0
 45 369.233333333 240.587890625 425 240.587890625 425 c 5
369.393554688 738.9921875 m 0
 458.082841572 738.9921875 487.537109375 712.9921875 487.537109375 712.9921875 c 1
 474.732421875 620.9921875 l 1
 474.732421875 620.9921875 446.871601338 650.9921875 384.237304688 650.9921875 c 0
 322.189453125 650.9921875 276.928710938 620.279224537 276.928710938 543.9921875 c 0
 276.928710938 451.9921875 321.00390625 356.588867188 378.337890625 278 c 0
 457.129882812 170 521.208984375 89.001953125 641.989257812 89.001953125 c 0
 688.219726562 89.001953125 723.39453125 102 723.39453125 102 c 1
 729 3 l 1
 729 3 693.244140625 -9.998046875 634.954101562 -9.998046875 c 0
 486.77734375 -9.998046875 403.274414062 85.24609375 314.3203125 202 c 0
 233.557617188 308 172.504882812 429.9921875 172.504882812 546.9921875 c 0
 172.504882812 674.9921875 248.318929119 738.9921875 369.393554688 738.9921875 c 0
EndSplineSet
EndChar

StartChar: uni203D
Encoding: 8253 8253 94
Width: 532
VWidth: 0
Flags: W
HStem: -10.0078 155<141.619 250.381> 308.034 85.2188<185.512 321.557> 645.003 93.9893<107.823 319.213>
VStem: 121 150<10.1052 125.001> 141 108<298.751 801.008> 149 92<227 729.257> 378.423 103.577<444.202 589.504>
LayerCount: 2
Fore
SplineSet
149 227 m 257xe6
 141 801.0078125 l 257
 249 801.0078125 l 257xea
 241 227 l 257
 149 227 l 257xe6
191 311 m 1
 180 397.0078125 l 1
 180 397.0078125 196 393.252929688 217.583007812 393.252929688 c 0
 311.373046875 393.252929688 378.422851562 425.5546875 378.422851562 515 c 0
 378.422851562 600.040039062 324.295898438 645.002929688 220.517578125 645.002929688 c 0
 110.602539062 645.002929688 54.4306640625 594.505859375 54.4306640625 594.505859375 c 1
 30 693.286132812 l 1
 30 693.286132812 92.1455078125 738.9921875 225.517578125 738.9921875 c 0
 389.219726562 738.9921875 482 657.577148438 482 514 c 0
 482 401.971679688 404.549804688 308.034179688 235.760742188 308.034179688 c 0
 208 308.034179688 191 311 191 311 c 1
EndSplineSet
Refer: 55 46 S 1 0 0 1 61 0 2
EndChar

StartChar: fraction
Encoding: 8260 8260 95
Width: 230
VWidth: 0
Flags: W
HStem: 0 21G<-174.5 -76.9571> 711.008 20G<306.957 404.5>
LayerCount: 2
Fore
SplineSet
-174.5 0 m 1
 320.5 731.0078125 l 29
 404.5 731.0078125 l 25
 -90.5 0 l 1
 -174.5 0 l 1
EndSplineSet
Validated: 1
EndChar

StartChar: percent
Encoding: 37 37 96
Width: 885
VWidth: 0
Flags: W
HStem: -10 74.0312<609.955 729.996> 0 21G<158.2 255.743> 291.569 77.2314<609.046 730.899> 360.191 74.0312<155.356 275.396> 661.761 77.2314<154.447 276.3> 711.008 20G<639.657 737.2>
VStem: 35 83.5303<472.526 623.33> 311.87 83.5303<471.508 624.333> 489.6 83.5303<102.334 253.138> 766.47 83.5303<101.316 254.142>
LayerCount: 2
Fore
SplineSet
573.129882812 178.504882812 m 0xa3c0
 573.129882812 108.087890625 611.979492188 64.03125 670.045898438 64.03125 c 0
 728.033203125 64.03125 766.469726562 108.086914062 766.469726562 178.504882812 c 0
 766.469726562 248.505859375 728.033203125 291.569335938 670.045898438 291.569335938 c 0
 611.979492188 291.569335938 573.129882812 248.505859375 573.129882812 178.504882812 c 0xa3c0
489.599609375 179.560546875 m 0
 489.599609375 293.20703125 564.266601562 368.80078125 670.045898438 368.80078125 c 0
 775.782226562 368.80078125 850 293.20703125 850 179.560546875 c 0
 850 65.8447265625 775.783203125 -10 670.045898438 -10 c 0
 564.265625 -10 489.599609375 65.8447265625 489.599609375 179.560546875 c 0
118.530273438 548.696289062 m 4
 118.530273438 478.279296875 157.379882812 434.22265625 215.446289062 434.22265625 c 4
 273.43359375 434.22265625 311.870117188 478.278320312 311.870117188 548.696289062 c 4
 311.870117188 618.697265625 273.43359375 661.760742188 215.446289062 661.760742188 c 4x1bc0
 157.379882812 661.760742188 118.530273438 618.697265625 118.530273438 548.696289062 c 4
35 549.751953125 m 4
 35 663.3984375 109.666992188 738.9921875 215.446289062 738.9921875 c 4
 321.182617188 738.9921875 395.400390625 663.3984375 395.400390625 549.751953125 c 4
 395.400390625 436.036132812 321.18359375 360.19140625 215.446289062 360.19140625 c 4
 109.666015625 360.19140625 35 436.036132812 35 549.751953125 c 4
EndSplineSet
Refer: 95 8260 N 1 0 0 1 332.7 0 2
Validated: 1
EndChar

StartChar: perthousand
Encoding: 8240 8240 97
Width: 1185
VWidth: 0
Flags: W
HStem: -10 74.0312<610.386 728.723 911.223 1029.57> 0 21G<158.2 255.743> 291.569 77.2314<609.477 731.661 908.276 1030.47> 360.191 74.0312<155.356 275.396> 661.761 77.2314<154.447 276.3> 711.008 20G<639.657 737.2>
VStem: 35 83.5303<472.526 623.33> 311.87 83.5303<471.508 624.333> 489.6 83.5303<102.334 253.138> 766.47 106.66<108.088 248.506> 799.6 40.4004<65.8447 293.207> 1066.47 83.5303<101.316 254.142>
LayerCount: 2
Fore
SplineSet
873.129882812 178.504882812 m 4xa3d0
 873.129882812 108.087890625 911.979492188 64.03125 970.045898438 64.03125 c 4
 1028.03320312 64.03125 1066.46972656 108.086914062 1066.46972656 178.504882812 c 4
 1066.46972656 248.505859375 1028.03320312 291.569335938 970.045898438 291.569335938 c 4
 911.979492188 291.569335938 873.129882812 248.505859375 873.129882812 178.504882812 c 4xa3d0
799.599609375 179.560546875 m 4xa3b0
 799.599609375 293.20703125 872.197265625 368.80078125 975.045898438 368.80078125 c 4
 1077.84472656 368.80078125 1150 293.20703125 1150 179.560546875 c 4
 1150 65.8447265625 1077.84570312 -10 975.045898438 -10 c 4
 872.196289062 -10 799.599609375 65.8447265625 799.599609375 179.560546875 c 4xa3b0
573.129882812 178.504882812 m 0
 573.129882812 108.087890625 611.979492188 64.03125 670.045898438 64.03125 c 0
 728.033203125 64.03125 766.469726562 108.086914062 766.469726562 178.504882812 c 0xa3d0
 766.469726562 248.505859375 728.033203125 291.569335938 670.045898438 291.569335938 c 0
 611.979492188 291.569335938 573.129882812 248.505859375 573.129882812 178.504882812 c 0
489.599609375 179.560546875 m 0
 489.599609375 293.20703125 562.197265625 368.80078125 665.045898438 368.80078125 c 0
 767.844726562 368.80078125 840 293.20703125 840 179.560546875 c 4xa3b0
 840 65.8447265625 767.845703125 -10 665.045898438 -10 c 0
 562.196289062 -10 489.599609375 65.8447265625 489.599609375 179.560546875 c 0
118.530273438 548.696289062 m 0
 118.530273438 478.279296875 157.379882812 434.22265625 215.446289062 434.22265625 c 0
 273.43359375 434.22265625 311.870117188 478.278320312 311.870117188 548.696289062 c 0
 311.870117188 618.697265625 273.43359375 661.760742188 215.446289062 661.760742188 c 0x1b90
 157.379882812 661.760742188 118.530273438 618.697265625 118.530273438 548.696289062 c 0
35 549.751953125 m 0
 35 663.3984375 109.666992188 738.9921875 215.446289062 738.9921875 c 0
 321.182617188 738.9921875 395.400390625 663.3984375 395.400390625 549.751953125 c 0
 395.400390625 436.036132812 321.18359375 360.19140625 215.446289062 360.19140625 c 0
 109.666015625 360.19140625 35 436.036132812 35 549.751953125 c 0
EndSplineSet
Refer: 95 8260 N 1 0 0 1 332.7 0 2
Validated: 5
EndChar

StartChar: uni2031
Encoding: 8241 8241 98
Width: 1473
VWidth: 0
Flags: W
HStem: -10 74.0312<610.386 728.723 905.291 1022.66 1199.22 1317.57> 0 21G<158.2 255.743> 291.569 77.2314<609.477 731.661 902.35 1025.59 1196.28 1318.47> 360.191 74.0312<155.356 275.396> 661.761 77.2314<154.447 276.3> 711.008 20G<639.657 737.2>
VStem: 35 83.5303<472.526 623.33> 311.87 83.5303<471.508 624.333> 489.6 83.5303<102.334 253.138> 766.47 100.66<108.088 248.506> 791.6 48.4004<65.8447 293.207> 1060.47 100.66<108.088 248.506> 1087.6 48.4004<65.8447 293.207> 1354.47 83.5303<101.316 254.142>
LayerCount: 2
Fore
SplineSet
1161.12988281 178.504882812 m 0xa394
 1161.12988281 108.087890625 1199.97949219 64.03125 1258.04589844 64.03125 c 0
 1316.03320312 64.03125 1354.46972656 108.086914062 1354.46972656 178.504882812 c 0
 1354.46972656 248.505859375 1316.03320312 291.569335938 1258.04589844 291.569335938 c 0
 1199.97949219 291.569335938 1161.12988281 248.505859375 1161.12988281 178.504882812 c 0xa394
1087.59960938 179.560546875 m 0xa38c
 1087.59960938 293.20703125 1160.19726562 368.80078125 1263.04589844 368.80078125 c 0
 1365.84472656 368.80078125 1438 293.20703125 1438 179.560546875 c 0
 1438 65.8447265625 1365.84570312 -10 1263.04589844 -10 c 0
 1160.19628906 -10 1087.59960938 65.8447265625 1087.59960938 179.560546875 c 0xa38c
867.129882812 178.504882812 m 0xa3d4
 867.129882812 108.087890625 905.979492188 64.03125 964.045898438 64.03125 c 0
 1022.03320312 64.03125 1060.46972656 108.086914062 1060.46972656 178.504882812 c 0
 1060.46972656 248.505859375 1022.03320312 291.569335938 964.045898438 291.569335938 c 0
 905.979492188 291.569335938 867.129882812 248.505859375 867.129882812 178.504882812 c 0xa3d4
791.599609375 179.560546875 m 0xa3ac
 791.599609375 293.20703125 862.956054688 368.80078125 964.045898438 368.80078125 c 0
 1065.08203125 368.80078125 1136 293.20703125 1136 179.560546875 c 0
 1136 65.8447265625 1065.08300781 -10 964.045898438 -10 c 0
 862.955078125 -10 791.599609375 65.8447265625 791.599609375 179.560546875 c 0xa3ac
573.129882812 178.504882812 m 0
 573.129882812 108.087890625 611.979492188 64.03125 670.045898438 64.03125 c 0
 728.033203125 64.03125 766.469726562 108.086914062 766.469726562 178.504882812 c 0xa3c4
 766.469726562 248.505859375 728.033203125 291.569335938 670.045898438 291.569335938 c 0
 611.979492188 291.569335938 573.129882812 248.505859375 573.129882812 178.504882812 c 0
489.599609375 179.560546875 m 0
 489.599609375 293.20703125 562.197265625 368.80078125 665.045898438 368.80078125 c 0
 767.844726562 368.80078125 840 293.20703125 840 179.560546875 c 0xa3a4
 840 65.8447265625 767.845703125 -10 665.045898438 -10 c 0
 562.196289062 -10 489.599609375 65.8447265625 489.599609375 179.560546875 c 0
118.530273438 548.696289062 m 0
 118.530273438 478.279296875 157.379882812 434.22265625 215.446289062 434.22265625 c 0
 273.43359375 434.22265625 311.870117188 478.278320312 311.870117188 548.696289062 c 0
 311.870117188 618.697265625 273.43359375 661.760742188 215.446289062 661.760742188 c 0x1b84
 157.379882812 661.760742188 118.530273438 618.697265625 118.530273438 548.696289062 c 0
35 549.751953125 m 0
 35 663.3984375 109.666992188 738.9921875 215.446289062 738.9921875 c 0
 321.182617188 738.9921875 395.400390625 663.3984375 395.400390625 549.751953125 c 0
 395.400390625 436.036132812 321.18359375 360.19140625 215.446289062 360.19140625 c 0
 109.666015625 360.19140625 35 436.036132812 35 549.751953125 c 0
EndSplineSet
Refer: 95 8260 N 1 0 0 1 332.7 0 2
Validated: 5
EndChar

StartChar: numbersign
Encoding: 35 35 99
Width: 735
VWidth: 0
Flags: W
HStem: 0 21G<98.5 194.726 354.5 450.726> 202 89<35 650> 456 89<85 700> 711.008 20G<284.274 380.5 540.274 636.5>
LayerCount: 2
Fore
SplineSet
35 202 m 1
 35 291 l 1
 650 291 l 5
 650 202 l 5
 35 202 l 1
85 456 m 1
 85 545 l 1
 700 545 l 5
 700 456 l 5
 85 456 l 1
354.5 0 m 5
 545.5 731.0078125 l 5
 636.5 731.0078125 l 5
 445.5 0 l 5
 354.5 0 l 5
98.5 0 m 1
 289.5 731.0078125 l 1
 380.5 731.0078125 l 1
 189.5 0 l 1
 98.5 0 l 1
EndSplineSet
Validated: 5
EndChar

StartChar: underscore
Encoding: 95 95 100
Width: 770
VWidth: 0
Flags: W
HStem: -98.998 89<35 735>
LayerCount: 2
Fore
SplineSet
35 -98.998046875 m 1
 35 -9.998046875 l 1
 735 -9.998046875 l 5
 735 -98.998046875 l 5
 35 -98.998046875 l 1
EndSplineSet
Validated: 1
EndChar

StartChar: bar
Encoding: 124 124 101
Width: 227
VWidth: 0
Flags: W
VStem: 65 97<-200 761>
LayerCount: 2
Fore
SplineSet
65 -200 m 5
 65 761 l 5
 162 761 l 5
 162 -200 l 5
 65 -200 l 5
EndSplineSet
Validated: 1
EndChar

StartChar: brokenbar
Encoding: 166 166 102
Width: 227
VWidth: 0
Flags: W
VStem: 65 97<-200 221 340 761>
LayerCount: 2
Fore
SplineSet
65 340 m 1
 65 761 l 1
 162 761 l 1
 162 340 l 1
 65 340 l 1
65 -200 m 1
 65 221 l 5
 162 221 l 5
 162 -200 l 1
 65 -200 l 1
EndSplineSet
Validated: 1
EndChar

StartChar: dollar
Encoding: 36 36 106
Width: 565
Flags: W
HStem: 10 13<227 322> 706 12<237 332>
VStem: 44 107<475.599 588.34> 227 95<-96 23> 237 95<706 825> 414 106<148.767 270.878>
LayerCount: 2
Fore
SplineSet
227 -96 m 5xf4
 227 23 l 5
 322 23 l 5
 322 -96 l 5
 227 -96 l 5xf4
237 706 m 5xec
 237 825 l 5
 332 825 l 5
 332 706 l 5
 237 706 l 5xec
496 668 m 1
 470 568 l 1
 470 568 409 624 292 624 c 0
 198 624 151 594 151 533 c 0
 151 471.455445545 197.796875 443.160504332 286 422 c 0
 456.98688989 380.979131134 520 325.729468599 520 210 c 0
 520 82.8205128205 428 10 265 10 c 0
 123.397460938 10 30 66 30 66 c 1
 59 166 l 1
 59 166 139.388671875 105 266 105 c 0
 350.4296875 105 414 135.45 414 210 c 0
 414 274.695652174 377.162977125 301.469963181 253 330 c 0
 102.229492188 364.64388692 44 429.5 44 529 c 0
 44 649.179347826 133.36328125 718 290 718 c 0
 430 718 496 668 496 668 c 1
EndSplineSet
Validated: 5
EndChar

StartChar: sterling
Encoding: 163 163 107
Width: 576
Flags: W
HStem: 0 101<164.312 531> 315 89<56 426> 645.003 93.9893<243.614 440.186>
VStem: 88.7041 108.989<428.94 602.184> 157 101<196.048 312.668>
LayerCount: 2
Fore
SplineSet
56 315 m 5xe0
 56 404 l 5
 426 404 l 5
 426 315 l 5
 56 315 l 5xe0
164.3125 101 m 5
 531 101 l 5
 531 0 l 5
 35 0 l 5
 35 91 l 5
 35 91 157 161 157 277 c 4xe8
 157 366.363897236 88.7041015625 420.187868089 88.7041015625 535 c 4
 88.7041015625 664.714138759 167.609302131 738.9921875 326.598632812 738.9921875 c 4
 462.128169102 738.9921875 509.116210938 691.286132812 509.116210938 691.286132812 c 5
 490.685546875 589.505859375 l 5
 490.685546875 589.509765625 442.058439015 645.002929688 335 645.002929688 c 4
 233.042517235 645.002929688 197.693359375 598.13136772 197.693359375 527 c 4xf0
 197.693359375 436.738482289 258 376.145228216 258 283 c 4xe8
 258 167 164.3125 101 164.3125 101 c 5
EndSplineSet
Validated: 5
EndChar

StartChar: Euro
Encoding: 8364 8364 108
Width: 678
Flags: W
HStem: -10.0078 100.8<341.96 584.681> 245 81<35 467.898> 388 81<35 493.466> 637.192 101.8<341.904 565.874>
VStem: 108 113.4<276.572 446.481>
LayerCount: 2
Fore
SplineSet
35 326 m 1
 482.534179688 326 l 1
 467.8984375 245 l 1
 35 245 l 1
 35 326 l 1
35 469 m 1
 508.1015625 469 l 5
 493.465820312 388 l 5
 35 388 l 1
 35 469 l 1
108 365.9921875 m 0
 108 584.639648438 226.594806156 738.9921875 445 738.9921875 c 0
 578.899329888 738.9921875 639.728515625 691.216796875 639.728515625 691.216796875 c 1
 620.446289062 582.676757812 l 1
 620.446289062 582.676757812 570.282414844 637.192382812 450 637.192382812 c 0
 292.471820386 637.192382812 221.400390625 541.645507812 221.400390625 365.791992188 c 0
 221.400390625 178.306640625 293.643265401 90.7919921875 456 90.7919921875 c 0
 573.292159081 90.7919921875 630.084960938 135.7421875 630.084960938 135.7421875 c 1
 643 30 l 1
 643 30 586.681635912 -10.0078125 449 -10.0078125 c 0
 227.509838299 -10.0078125 108 136.013671875 108 365.9921875 c 0
EndSplineSet
Validated: 5
EndChar

StartChar: yen
Encoding: 165 165 109
Width: 614
VWidth: 0
Flags: W
HStem: 0 21G<253.5 354.5> 165 81<66.5 547.5> 287 102<278.406 330> 308 81<66.5 253.5 354.5 547.5> 711.008 20G<10 144.044 469.543 604>
VStem: 253.5 101<0 348>
LayerCount: 2
Fore
SplineSet
330 287 m 1xec
 278.40625 287 l 1
 10 731.0078125 l 1
 133 731.0078125 l 1
 303.807617188 421.6875 l 1
 481 731.0078125 l 1
 604 731.0078125 l 1
 330 287 l 1xec
253.5 0 m 257
 253.5 348 l 257
 354.5 348 l 257
 354.5 0 l 257
 253.5 0 l 257
66.5 246 m 5
 547.5 246 l 1
 547.5 165 l 1
 66.5 165 l 5
 66.5 246 l 5
66.5 389 m 5xdc
 547.5 389 l 1
 547.5 308 l 1
 66.5 308 l 5
 66.5 389 l 5xdc
EndSplineSet
Validated: 5
EndChar

StartChar: cent
Encoding: 162 162 110
Width: 521
Flags: W
HStem: 74.002 12.998<263.828 358.828> 603.002 12<263.828 358.828>
VStem: 45 100.4<246.926 443.693> 263.828 95<-32 87 603.002 722.002>
LayerCount: 2
Fore
SplineSet
263.828125 -32 m 1
 263.828125 87 l 1
 358.828125 87 l 1
 358.828125 -32 l 1
 263.828125 -32 l 1
263.828125 603.001953125 m 1
 263.828125 722.001953125 l 1
 358.828125 722.001953125 l 1
 358.828125 603.001953125 l 1
 263.828125 603.001953125 l 1
45 346.001953125 m 0
 45 503.685845979 141.628277043 615.001953125 308.828125 615.001953125 c 0
 430.140863865 615.001953125 485.728515625 571.2265625 485.728515625 571.2265625 c 5
 464.446289062 477.686523438 l 5
 464.446289062 477.686523438 420.692390336 526.202148438 316.66796875 526.202148438 c 0
 200.566656536 526.202148438 145.400390625 449.823430256 145.400390625 346.801757812 c 0
 145.400390625 235.956979852 201.355565619 164.801757812 320.587890625 164.801757812 c 0
 419.703371233 164.801757812 468.084960938 213.751953125 468.084960938 213.751953125 c 5
 486 117.009765625 l 5
 486 117.009765625 426.179704719 74.001953125 307.84765625 74.001953125 c 0
 140.800035445 74.001953125 45 179.634574038 45 346.001953125 c 0
EndSplineSet
Validated: 5
EndChar

StartChar: mu
Encoding: 181 181 111
Width: 595
VWidth: 0
Flags: W
HStem: -10 88.1729<210.842 357.588> -0.0185547 21G<430 530> 501.011 20G<65 165 430 530>
VStem: 65 100<-189.994 521.011> 113 52<51.9019 300.996> 430 100<250.3 520.992> 430 45<93.9805 250.3>
LayerCount: 2
Fore
SplineSet
65 -189.994140625 m 257x30
 65 521.010742188 l 257
 165 521.010742188 l 261
 165 -189.994140625 l 261
 65 -189.994140625 l 257x30
430 266.9921875 m 1xb4
 475 250.299804688 l 1
 475 93.98046875 395.366159629 -10 264 -10 c 0
 157.841264205 -10 113 51.9018625886 113 166.9921875 c 2
 113 300.9921875 l 1xaa
 113 301 165 301 165 301 c 1
 165 225.626953125 l 2
 165 126.892579332 201.989859395 78.1728515625 287 78.1728515625 c 0
 372.304338728 78.1728515625 430 144.9921875 430 266.9921875 c 1xb4
530 520.9921875 m 257x64
 530 -0.0185546875 l 257x64
 430 -0.0185546875 l 257x62
 430 520.9921875 l 257
 530 520.9921875 l 257x64
EndSplineSet
Validated: 5
EndChar

StartChar: parenleft
Encoding: 40 40 112
Width: 394
Flags: W
HStem: -200.008 90.7998<277.742 357> 670.192 90.7998<277.742 357>
VStem: 45 100.4<89.4797 480.347>
LayerCount: 2
Fore
SplineSet
357 760.9921875 m 1
 359 670.192382812 l 1
 214.833873588 670.192382812 145.400390625 524.384623729 145.400390625 287.373046875 c 0
 145.400390625 43.4220471697 214.833873588 -109.208007812 359 -109.208007812 c 1
 357 -200.0078125 l 5
 156.451720506 -200.0078125 45 -24.4770421086 45 288.692382812 c 0
 45 592.325122965 156.451720506 760.9921875 357 760.9921875 c 1
EndSplineSet
Validated: 1
EndChar

StartChar: parenright
Encoding: 41 41 113
Width: 394
Flags: W
HStem: -200.008 90.7998<37 116.258> 670.192 90.7998<37 116.258>
VStem: 248.6 100.4<89.4797 480.347>
LayerCount: 2
Fore
SplineSet
37 760.9921875 m 5
 237.548261089 760.9921875 349 592.325195312 349 288.692382812 c 0
 349 -24.4765625 237.548261089 -200.0078125 37 -200.0078125 c 1
 35 -109.208007812 l 1
 179.166015625 -109.208007812 248.599609375 43.421875 248.599609375 287.373046875 c 0
 248.599609375 524.384765625 179.166015625 670.192382812 35 670.192382812 c 1
 37 760.9921875 l 5
EndSplineSet
Validated: 1
EndChar

StartChar: bracketleft
Encoding: 91 91 114
Width: 374
VWidth: 0
Flags: W
HStem: -200 85<163 334> 676 85<163 334>
VStem: 65 269<-200 -115 676 761> 65 98<-115 676>
LayerCount: 2
Fore
SplineSet
65 -200 m 1xe0
 65 761 l 1
 334 761 l 1
 334 676 l 1xe0
 163 676 l 1
 163 -115 l 1xd0
 334 -115 l 1
 334 -200 l 1
 65 -200 l 1xe0
EndSplineSet
Validated: 1
EndChar

StartChar: bracketright
Encoding: 93 93 115
Width: 374
VWidth: 0
Flags: W
HStem: -200 85<40 211> 676 85<40 211>
VStem: 40 269<-200 -115 676 761> 211 98<-115 676>
LayerCount: 2
Fore
SplineSet
309 -200 m 1xe0
 40 -200 l 1
 40 -115 l 1xe0
 211 -115 l 1
 211 676 l 1xd0
 40 676 l 1
 40 761 l 1
 309 761 l 1
 309 -200 l 1xe0
EndSplineSet
Validated: 1
EndChar

StartChar: braceleft
Encoding: 123 123 116
Width: 420
VWidth: 0
Flags: W
HStem: -210 87.998<259.936 377.571> 251.456 84.5869<40.0059 137.116> 683.004 87.998<259.936 379.632>
VStem: 145.366 98<-104.39 243.968 344.93 665.392>
LayerCount: 2
Back
SplineSet
203 -55.001953125 m 6
 203 -108.719726562 228.234375 -122.001953125 269 -122.001953125 c 4
 297.379882812 -122.001953125 324 -109.001953125 324 -109.001953125 c 5
 331 -192.001953125 l 5
 331 -192.001953125 307.275390625 -210 245 -210 c 4
 144.651367188 -210 105 -162.001953125 105 -66.001953125 c 6
 105 166.005859375 l 6
 104.84375 231.469726562 101.045898438 251.456054688 35.6396484375 251.456054688 c 6
 3.6396484375 251.456054688 l 5
 3.6337890625 336.04296875 l 5
 35.6337890625 336.04296875 l 6
 102.650390625 336.04296875 105 357.145507812 105 427.00390625 c 6
 105 627.00390625 l 6
 105 723.00390625 144.651367188 771.001953125 245 771.001953125 c 4
 307.275390625 771.001953125 331 753.00390625 331 753.00390625 c 5
 324 670.00390625 l 5
 324 670.00390625 297.379882812 683.00390625 269 683.00390625 c 4
 228.234375 683.00390625 203 669.721679688 203 616.00390625 c 6
 203 -55.001953125 l 6
EndSplineSet
Fore
SplineSet
243.366210938 204 m 6
 243.366210938 -45.001953125 l 6
 243.366210938 -107.059570312 273.954101562 -122.001953125 323.366210938 -122.001953125 c 4
 350.71484375 -122.001953125 376.366210938 -109.001953125 376.366210938 -109.001953125 c 5
 383.366210938 -192.001953125 l 5
 383.366210938 -192.001953125 360.193359375 -210 299.366210938 -210 c 4
 188.982421875 -210 145.366210938 -158.66796875 145.366210938 -56.001953125 c 6
 145.366210938 186.005859375 l 6
 145.366210938 236.147460938 132.209960938 251.456054688 80.005859375 251.456054688 c 6
 40.005859375 251.456054688 l 1
 40 336.04296875 l 1
 80 336.04296875 l 6
 133.490234375 336.04296875 145.366210938 352.505859375 145.366210938 407.00390625 c 6
 145.366210938 617.00390625 l 6
 145.366210938 719.669921875 188.982421875 771.001953125 299.366210938 771.001953125 c 4
 361.376953125 771.001953125 385 753 385 753 c 5
 378.366210938 670.00390625 l 5
 378.366210938 670.00390625 351.74609375 683.00390625 323.366210938 683.00390625 c 4
 273.954101562 683.00390625 243.366210938 668.059570312 243.366210938 606.00390625 c 6
 243.366210938 394 l 6
 243.366210938 333.13671875 222.29296875 308.389648438 184.005859375 296.456054688 c 5
 222.20703125 282.860351562 243.366210938 260.220703125 243.366210938 204 c 6
EndSplineSet
Validated: 1
EndChar

StartChar: braceright
Encoding: 125 125 117
Width: 420
VWidth: 0
Flags: W
HStem: -210 87.998<42.4287 160.064> 251.456 84.5869<282.884 379.994> 683.004 87.998<40.3681 160.064>
VStem: 176.634 98<-104.39 243.968 344.93 665.392>
LayerCount: 2
Fore
SplineSet
176.633789062 204 m 2
 176.633789062 260.220703125 197.79296875 282.860351562 235.994140625 296.456054688 c 1
 197.70703125 308.389648438 176.633789062 333.13671875 176.633789062 394 c 2
 176.633789062 606.00390625 l 2
 176.633789062 668.059570312 146.045898438 683.00390625 96.6337890625 683.00390625 c 0
 68.25390625 683.00390625 41.6337890625 670.00390625 41.6337890625 670.00390625 c 1
 35 753 l 1
 35 753 58.623046875 771.001953125 120.633789062 771.001953125 c 0
 231.017578125 771.001953125 274.633789062 719.669921875 274.633789062 617.00390625 c 2
 274.633789062 407.00390625 l 2
 274.633789062 352.505859375 286.509765625 336.04296875 340 336.04296875 c 2
 380 336.04296875 l 5
 379.994140625 251.456054688 l 5
 339.994140625 251.456054688 l 2
 287.790039062 251.456054688 274.633789062 236.147460938 274.633789062 186.005859375 c 2
 274.633789062 -56.001953125 l 2
 274.633789062 -158.66796875 231.017578125 -210 120.633789062 -210 c 0
 59.806640625 -210 36.6337890625 -192.001953125 36.6337890625 -192.001953125 c 1
 43.6337890625 -109.001953125 l 1
 43.6337890625 -109.001953125 69.28515625 -122.001953125 96.6337890625 -122.001953125 c 0
 146.045898438 -122.001953125 176.633789062 -107.059570312 176.633789062 -45.001953125 c 2
 176.633789062 204 l 2
EndSplineSet
Validated: 1
EndChar

StartChar: minus
Encoding: 8722 8722 118
Width: 550
VWidth: 0
Flags: W
HStem: 317 86<52.5 497.5>
LayerCount: 2
Fore
SplineSet
52.5 317 m 5
 52.5 403 l 5
 497.5 403 l 5
 497.5 317 l 5
 52.5 317 l 5
EndSplineSet
Validated: 1
EndChar

StartChar: plus
Encoding: 43 43 119
Width: 550
VWidth: 0
Flags: W
HStem: 321 80<52.5 497.5>
VStem: 234 82<125 595>
LayerCount: 2
Fore
SplineSet
52.5 321 m 5
 52.5 401 l 5
 497.5 401 l 5
 497.5 321 l 5
 52.5 321 l 5
316 125 m 1
 234 125 l 1
 234 595 l 1
 316 595 l 1
 316 125 l 1
EndSplineSet
Validated: 5
EndChar

StartChar: multiply
Encoding: 215 215 120
Width: 550
VWidth: 0
Flags: W
LayerCount: 2
Fore
SplineSet
440.759765625 592.755859375 m 1
 501.5 534.015625 l 1
 111.240234375 127.244140625 l 1
 50.5 185.984375 l 1
 440.759765625 592.755859375 l 1
499.5 185.984375 m 1
 438.759765625 127.244140625 l 1
 48.5 534.015625 l 1
 109.240234375 592.755859375 l 1
 499.5 185.984375 l 1
EndSplineSet
Validated: 5
EndChar

StartChar: divide
Encoding: 247 247 121
Width: 550
VWidth: 0
Flags: W
HStem: 121.973 121.051<228.076 321.924> 321 80<52.5 497.5> 478.977 121.051<228.076 321.924>
VStem: 215.05 119.9<134.89 230.012 491.988 587.11>
CounterMasks: 1 e0
LayerCount: 2
Fore
SplineSet
52.5 321 m 5
 52.5 401 l 5
 497.5 401 l 5
 497.5 321 l 5
 52.5 321 l 5
334.950195312 182.307617188 m 0
 334.950195312 146.321289062 310.163085938 121.97265625 275 121.97265625 c 0
 239.836914062 121.97265625 215.049804688 146.321289062 215.049804688 182.307617188 c 0
 215.049804688 218.481445312 239.8359375 243.0234375 275 243.0234375 c 0
 310.1640625 243.0234375 334.950195312 218.481445312 334.950195312 182.307617188 c 0
215.049804688 539.692382812 m 0
 215.049804688 575.678710938 239.836914062 600.02734375 275 600.02734375 c 0
 310.163085938 600.02734375 334.950195312 575.678710938 334.950195312 539.692382812 c 0
 334.950195312 503.518554688 310.1640625 478.9765625 275 478.9765625 c 0
 239.8359375 478.9765625 215.049804688 503.518554688 215.049804688 539.692382812 c 0
EndSplineSet
Validated: 1
EndChar

StartChar: equal
Encoding: 61 61 122
Width: 550
VWidth: 0
Flags: W
HStem: 233 79<52.5 497.5> 410 79<52.5 497.5>
LayerCount: 2
Fore
SplineSet
52.5 233 m 1
 52.5 312 l 1
 497.5 312 l 1
 497.5 233 l 1
 52.5 233 l 1
52.5 410 m 1
 52.5 489 l 1
 497.5 489 l 1
 497.5 410 l 1
 52.5 410 l 1
EndSplineSet
Validated: 1
EndChar

StartChar: notequal
Encoding: 8800 8800 123
Width: 550
VWidth: 0
Flags: W
HStem: 233 79<52.5 497.5> 410 79<52.5 497.5>
LayerCount: 2
Fore
SplineSet
68 146 m 1
 391 617 l 1
 457 590 l 1
 134 119 l 5
 68 146 l 1
EndSplineSet
Refer: 122 61 N 1 0 0 1 0 0 2
Validated: 5
EndChar

StartChar: plusminus
Encoding: 177 177 124
Width: 550
VWidth: 0
Flags: W
HStem: 75 80<52.5 497.5> 361 80<52.5 497.5>
VStem: 234 82<205 595>
LayerCount: 2
Fore
SplineSet
52.5 75 m 5
 52.5 155 l 5
 497.5 155 l 5
 497.5 75 l 5
 52.5 75 l 5
52.5 361 m 1
 52.5 441 l 1
 497.5 441 l 1
 497.5 361 l 1
 52.5 361 l 1
316 205 m 1
 234 205 l 1
 234 595 l 1
 316 595 l 1
 316 205 l 1
EndSplineSet
Validated: 5
EndChar

StartChar: .notdef
Encoding: 65536 -1 125
Width: 950
VWidth: 0
Flags: W
HStem: -84.9082 44.9404<330.98 614.223> 4.42866 4.86439<543.125 546.087> 34.8613 103.434<389.987 427.975 443.043 501.541> 61.5623 146.468<249.499 347.596> 196.025 9.95312<506.542 542.38> 304.323 53.3525<264.79 317.328 439.696 493.583> 385.186 111.916<434.411 560.966> 518.221 149.762<655.736 737.981> 526.768 21G<528.112 529.425> 567.182 149.76<416.357 471.341> 768.952 44.9404<335.777 619.02>
VStem: 26.2002 45<217.193 496.056> 109.092 59.6963<219.458 374.337> 210.28 24.4297<250.91 341.357> 264.384 53.3506<304.73 357.269> 344.92 149.761<590.521 693.602> 404.662 21.2031<252.874 338.291> 439.279 54.7207<303.512 358.488> 536.172 33.8955<581.861 652.149> 609.44 71<240.744 350.218> 611.56 149.76<573.308 644.643> 721.932 118.976<247.099 409.136> 878.8 45<233.343 512.2>
LayerCount: 2
Back
SplineSet
1154 277.001953125 m 0
 1154 459.001953125 1286.09082031 601.001953125 1474 601.001953125 c 0
 1669.99804688 601.001953125 1805 468.001953125 1805 286.001953125 c 0
 1805 104.001953125 1669.99804688 -40.998046875 1474 -40.998046875 c 0
 1286.09082031 -40.998046875 1154 95.001953125 1154 277.001953125 c 0
1334 502.001953125 m 1
 1345.91992188 628.354492188 1365.984375 711.866210938 1402 804.001953125 c 1
 1468 796.001953125 l 1
 1447.68847656 720.682617188 1427.84765625 678.919921875 1414 506.001953125 c 1
 1334 502.001953125 l 1
1346 819.001953125 m 0
 1346 876.001953125 1393 923.001953125 1450 923.001953125 c 0
 1507 923.001953125 1554 876.001953125 1554 819.001953125 c 0
 1554 762.001953125 1507 715.001953125 1450 715.001953125 c 0
 1393 715.001953125 1346 762.001953125 1346 819.001953125 c 0
1601 492.001953125 m 1
 1625.39453125 605.802734375 1694.29199219 681.018554688 1768 764.001953125 c 1
 1870 716.001953125 l 1
 1799.97558594 672.001953125 1731.01171875 624.001953125 1696 496.001953125 c 1
 1601 492.001953125 l 1
1728 751.001953125 m 0
 1728 808.001953125 1775 855.001953125 1832 855.001953125 c 0
 1889 855.001953125 1936 808.001953125 1936 751.001953125 c 0
 1936 694.001953125 1889 647.001953125 1832 647.001953125 c 0
 1775 647.001953125 1728 694.001953125 1728 751.001953125 c 0
1185 316.001953125 m 0
 1185 245.315429688 1230.96777344 188.001953125 1299 188.001953125 c 0
 1367.03222656 188.001953125 1413 245.315429688 1413 316.001953125 c 0
 1413 386.688476562 1367.03222656 444.001953125 1299 444.001953125 c 0
 1230.96777344 444.001953125 1185 386.688476562 1185 316.001953125 c 0
1450 316.001953125 m 0
 1450 242.001953125 1500.40332031 182.001953125 1575 182.001953125 c 0
 1649.59667969 182.001953125 1700 242.001953125 1700 316.001953125 c 0
 1700 390.001953125 1649.59667969 450.001953125 1575 450.001953125 c 0
 1500.40332031 450.001953125 1450 390.001953125 1450 316.001953125 c 0
1290 323.001953125 m 0
 1290 345.001953125 1307 362.001953125 1329 362.001953125 c 0
 1351 362.001953125 1368 345.001953125 1368 323.001953125 c 0
 1368 301.001953125 1351 284.001953125 1329 284.001953125 c 0
 1307 284.001953125 1290 301.001953125 1290 323.001953125 c 0
1535 323.001953125 m 0
 1535 345.001953125 1552 362.001953125 1574 362.001953125 c 0
 1596 362.001953125 1613 345.001953125 1613 323.001953125 c 0
 1613 301.001953125 1596 284.001953125 1574 284.001953125 c 0
 1552 284.001953125 1535 301.001953125 1535 323.001953125 c 0
1498 169.001953125 m 0
 1382 169.001953125 1330 78.001953125 1330 78.001953125 c 1
 1330 78.001953125 1357.68164062 92.001953125 1402 92.001953125 c 0
 1495.44042969 92.001953125 1521.59960938 45.001953125 1582 45.001953125 c 0
 1614.40722656 45.001953125 1632 61.0634765625 1632 91.001953125 c 0
 1632 139.083984375 1575.82617188 169.001953125 1498 169.001953125 c 0
1397 174.001953125 m 1
 1410 174.001953125 l 1
 1410 57.001953125 l 1
 1397 57.001953125 l 1
 1397 174.001953125 l 1
1486 174.001953125 m 1
 1499 174.001953125 l 1
 1499 57.001953125 l 1
 1486 57.001953125 l 1
 1486 174.001953125 l 1
1580 156.001953125 m 1
 1593 156.001953125 l 1
 1593 39.001953125 l 1
 1580 39.001953125 l 1
 1580 156.001953125 l 1
444.599609375 69.8037109375 m 4
 318.290039062 69.8037109375 228.404296875 160.452148438 228.404296875 280.599609375 c 4
 228.404296875 341.23828125 250.881835938 395.82421875 289.904296875 434.84765625 c 4
 305.33203125 450.275390625 323.25390625 463.182617188 343.2265625 473.034179688 c 5
 347.153320312 499.038085938 352.166015625 522.217773438 358.572265625 544.63671875 c 5
 347.376953125 558.67578125 340.603515625 576.448242188 340.603515625 595.799804688 c 4
 340.603515625 634.709960938 368.0546875 667.619140625 404.515625 676.084960938 c 5
 341.583007812 665.0078125 288.78125 637.478515625 248.423828125 597.122070312 c 4
 191.854492188 540.551757812 158.49609375 457.37109375 158.49609375 354.672851562 c 4
 158.49609375 169.219726562 281.825195312 47.4384765625 469 47.4384765625 c 4
 560.6875 47.4384765625 635.948242188 78.41015625 689.416992188 131.87890625 c 4
 746.084960938 188.546875 779.50390625 271.887695312 779.50390625 374.672851562 c 4
 779.50390625 446.444335938 761.033203125 508.6171875 727.545898438 557.875 c 5
 727.579101562 556.920898438 727.595703125 555.961914062 727.595703125 555 c 4
 727.595703125 509.7421875 690.458007812 472.603515625 645.200195312 472.603515625 c 4
 638.301757812 472.603515625 631.575195312 473.474609375 625.1484375 475.1015625 c 5
 616.060546875 464.124023438 607.890625 450.659179688 601.104492188 432.4375 c 5
 638.78515625 394.2734375 660.196289062 341.719726562 660.196289062 282.400390625 c 4
 660.196289062 159.340820312 571.473632812 69.8037109375 444.599609375 69.8037109375 c 4
423 638.204101562 m 0
 399.858398438 638.204101562 380.595703125 618.942382812 380.595703125 595.799804688 c 0
 380.595703125 578.524414062 390.159179688 568.9609375 395.1328125 563.98828125 c 0
 399.03515625 560.084960938 400.986328125 554.965820312 400.986328125 549.845703125 c 0
 400.986328125 541.708007812 389.734375 519.047851562 381.291992188 456.70703125 c 0
 380.317382812 449.51171875 375.581054688 443.671875 369.32421875 441.008789062 c 0
 349.805664062 432.702148438 332.59765625 420.971679688 318.189453125 406.563476562 c 0
 287.048828125 375.422851562 268.396484375 331.212890625 268.396484375 280.599609375 c 0
 268.396484375 182.33203125 340.505859375 109.795898438 444.599609375 109.795898438 c 0
 549.352539062 109.795898438 620.204101562 181.299804688 620.204101562 282.400390625 c 0
 620.204101562 314.3515625 612.354492188 369.672851562 564.822265625 411.735351562 c 0
 562.615234375 413.689453125 558.068359375 418.6875 558.068359375 426.724609375 c 0
 558.068359375 428.711914062 558.362304688 430.700195312 558.951171875 432.616210938 c 0
 562.99609375 445.795898438 574.873046875 482.249023438 605.098632812 512.475585938 c 0
 609.001953125 516.377929688 614.12109375 518.329101562 619.241210938 518.329101562 c 0
 627.885742188 518.329101562 631.321289062 512.595703125 645.200195312 512.595703125 c 0
 668.341796875 512.595703125 687.603515625 531.857421875 687.603515625 555 c 0
 687.603515625 578.141601562 668.341796875 597.404296875 645.200195312 597.404296875 c 0
 622.05859375 597.404296875 602.795898438 578.142578125 602.795898438 555 c 0
 602.795898438 546.228515625 605.11328125 543.724609375 605.11328125 538.254882812 c 0
 605.11328125 533.75390625 603.604492188 529.251953125 600.587890625 525.578125 c 0
 579.87890625 500.357421875 562.188476562 476.328125 550.342773438 448.462890625 c 0
 549.728515625 447.018554688 544.743164062 436.305664062 531.939453125 436.305664062 c 0
 529.12890625 436.305664062 526.318359375 436.893554688 523.708984375 438.0703125 c 0
 499.682617188 448.900390625 471.681640625 455.00390625 440.400390625 455.00390625 c 0
 422.860351562 455.00390625 413.426757812 452.856445312 409.94921875 452.856445312 c 0
 398.8984375 452.856445312 389.953125 461.802734375 389.953125 472.852539062 c 0
 389.953125 473.59765625 392.688476562 503.916015625 400.66015625 538.041015625 c 0
 402.748046875 546.977539062 410.741210938 553.462890625 420.129882812 553.462890625 c 0
 420.36328125 553.462890625 420.596679688 553.458984375 420.830078125 553.451171875 c 2
 420.830078125 553.451171875 422.661132812 553.396484375 423 553.396484375 c 0
 446.141601562 553.396484375 465.404296875 572.658203125 465.404296875 595.799804688 c 0
 465.404296875 618.94140625 446.142578125 638.204101562 423 638.204101562 c 0
469 7.4462890625 m 0
 259.453125 7.4462890625 118.50390625 147.501953125 118.50390625 354.672851562 c 0
 118.50390625 574.794921875 260.34765625 721.538085938 469 721.538085938 c 0
 678.592773438 721.538085938 819.49609375 581.791992188 819.49609375 374.672851562 c 0
 819.49609375 154.520507812 677.62109375 7.4462890625 469 7.4462890625 c 0
415.8515625 677.885742188 m 5
 418.208007812 678.090820312 420.592773438 678.196289062 423 678.196289062 c 4
 468.2578125 678.196289062 505.396484375 641.057617188 505.396484375 595.799804688 c 4
 505.396484375 555.044921875 475.309570312 520.997070312 436.489257812 514.518554688 c 5
 435.311523438 508.586914062 434.1640625 502.135742188 433.047851562 494.884765625 c 5
 435.486328125 494.958984375 437.936523438 494.99609375 440.400390625 494.99609375 c 4
 469.595703125 494.99609375 496.999023438 490.420898438 521.879882812 481.80078125 c 5
 533.689453125 504.499023438 548.270507812 524.434570312 563.61328125 543.512695312 c 4
 563.080078125 547.2734375 562.803710938 551.111328125 562.803710938 555 c 4
 562.803710938 599.508789062 598.72265625 636.1640625 642.958007812 637.366210938 c 5
 595.001953125 665.939453125 536.099609375 681.545898438 469 681.545898438 c 4
 450.608398438 681.545898438 432.876953125 680.302734375 415.8515625 677.885742188 c 5
EndSplineSet
Fore
SplineSet
252.813718059 64.0618041616 m 0xd63e22
 252.813718059 62.6805072958 251.69549188 61.5622943853 250.314208283 61.5622943853 c 0
 248.684440673 61.5622943853 225.990431395 77.5057762179 205.047208533 98.4489990808 c 0
 123.545737075 179.950470539 109.092271559 286.883113212 109.092271559 352.708984375 c 0
 109.092271559 469.314068509 148.463995543 562.234277802 212.544758588 626.315040847 c 0
 259.065525229 672.835807488 310.634615421 694.15467402 311.837162606 694.15467402 c 0
 313.218459472 694.15467402 314.336672383 693.036447841 314.336672383 691.655164244 c 0
 314.336672383 689.837509643 303.427259691 671.377603234 303.427259691 642.061523447 c 0
 303.427259843 602.48816474 323.136523688 579.010006253 323.136523688 576.727223936 c 0
 323.136523688 575.421522059 315.376602455 550.32366259 308.356469191 507.439450745 c 0
 308.30274951 507.111290852 308.067222501 506.183520473 307.084371739 505.649082888 c 0
 221.970560702 459.367367055 168.788587816 369.055772856 168.788587816 263.821289062 c 0
 168.788587816 218.200756279 179.82584012 133.213906696 252.081975236 65.8295711146 c 0
 252.569803785 65.3417425657 252.813718059 64.7017733636 252.813718059 64.0618041616 c 0xd63e22
545.62175985 4.42865793907 m 0
 544.240462984 4.42865793907 543.122250074 5.54688411792 543.122250074 6.92816771542 c 0
 543.122250074 8.01752428884 543.820445509 8.95461857656 544.8102598 9.29305066963 c 0
 583.571033411 22.5459303874 617.561340976 43.6867972567 645.1429429 71.2683991802 c 0
 693.895348145 120.020804425 721.932115309 188.195752593 721.932115309 265.982421875 c 0
 721.932115309 336.654275374 697.957843268 400.442811671 655.007364388 448.691787085 c 0
 654.58682216 449.164208631 654.376551045 449.758405383 654.376551045 450.352602136 c 0
 654.376551045 452.933546506 666.595846451 474.611462014 669.022228064 477.037843627 c 0
 669.510056613 477.525672176 670.150025815 477.769586451 670.789995017 477.769586451 c 0
 671.378444127 477.769586451 677.496084439 476.729017503 686.440429688 476.729017503 c 0
 718.499171757 476.729017503 747.561390519 489.866974459 768.616807311 510.922391251 c 0
 787.691103474 529.996687406 793.516241416 548.777278579 794.668867755 549.929904918 c 0
 795.156696304 550.417733467 795.796665506 550.661647741 796.436634708 550.661647741 c 0
 797.351593727 550.661647741 798.158056018 550.169282221 798.593680334 549.426861806 c 0
 825.446622888 503.662261347 840.907728441 441.105226992 840.907728441 376.708984375 c 0xc63e26
 840.907728441 184.598582374 717.127340796 36.6571843828 546.086838698 4.47200281411 c 0
 545.93327467 4.44310623075 545.77751726 4.42865793907 545.62175985 4.42865793907 c 0
586.860351562 103.494140625 m 1
 601.548144531 105.370787235 609.440429688 116.025361252 609.440429688 128.815429688 c 0xc63e32
 609.440429688 150.247635002 595.953649619 168.776705482 573.1953125 180.99609375 c 1
 586.860351562 103.494140625 l 1
518.06640625 122.482421875 m 1
 536.42577897 113.272913832 551.144644162 103.396299234 571.887695312 102.990234375 c 1
 557.310546875 185.665039062 l 1
 543.150327629 192.466231013 525.245416811 196.19609019 505.055664062 196.2734375 c 1
 518.06640625 122.482421875 l 1
435.45703125 181.28125 m 1
 443.04296875 138.250976562 l 1
 467.979636159 137.536585195 486.524765225 132.576667984 502.28125 126.590820312 c 1
 490.038085938 196.025390625 l 1xce3e22
 468.639648438 194.783552624 450.500390625 188.998693078 435.45703125 181.28125 c 1
421.321289062 174.703125 m 1
 396.329389946 155.065209353 384.693359375 127.805664062 384.693359375 127.805664062 c 1
 384.693359375 127.805664062 401.237365015 137.551520973 427.974609375 138.294921875 c 1xe63e22
 421.321289062 174.703125 l 1
439.279296875 331 m 0xc63e62
 439.279296875 346.8203125 451.205078125 359.043945312 466.639648438 359.043945312 c 0
 482.073242188 359.043945312 494 346.8203125 494 331 c 0
 494 315.1796875 482.073242188 302.956054688 466.639648438 302.956054688 c 0
 451.205078125 302.956054688 439.279296875 315.1796875 439.279296875 331 c 0xc63e62
264.383789062 331 m 0
 264.383789062 346.047851562 276.01171875 357.67578125 291.059570312 357.67578125 c 0
 306.107421875 357.67578125 317.734375 346.047851562 317.734375 331 c 0
 317.734375 315.952148438 306.107421875 304.323242188 291.059570312 304.323242188 c 0
 276.01171875 304.323242188 264.383789062 315.952148438 264.383789062 331 c 0
425.865234375 295.58203125 m 0xce3ea2
 425.865234375 246.099609375 462.398332271 205.978515625 516.469726562 205.978515625 c 0
 569.881247716 205.978515625 605.969726562 246.099609375 605.969726562 295.58203125 c 0
 605.969726562 345.064453125 569.329486114 385.185546875 515.1015625 385.185546875 c 0
 461.84756103 385.185546875 425.865234375 345.064453125 425.865234375 295.58203125 c 0xce3ea2
234.709960938 295.58203125 m 0
 234.709960938 247.233398438 268.571715556 208.030273438 318.686523438 208.030273438 c 0
 369.994933841 208.030273438 404.662109375 247.233398438 404.662109375 295.58203125 c 0
 404.662109375 343.930664062 369.994933841 383.133789062 318.686523438 383.133789062 c 0
 268.571715556 383.133789062 234.709960938 343.930664062 234.709960938 295.58203125 c 0
344.919921875 642.061523438 m 0xe73f32
 344.919921875 683.1015625 378.759765625 716.94140625 419.799804688 716.94140625 c 0
 460.83984375 716.94140625 494.680664062 683.1015625 494.680664062 642.061523438 c 0
 494.680664062 601.022460938 460.83984375 567.181640625 419.799804688 567.181640625 c 0xe67f32
 418.645507812 567.181640625 416.35546875 567.26171875 416.35546875 567.26171875 c 1
 411.967773438 548.48046875 407.82421875 526.609375 404.138671875 494.524414062 c 1
 415.944335938 496.22265625 428.140625 497.1015625 440.680664062 497.1015625 c 0
 481.374023438 497.1015625 518.416015625 489.138671875 550.52734375 474.6640625 c 1
 566.165039062 511.448242188 589.061523438 542.220703125 614.340820312 573.0078125 c 1
 612.530273438 579.413085938 611.559570312 586.153320312 611.559570312 593.1015625 c 0
 611.559570312 634.141601562 645.400390625 667.982421875 686.440429688 667.982421875 c 0
 727.479492188 667.982421875 761.319335938 634.141601562 761.319335938 593.1015625 c 0xc73f2a
 761.319335938 552.061523438 727.479492188 518.220703125 686.440429688 518.220703125 c 0
 675.356445312 518.220703125 664.797851562 520.688476562 655.2890625 525.1015625 c 1
 635.50390625 505.087890625 618.065429688 478.883789062 605.876953125 439.170898438 c 1
 652.938476562 397.525390625 680.440429688 336.772460938 680.440429688 265.982421875 c 0
 680.440429688 131.495117188 584.706054688 34.861328125 445.719726562 34.861328125 c 0
 307.466796875 34.861328125 210.280273438 132.78125 210.280273438 263.821289062 c 0
 210.280273438 361.462890625 263.083984375 443.114257812 345.97265625 478.392578125 c 1
 351.510742188 519.284179688 359.017578125 553.412109375 369.388671875 586.916015625 c 1
 354.390625 600.653320312 344.919921875 620.349609375 344.919921875 642.061523438 c 0xe73f32
26.2001953125 352.732421875 m 0
 26.2001953125 629.67578125 205.624023438 813.892578125 475 813.892578125 c 0
 744.375976562 813.892578125 923.799804688 639.262695312 923.799804688 376.732421875 c 0
 923.799804688 99.7958984375 744.375976562 -84.908203125 475 -84.908203125 c 0
 205.624023438 -84.908203125 26.2001953125 90.193359375 26.2001953125 352.732421875 c 0
71.2001953125 352.708984375 m 0
 71.2001953125 117.14453125 232.6328125 -39.9677734375 475 -39.9677734375 c 0
 717.3671875 -39.9677734375 878.799804688 126.747070312 878.799804688 376.708984375 c 0
 878.799804688 612.265625 717.3671875 768.952148438 475 768.952148438 c 0
 232.6328125 768.952148438 71.2001953125 602.678710938 71.2001953125 352.708984375 c 0
570.067884691 593.101562537 m 0
 570.067884691 588.835821807 570.299191279 586.028273615 570.299191279 585.702256877 c 0
 570.299191279 583.180351429 552.410556276 565.83899218 530.912658396 528.032452259 c 0
 530.772415266 527.785818493 530.110779458 526.768475228 528.738750231 526.768475228 c 0xc6be22
 527.485513513 526.768475228 508.477979835 533.132972011 478.538679984 536.499559053 c 0
 477.279131313 536.641191632 476.320456788 537.706417279 476.320456788 538.98330798 c 0
 476.320456788 542.177427951 486.219333774 544.12730456 501.981556627 559.889527412 c 0
 523.014130479 580.922101265 536.172349684 609.96707468 536.172349684 642.061523438 c 0
 536.172349684 673.13101054 523.834374888 701.384425078 503.906453313 722.266173037 c 0
 503.446307674 722.748343003 503.216234854 723.369888785 503.216234854 723.991434566 c 0
 503.216234854 725.372731432 504.334461033 726.490944343 505.715744631 726.490944343 c 0
 506.985107004 726.490944343 567.703910155 724.369005578 629.694955771 699.2519365 c 0
 629.862365258 699.184106774 631.253618502 698.571190017 631.253618502 696.935326295 c 0
 631.253618502 693.671372076 620.59054975 691.609497684 604.261810448 675.280758382 c 0
 583.2058613 654.224809234 570.067884691 625.161566789 570.067884691 593.101562537 c 0
EndSplineSet
Validated: 1
EndChar

StartChar: ampersand.alt
Encoding: 65537 128626 126
Width: 729
Flags: W
HStem: -9.99805 94.9893<224.386 414.15> 334.452 89.5869<233.929 480 587 689> 334.452 45.5479<480 587> 646.003 92.9893<231.788 444.693>
VStem: 58 103.989<139.851 280.017> 77 107.989<467.264 602.264> 483 104<150.211 263>
LayerCount: 2
Fore
SplineSet
689 424.0390625 m 1xd6
 689.005859375 334.452148438 l 1xb6
 338.361328125 334.452148438 l 2xd6
 219.778393683 334.452148438 161.989257812 292.86328125 161.989257812 212 c 0
 161.989257812 133.143776258 218.750440987 84.9912109375 320.89453125 84.9912109375 c 0
 437.032646054 84.9912109375 484.121815777 140.117892266 483 263 c 2
 483 263 483 380 480 380 c 1
 587 380 l 1
 587 249 l 2
 587 96.6886892821 520.748192969 -9.99821405574 323.89453125 -9.998046875 c 0
 156.859375 -9.9979039096 58 68.927734375 58 205 c 0xba
 58 359.530909385 190.857421875 381.3671875 190.857421875 381.3671875 c 1
 190.857421875 381.3671875 77 406.631891712 77 542 c 0
 77 668.0336138 166.192382812 738.9921875 316.89453125 738.9921875 c 0
 469.158203125 738.9921875 537 684.286132812 537 684.286132812 c 1
 511.569335938 586.505859375 l 1
 511.569335938 586.509407785 446.4453125 646.002929688 325.89453125 646.002929688 c 0
 234.602539062 646.002929688 184.989257812 609.240638986 184.989257812 534 c 0
 184.989257812 449.549256759 248.082032531 424.0390625 344.35546875 424.0390625 c 2
 689 424.0390625 l 1xd6
EndSplineSet
Validated: 37
EndChar

StartChar: asterisk
Encoding: 42 42 127
Width: 404
Flags: W
HStem: 731.002 20G<162.12 243.343>
LayerCount: 2
Fore
SplineSet
243.342773438 751.001953125 m 5
 234.337890625 591.497070312 l 5
 365.6640625 653.13671875 l 5
 394 587.227539062 l 5
 256.090820312 531.217773438 l 5
 357.51171875 409.634765625 l 5
 294.247070312 362.497070312 l 5
 202.731445312 494.700195312 l 5
 111.216796875 362.497070312 l 5
 47.9521484375 409.634765625 l 5
 149.372070312 531.217773438 l 5
 10 587.227539062 l 5
 39.7998046875 653.13671875 l 5
 171.125976562 591.497070312 l 5
 162.120117188 751.001953125 l 5
 243.342773438 751.001953125 l 5
EndSplineSet
Validated: 1
EndChar

StartChar: less
Encoding: 60 60 128
Width: 550
VWidth: 0
Flags: W
LayerCount: 2
Fore
SplineSet
157.036132812 361 m 5
 487.5 212 l 5
 475.5 125 l 5
 62.5 317 l 5
 62.5 401 l 5
 475.5 593 l 5
 487.5 510 l 5
 157.036132812 361 l 5
EndSplineSet
Validated: 1
EndChar

StartChar: greater
Encoding: 62 62 129
Width: 550
VWidth: 0
Flags: W
LayerCount: 2
Fore
SplineSet
392.963867188 361 m 5
 62.5 510 l 5
 74.5 597 l 5
 487.5 405 l 5
 487.5 317 l 5
 74.5 125 l 5
 62.5 212 l 5
 392.963867188 361 l 5
EndSplineSet
Validated: 1
EndChar

StartChar: uni0413
Encoding: 1043 1043 154
Width: 583
VWidth: 0
Flags: W
HStem: 0 21G<70 177> 633.008 98<177 538>
VStem: 70 107<0 633.008>
AnchorPoint: "Anchor-0" 302 731.015 basechar 0
AnchorPoint: "Anchor-2" 302 0 basechar 0
LayerCount: 2
Fore
SplineSet
70 731.0078125 m 1
 538 731.0078125 l 1
 538 633.0078125 l 1
 177 633.0078125 l 1
 177 0 l 1
 70 0 l 1
 70 731.0078125 l 1
EndSplineSet
Validated: 1
EndChar

StartChar: zero.osf
Encoding: 57354 57354 156
Width: 598
Flags: W
HStem: -10.0078 83.7998<219.258 378.665> 460.192 87.7998<219.258 378.665>
VStem: 45 96.4004<159.863 372.978> 456.6 96.4004<159.862 374.219>
LayerCount: 2
Fore
SplineSet
141.400390625 267.373046875 m 0
 141.400390625 144.951006036 201.6679114 73.7919921875 298.807617188 73.7919921875 c 4
 396.56265436 73.7919921875 456.599609375 144.950019278 456.599609375 267.373046875 c 0
 456.599609375 389.908698252 396.562935046 460.192382812 298.807617188 460.192382812 c 4
 201.667657058 460.192382812 141.400390625 389.908698252 141.400390625 267.373046875 c 0
45 268.692382812 m 0
 45 439.792371478 147.667254947 547.9921875 298.807617188 547.9921875 c 4
 450.53555334 547.9921875 553 429.863469998 553 268.692382812 c 0
 553 98.076412027 450.536602862 -10.0078125 298.807617188 -10.0078125 c 4
 147.666247012 -10.0078125 45 98.076412027 45 268.692382812 c 0
EndSplineSet
Validated: 1
EndChar

StartChar: one.osf
Encoding: 57355 57355 157
Width: 355
VWidth: 0
Flags: W
HStem: -1 21G<173 270>
VStem: 173 97<0 452.958>
LayerCount: 2
Fore
SplineSet
270 550.958007812 m 5
 270 -1 l 1
 173 0 l 1
 173 452.958007812 l 5
 128.213867188 414.868164062 30 359.958007812 30 359.958007812 c 5
 0 437.958007812 l 5
 0 437.958007812 116.333984375 502.256835938 180 550.958007812 c 5
 270 550.958007812 l 5
EndSplineSet
Validated: 1
EndChar

StartChar: two.osf
Encoding: 57356 57356 158
Width: 561
Flags: W
HStem: 0 93<167.287 521> 475.011 82.9893<166.787 374.717>
VStem: 412.127 96.9893<333.582 440.867>
LayerCount: 2
Fore
SplineSet
60 53 m 6
 60 173.995351005 154.241281598 233.480414012 282.760742188 279.0390625 c 4
 366.175077913 308.876807718 412.126953125 331.067382812 412.126953125 386 c 4
 412.126953125 438.533203125 373.4186551 475.010742188 282.221679688 475.010742188 c 4
 168.923674484 475.010742188 98.134765625 415.517644902 98.134765625 415.513671875 c 5
 75.7041015625 503.293945312 l 5
 75.7041015625 503.293945312 146.795972608 558 285.221679688 558 c 4
 433.698995921 558 509.116210938 495.94140625 509.116210938 387.723632812 c 4
 509.116210938 294.646484375 454.579378182 248.742556051 332.766601562 206.452148438 c 4
 237.940694695 173.485522803 178.554306788 142.628420062 167.287109375 93 c 5
 521 93 l 5
 521 0 l 5
 60 0 l 5
 60 53 l 6
EndSplineSet
Validated: 1
EndChar

StartChar: three.osf
Encoding: 57357 57357 159
Width: 564
Flags: W
HStem: -191.057 93.9893<112.659 344.441> 163.394 81.5869<161.645 343.931> 467.944 89.9893<146.324 342.238>
VStem: 388.011 103.989<284.791 424.953> 414.011 104.989<-31.7596 111.515>
LayerCount: 2
Fore
SplineSet
161.64453125 244.98046875 m 1xe8
 234.64453125 244.98046875 l 2
 328.486008001 244.98046875 388.010742188 270.026367188 388.010742188 352.94140625 c 4
 388.010742188 432.884765625 340.73061183 467.944335938 250.10546875 467.944335938 c 0
 137.345703125 467.944335938 76.4306640625 402.451171875 76.4306640625 402.447265625 c 1
 51 497.227539062 l 1
 51 497.227539062 115.143108391 557.93359375 259.10546875 557.93359375 c 0
 405.410205402 557.93359375 492 485.534179688 492 356.94140625 c 0xf0
 492 232.528627576 385.142578125 209.30859375 385.142578125 209.30859375 c 1
 385.142578125 209.30859375 519 187.34850418 519 31.94140625 c 0
 519 -109.19405944 410.140625 -191.056640625 243.10546875 -191.056640625 c 0
 96.1996886024 -191.056640625 35 -143.350585938 35 -143.350585938 c 1
 55.4306640625 -47.5703125 l 1
 55.4306640625 -47.57421875 121.798828125 -97.0673828125 240.10546875 -97.0673828125 c 0
 345.948763353 -97.0673828125 414.010742188 -47.365234375 414.010742188 38.94140625 c 0
 414.010742188 121.125 360.817726896 163.393554688 249.638671875 163.393554688 c 2
 161.638671875 163.393554688 l 1
 161.64453125 244.98046875 l 1xe8
EndSplineSet
Validated: 1
EndChar

StartChar: four.osf
Encoding: 57358 57358 160
Width: 610
Flags: W
HStem: 0 91<118 570>
VStem: 362 98<-193 407>
LayerCount: 2
Fore
SplineSet
370 551 m 5
 460 551 l 5
 460 -193 l 1
 362 -193 l 1
 362 407 l 5
 118 91 l 1
 570 91 l 1
 570 0 l 1
 31 0 l 1
 13 82 l 1
 370 551 l 5
EndSplineSet
Validated: 5
EndChar

StartChar: five.osf
Encoding: 57359 57359 161
Width: 582
Flags: W
HStem: -192.995 92.9893<113.917 340.971> 228.455 82.915<224.717 379.997> 454.011 94<194 510>
VStem: 433.011 103.989<-11.9501 174.132>
LayerCount: 2
Fore
SplineSet
325 311.370117188 m 4
 459.242400391 311.370117188 537 221.745386792 537 75.0029296875 c 0
 537 -90.4930745608 423.306640625 -192.995117188 248.10546875 -192.995117188 c 0
 97.7573637191 -192.995117188 35 -145.2890625 35 -145.2890625 c 1
 55.4306640625 -50.5087890625 l 1
 55.4306640625 -50.5126953125 122.493203944 -100.005859375 242.10546875 -100.005859375 c 0
 367.884113641 -100.005859375 433.010742188 -27.1129142002 433.010742188 81.0029296875 c 0
 433.010742188 168.071642071 395.858779097 228.455078125 300.638671875 228.455078125 c 0
 182.637927827 228.455078125 148.638671875 130.455078125 148.638671875 130.455078125 c 1
 68.64453125 151.041992188 l 1
 114 548.010742188 l 1
 510 548.010742188 l 1
 510 454.010742188 l 1
 194 454.010742188 l 1
 167 241.002929688 l 1
 167 241.002929688 206.421469701 311.370117188 325 311.370117188 c 4
EndSplineSet
Validated: 1
EndChar

StartChar: six.osf
Encoding: 57360 57360 162
Width: 602
Flags: W
HStem: -10.0078 84.7998<223.33 386.404> 398.192 83.7998<224.625 388.822> 650.003 88.9795<256.875 469.569>
VStem: 45 101.978<388.101 520.816> 453.6 103.4<144.573 330.548>
LayerCount: 2
Fore
SplineSet
155.400390625 239.373046875 m 4
 155.400390625 142.335423789 206.311196613 74.7919921875 306 74.7919921875 c 4
 403.542539685 74.7919921875 453.599609375 141.917166708 453.599609375 238.373046875 c 4
 453.599609375 333.198651813 404.743972247 398.192382812 304 398.192382812 c 4
 203.808437729 398.192382812 155.400390625 333.614019462 155.400390625 239.373046875 c 4
146.977539062 388.100585938 m 1
 146.977539062 388.100585938 187.567642069 481.9921875 329 481.9921875 c 0
 479.096113868 481.9921875 557 378.231908672 557 239.692382812 c 0
 557 93.9877260705 469.12494553 -10.0078125 311 -10.0078125 c 0
 140.018623155 -10.0078125 45 115.32421875 45 346 c 0
 45 621.266597117 160.005040412 738.982421875 358 738.982421875 c 0
 484.930702938 738.982421875 534 692.286132812 534 692.286132812 c 1
 511.569335938 601.505859375 l 1
 511.569335938 601.508729873 467.038668514 650.002929688 350 650.002929688 c 0
 218.581204015 650.002929688 146.977539062 550.522878378 146.977539062 388.100585938 c 1
EndSplineSet
Validated: 1
EndChar

StartChar: seven.osf
Encoding: 57361 57361 163
Width: 558
VWidth: 0
Flags: W
HStem: 456.958 91<40 408>
VStem: 138 110<-181.05 -74.2424>
LayerCount: 2
Fore
SplineSet
523 547.958007812 m 1
 523 473.950195312 l 1
 523 473.950195312 298.907654693 214.563476562 248 -181.049804688 c 5
 138 -181.049804688 l 5
 183.37004872 147.757871051 408 456.958007812 408 456.958007812 c 1
 40 456.958007812 l 1
 40 547.958007812 l 1
 523 547.958007812 l 1
EndSplineSet
Validated: 1
EndChar

StartChar: eight.osf
Encoding: 57362 57362 164
Width: 606
Flags: W
HStem: -10.0078 85.7998<209.743 396.542> 351.134 77.7168<214.111 392.521> 371.051 41.8828<155.216 450.784> 657.192 81.7998<221.402 387.64>
VStem: 45 100.4<135.776 293.012> 78 95.4004<473.587 611.885> 433.6 94.4004<473.587 611.885> 461.6 99.4004<135.776 293.012>
LayerCount: 2
Fore
SplineSet
173.400390625 541.611328125 m 0xd6
 173.400390625 477.086383811 214.111328125 428.850585938 303 428.850585938 c 0
 392.520507812 428.850585938 433.599609375 477.086383811 433.599609375 541.611328125 c 0
 433.599609375 606.701507572 394.188232215 657.192382812 303 657.192382812 c 0
 212.444081201 657.192382812 173.400390625 606.701507572 173.400390625 541.611328125 c 0xd6
78 547 m 0
 78 657.407226562 158.71257079 738.9921875 303 738.9921875 c 0
 447.28742921 738.9921875 528 657.407226562 528 547 c 0
 528 439.119385656 450.783864117 371.05078125 303 371.05078125 c 0xb6
 155.216135883 371.05078125 78 439.119385656 78 547 c 0
145.400390625 216.373046875 m 4xd9
 145.400390625 134.628905051 193.1548768 75.7919921875 303 75.7919921875 c 0
 413.467215837 75.7919921875 461.599609375 134.628905051 461.599609375 216.373046875 c 4
 461.599609375 295.246411161 411.452529091 351.133789062 303 351.133789062 c 0
 195.168971205 351.133789062 145.400390625 295.246411161 145.400390625 216.373046875 c 4xd9
45 208.692382812 m 4
 45 331.34692109 133.947265625 412.93359375 303 412.93359375 c 0xb9
 472.052734375 412.93359375 561 331.34692109 561 208.692382812 c 4
 561 80.2440331772 468.052734375 -10.0078125 303 -10.0078125 c 0
 137.947265625 -10.0078125 45 80.2440331772 45 208.692382812 c 4
EndSplineSet
Validated: 5
EndChar

StartChar: lessequal
Encoding: 8804 8804 166
Width: 550
VWidth: 0
Flags: W
HStem: 75 80<52.5 497.5>
LayerCount: 2
Fore
SplineSet
52.5 75 m 1
 52.5 155 l 1
 497.5 155 l 1
 497.5 75 l 1
 52.5 75 l 1
157.036132812 396 m 5
 487.5 277 l 5
 475.5 190 l 5
 62.5 352 l 5
 62.5 436 l 5
 475.5 598 l 5
 487.5 515 l 5
 157.036132812 396 l 5
EndSplineSet
Validated: 1
EndChar

StartChar: greaterequal
Encoding: 8805 8805 167
Width: 550
VWidth: 0
Flags: W
HStem: 75 80<52.5 497.5>
LayerCount: 2
Fore
SplineSet
497.5 75 m 1
 52.5 75 l 1
 52.5 155 l 1
 497.5 155 l 1
 497.5 75 l 1
392.963867188 396 m 5
 62.5 515 l 5
 74.5 598 l 5
 487.5 436 l 5
 487.5 352 l 5
 74.5 190 l 5
 62.5 277 l 5
 392.963867188 396 l 5
EndSplineSet
Validated: 1
EndChar

StartChar: kgreenlandic
Encoding: 312 312 168
Width: 534
VWidth: 0
Flags: W
HStem: 0 21G<65 164 386.21 529> 216 95<143 257> 501.008 20G<65 164 374.084 510>
VStem: 65 99<0 216 311 521.011> 143 21<216 311> 199 58<243 281>
AnchorPoint: "Anchor-0" 274 521.019 basechar 0
AnchorPoint: "Anchor-2" 283 0 basechar 0
LayerCount: 2
Fore
SplineSet
143 311 m 1xec
 257 311 l 1
 257 216 l 1
 143 216 l 1
 143 311 l 1xec
403 0 m 257
 199 243 l 1
 199 281 l 1
 390 521.0078125 l 257
 510 521.0078125 l 257
 304 271 l 5
 529 0 l 257
 403 0 l 257
65 0 m 257xf4
 65 521.010742188 l 257
 164 521.010742188 l 257
 164 0 l 257
 65 0 l 257xf4
EndSplineSet
Validated: 5
EndChar

StartChar: uni043D
Encoding: 1085 1085 169
Width: 581
VWidth: 0
Flags: W
HStem: 0 21G<65 165 416 516> 223 82<123.5 457.5> 501.011 20G<65 165 416 516>
VStem: 65 100<0 223 305 521.011> 123.5 41.5<223 305> 416 100<0 223 305 521.011> 416 41.5<223 305>
AnchorPoint: "Anchor-0" 288 521.019 basechar 0
AnchorPoint: "Anchor-2" 288 0 basechar 0
LayerCount: 2
Fore
SplineSet
416 0 m 257xe4
 416 521.010742188 l 257
 516 521.010742188 l 257
 516 0 l 257
 416 0 l 257xe4
65 0 m 261xf0
 65 521.010742188 l 261
 165 521.010742188 l 261
 165 0 l 261
 65 0 l 261xf0
123.5 305 m 1xea
 457.5 305 l 1
 457.5 223 l 1
 123.5 223 l 1
 123.5 305 l 1xea
EndSplineSet
Validated: 5
EndChar

StartChar: uni043F
Encoding: 1087 1087 170
Width: 580
VWidth: 0
Flags: W
HStem: 0 21G<65 165 415 515> 432.011 89<165 415>
VStem: 65 100<0 432.011> 415 100<0 432.011>
AnchorPoint: "Anchor-0" 288 521.019 basechar 0
AnchorPoint: "Anchor-2" 288 0 basechar 0
LayerCount: 2
Fore
SplineSet
165 432.010742188 m 1
 165 0 l 1
 65 0 l 1
 65 521.010742188 l 1
 515 521.010742188 l 1
 515 0 l 1
 415 0 l 1
 415 432.010742188 l 1
 165 432.010742188 l 1
EndSplineSet
Validated: 1
EndChar

StartChar: uni041F
Encoding: 1055 1055 171
Width: 723
VWidth: 0
Flags: W
HStem: 0 21G<70 178 545 653> 634.008 97<178 545>
VStem: 70 108<0 634.008> 545 108<0 634.008>
AnchorPoint: "Anchor-0" 359 731.008 basechar 0
AnchorPoint: "Anchor-2" 359 0 basechar 0
LayerCount: 2
Fore
SplineSet
70 731.0078125 m 1
 653 731.0078125 l 1
 653 0 l 1
 545 0 l 1
 545 634.0078125 l 1
 178 634.0078125 l 1
 178 0 l 1
 70 0 l 1
 70 731.0078125 l 1
EndSplineSet
Validated: 1
EndChar

StartChar: uni0416
Encoding: 1046 1046 172
Width: 942
VWidth: 0
Flags: W
HStem: 0 21G<2 141.674 419 525 799.86 940> 317 95<302 632> 711.008 20G<24 162.232 419 525 779.31 918>
VStem: 302 45<344 382> 419 106<0 731.008> 587 45<344 382>
LayerCount: 2
Fore
SplineSet
419 0 m 257
 419 731.0078125 l 257
 525 731.0078125 l 257
 525 0 l 257
 419 0 l 257
813 0 m 257
 587 344 l 1
 587 382 l 1
 791 731.0078125 l 257
 918 731.0078125 l 257
 689 372 l 1
 940 0 l 257
 813 0 l 257
632 412 m 1
 632 317 l 1
 302 317 l 1
 302 412 l 1
 632 412 l 1
129 0 m 257
 2 0 l 257
 245 372 l 1
 24 731.0078125 l 257
 151 731.0078125 l 257
 347 382 l 1
 347 344 l 1
 129 0 l 257
EndSplineSet
Validated: 5
EndChar

StartChar: uni0436
Encoding: 1078 1078 173
Width: 753
VWidth: 0
Flags: W
HStem: 0 21G<5 142.251 324 423 610.255 748> 216 95<231 516> 501.008 20G<24 153.416 324 423 599.084 729>
VStem: 231 59<243 281> 324 99<0 521.011> 457 59<243 281>
CounterMasks: 1 1c
AnchorPoint: "Anchor-2" 375 -0 basechar 0
AnchorPoint: "Anchor-0" 375 521.019 basechar 0
LayerCount: 2
Fore
SplineSet
129 0 m 257
 5 0 l 257
 194 271 l 5
 24 521.0078125 l 257
 141 521.0078125 l 257
 290 281 l 5
 290 243 l 5
 129 0 l 257
231 311 m 5
 516 311 l 5
 516 216 l 5
 231 216 l 5
 231 311 l 5
624 0 m 257
 457 243 l 5
 457 281 l 5
 612 521.0078125 l 257
 729 521.0078125 l 257
 553 271 l 5
 748 0 l 257
 624 0 l 257
324 0 m 257
 324 521.010742188 l 257
 423 521.010742188 l 257
 423 0 l 257
 324 0 l 257
EndSplineSet
Validated: 5
EndChar

StartChar: macron
Encoding: 175 175 175
Width: 395
VWidth: 0
Flags: W
HStem: 649.008 82<40 355>
VStem: 40 315<649.008 731.008>
LayerCount: 2
Fore
SplineSet
40 649.0078125 m 1
 40 731.0078125 l 1
 355 731.0078125 l 5
 355 649.0078125 l 5
 40 649.0078125 l 1
EndSplineSet
Validated: 1
EndChar

StartChar: uni0417
Encoding: 1047 1047 176
Width: 600
Flags: W
HStem: -9.99805 96.9893<146.665 378.77> 332 89.0391<161.645 376.238> 647.003 91.9893<159.996 369.927>
VStem: 421.011 105.989<463.799 599.86> 441.011 108.989<143.117 281.784>
AnchorPoint: "Anchor-0" 276.593 731 basechar 0
AnchorPoint: "Anchor-2" 275.593 0.0117188 basechar 0
LayerCount: 2
Fore
SplineSet
161.64453125 421.0390625 m 5xe8
 266.64453125 421.0390625 l 6
 359.897459041 421.0390625 421.010742188 446.085270277 421.010742188 529 c 4
 421.010742188 608.27128207 368.580630592 647.002929688 272.10546875 647.002929688 c 4
 153.502460351 647.002929688 89.4306640625 583.509646345 89.4306640625 583.505859375 c 5
 64 680.286132812 l 5
 64 680.286132812 132.150020915 738.9921875 285.10546875 738.9921875 c 4
 437.064020555 738.9921875 527 666.232563347 527 537 c 4xf0
 527 405.002762363 408.142578125 380.3671875 408.142578125 380.3671875 c 5
 408.142578125 380.3671875 550 358.283286475 550 202 c 4
 550 67.8264343995 448.909829778 -9.998046875 278.10546875 -9.998046875 c 4
 120.791814477 -9.998046875 40 47.7080078125 40 47.7080078125 c 5
 67.4306640625 146.48828125 l 5
 67.4306640625 146.484375 147.290116654 86.9912109375 275.10546875 86.9912109375 c 4
 381.749149343 86.9912109375 441.010742188 134.006392797 441.010742188 211 c 4
 441.010742188 290.904331252 386.498154645 332 274.638671875 332 c 6
 161.638671875 332 l 5
 161.64453125 421.0390625 l 5xe8
EndSplineSet
Validated: 1
EndChar

StartChar: uni0437
Encoding: 1079 1079 177
Width: 484
Flags: W
HStem: -8.33984 83.832<99.4496 305.97> 234.899 73.1074<143.645 300.805> 449.701 81.2324<113.525 299.815>
VStem: 323.011 97.9893<330.601 426.949> 338.011 100.989<106.995 207.159>
AnchorPoint: "Anchor-0" 222.913 523.341 basechar 0
AnchorPoint: "Anchor-2" 221.063 -0.488281 basechar 0
LayerCount: 2
Fore
SplineSet
143.64453125 308.006835938 m 1xe8
 205.64453125 308.006835938 l 2
 276.54568719 308.006835938 323.010742188 324.184286481 323.010742188 377.739257812 c 0
 323.010742188 426.081389682 284.664782318 449.701171875 214.10546875 449.701171875 c 0
 124.069795504 449.701171875 75.4306640625 403.986125049 75.4306640625 403.983398438 c 1
 55 488.665039062 l 1
 55 488.665039062 108.04704294 530.93359375 227.10546875 530.93359375 c 0
 348.910339738 530.93359375 421 478.906804097 421 386.499023438 c 0xf0
 421 291.461209851 332.142578125 273.723632812 332.142578125 273.723632812 c 1
 332.142578125 273.723632812 439 258.070793784 439 147.298828125 c 0
 439 48.7951114228 356.871589169 -8.33984375 218.10546875 -8.33984375 c 0
 97.1297072199 -8.33984375 35 33.208984375 35 33.208984375 c 1
 56.4306640625 118.330078125 l 1
 56.4306640625 118.327265625 117.063072547 75.4921875 214.10546875 75.4921875 c 0
 293.75160736 75.4921875 338.010742188 106.310392073 338.010742188 156.779296875 c 0
 338.010742188 208.367195397 296.931996546 234.899414062 212.638671875 234.899414062 c 2
 143.638671875 234.899414062 l 1
 143.64453125 308.006835938 l 1xe8
EndSplineSet
Validated: 1
EndChar

StartChar: uni0433
Encoding: 1075 1075 178
Width: 461
VWidth: 0
Flags: W
HStem: 0 21G<65 163> 437.011 84<163 421>
VStem: 65 98<0 437.011>
AnchorPoint: "Anchor-0" 256 521.019 basechar 0
AnchorPoint: "Anchor-2" 256 0 basechar 0
LayerCount: 2
Fore
SplineSet
163 437.010742188 m 1
 163 0 l 1
 65 0 l 1
 65 521.010742188 l 1
 421 521.010742188 l 1
 421 437.010742188 l 1
 163 437.010742188 l 1
EndSplineSet
Validated: 1
EndChar

StartChar: uni0442
Encoding: 1090 1090 179
Width: 480
VWidth: 0
Flags: W
HStem: 0 21G<203.5 301.5> 436.011 85<40 203.5 301.5 465> 436.011 55<203.5 301.5>
VStem: 203.5 98<0 491.011>
AnchorPoint: "Anchor-2" 252 0 basechar 0
AnchorPoint: "Anchor-0" 252 521.019 basechar 0
LayerCount: 2
Fore
SplineSet
40 521.010742188 m 1xd0
 465 521.010742188 l 1
 465 436.010742188 l 1
 40 436.010742188 l 1
 40 521.010742188 l 1xd0
203.5 0 m 257
 203.5 491.010742188 l 257
 301.5 491.010742188 l 257xb0
 301.5 0 l 257
 203.5 0 l 257
EndSplineSet
Validated: 5
EndChar

StartChar: uni0432
Encoding: 1074 1074 180
Width: 551
Flags: W
HStem: 0 80.96<163 377.818> 226.726 75.0801<129 365.418> 443.051 77.96<163 357.835>
VStem: 129 34<226.726 301.806> 383.6 98.4004<321.271 420.725> 403.6 102.4<104.508 202.081>
AnchorPoint: "Anchor-0" 257 521.017 basechar 0
AnchorPoint: "Anchor-2" 257 -1.43457 basechar 0
LayerCount: 2
Fore
SplineSet
65 521.010742188 m 1xf4
 291 521.010742188 l 2
 423.516490303 521.010742188 482 465.695335664 482 379.639648438 c 0xf8
 482 284.527085602 401.087890625 270.213867188 401.087890625 270.213867188 c 1
 401.087890625 270.213867188 506 256.59156194 506 142.850585938 c 0
 506 56.4225260223 438.899703125 -2.0580759319e-14 304 0 c 2
 65 0 l 1
 65 521.010742188 l 1xf4
129 301.805664062 m 1
 287 301.805664062 l 2
 346.614455658 301.805664062 383.599609375 320.409876199 383.599609375 367.575195312 c 0xf8
 383.599609375 423.711321511 342.778206522 443.05078125 277 443.05078125 c 2
 163 443.05078125 l 1
 163 80.9599609375 l 1
 287 80.9599609375 l 2
 358.514455984 80.9599609375 403.599609375 100.548645007 403.599609375 152.634765625 c 0xf4
 403.599609375 206.059206283 362.058213181 226.725585938 286 226.725585938 c 2
 129 226.725585938 l 1
 129 301.805664062 l 1
EndSplineSet
Validated: 5
EndChar

StartChar: uni043C
Encoding: 1084 1084 181
Width: 646
VWidth: 0
Flags: W
HStem: 0 21G<65 162 484 581> 501.011 20G<65 175.265 470.471 581>
VStem: 65 97<0 359.65> 484 97<0 359.65>
AnchorPoint: "Anchor-0" 321 521.011 basechar 0
AnchorPoint: "Anchor-2" 321 0 basechar 0
LayerCount: 2
Fore
SplineSet
65 0 m 1
 65 521.010742188 l 1
 165 521.010742188 l 1
 321 217.080078125 l 1
 481 521.010742188 l 1
 581 521.010742188 l 1
 581 0 l 1
 484 0 l 1
 484 359.650390625 l 1
 353 111.600585938 l 5
 289 111.600585938 l 1
 162 359.650390625 l 1
 162 0 l 1
 65 0 l 1
EndSplineSet
Validated: 1
EndChar

StartChar: uni0418
Encoding: 1048 1048 182
Width: 729
VWidth: 0
Flags: W
HStem: 0 21G<70 183.752 553 659> 711.008 20G<70 176 545.248 659>
VStem: 70 106<174 731.008> 553 106<0 557.008>
AnchorPoint: "Anchor-2" 367 0 basechar 0
AnchorPoint: "Anchor-0" 367 731.008 basechar 0
LayerCount: 2
Fore
SplineSet
659 0 m 1
 553 0 l 1
 553 557.0078125 l 5
 170 0 l 1
 70 0 l 1
 70 731.0078125 l 1
 176 731.0078125 l 1
 176 174 l 1
 559 731.0078125 l 1
 659 731.0078125 l 1
 659 0 l 1
EndSplineSet
Validated: 1
EndChar

StartChar: uni0438
Encoding: 1080 1080 183
Width: 585
VWidth: 0
Flags: W
HStem: 0 21G<65 175.773 423 520> 501.011 20G<65 162 409.227 520>
VStem: 65 97<142 521.011> 423 97<0 379.011>
AnchorPoint: "Anchor-0" 289 521.019 basechar 0
AnchorPoint: "Anchor-2" 289 0 basechar 0
LayerCount: 2
Fore
SplineSet
65 0 m 1
 65 521.010742188 l 1
 162 521.010742188 l 1
 162 142 l 1
 423 521.010742188 l 1
 520 521.010742188 l 1
 520 0 l 1
 423 0 l 1
 423 379.010742188 l 1
 162 0 l 1
 65 0 l 1
EndSplineSet
Validated: 1
EndChar

StartChar: uni0444
Encoding: 1092 1092 184
Width: 773
Flags: W
HStem: -10.0078 85.7998<242.995 364.808 406.808 529.53> 441.192 89.7998<242.995 364.808 406.808 528.754> 731.002 20G<335.5 437.5>
VStem: 45 100.4<164.994 354.775> 335.5 29.3076<-10.0078 75.792> 406.808 30.6924<-10.0078 75.792> 627.6 100.4<164.994 354.772>
AnchorPoint: "Anchor-2" 385.5 -189.988 basechar 0
AnchorPoint: "Anchor-0" 386.5 751.019 basechar 0
LayerCount: 2
Fore
SplineSet
364.807617188 530.9921875 m 1
 364.807617188 441.192382812 l 1
 232.1989413 441.192382812 145.400390625 391.723838038 145.400390625 259.373046875 c 0
 145.400390625 126.661627664 232.1989413 75.7919921875 364.807617188 75.7919921875 c 1
 364.807617188 -10.0078125 l 1
 177.149491513 -10.0078125 45 78.30078125 45 260.692382812 c 0
 45 443.017578125 177.15040522 530.9921875 364.807617188 530.9921875 c 1
335.5 -189.994140625 m 257
 335.5 751.001953125 l 257
 437.5 751.001953125 l 257
 437.5 -189.994140625 l 257
 335.5 -189.994140625 l 257
406.807617188 441.192382812 m 1
 406.807617188 530.9921875 l 1
 594.323749717 530.93359375 728 443.017578125 728 260.692382812 c 0
 728 78.30078125 596.206513806 -10.0078125 406.807617188 -10.0078125 c 1
 406.807617188 75.7919921875 l 1
 540.764003554 75.7919921875 627.599609375 126.660661626 627.599609375 259.373046875 c 0
 627.599609375 391.723838038 540.764003554 441.192382812 406.807617188 441.192382812 c 1
EndSplineSet
Validated: 5
EndChar

StartChar: uni0424
Encoding: 1060 1060 185
Width: 867
Flags: W
HStem: 0.00585938 21G<374.5 480.5> 89.9922 89.7998<264.911 390.808 468.808 597.748> 563.192 93.7998<264.912 390.808 468.808 602.794> 711.008 20G<374.5 480.5>
VStem: 50 105.4<277.518 468.271> 374.5 16.3076<89.9922 179.792> 468.808 11.6924<89.9922 179.792> 711.6 105.4<277.518 468.269>
AnchorPoint: "Anchor-0" 426 731.006 basechar 0
AnchorPoint: "Anchor-2" 428 0.00585938 basechar 0
LayerCount: 2
Fore
SplineSet
390.807617188 89.9921875 m 1
 180.826256563 89.9921875 50 187.239605251 50 373.692382812 c 0
 50 560.083755389 180.827213471 656.9921875 390.807617188 656.9921875 c 1
 390.807617188 563.192382812 l 1
 243.528618004 563.192382812 155.400390625 506.186804994 155.400390625 372.373046875 c 0
 155.400390625 238.209245031 243.528618004 179.791992188 390.807617188 179.791992188 c 1
 390.807617188 89.9921875 l 1
374.5 0.005859375 m 257
 374.5 731.0078125 l 257
 480.5 731.0078125 l 257
 480.5 0.005859375 l 257
 374.5 0.005859375 l 257
468.807617188 89.9921875 m 1
 468.807617188 179.791992188 l 1
 621.112392159 179.791992188 711.599609375 238.208123363 711.599609375 372.373046875 c 0
 711.599609375 506.186804994 621.112392159 563.192382812 468.807617188 563.192382812 c 1
 468.807617188 656.9921875 l 1
 682.086174283 656.931095352 817 560.083755389 817 373.692382812 c 0
 817 187.239605252 684.127173632 89.9921875 468.807617188 89.9921875 c 1
EndSplineSet
Validated: 5
EndChar

StartChar: uni042E
Encoding: 1070 1070 186
Width: 1065
VWidth: 0
Flags: W
HStem: -10.0078 95.7998<561.485 768.735> 0 21G<70 178> 316 92<150 383> 638.192 100.8<561.485 768.734> 711.008 20G<70 178>
VStem: 70 355.4<192.622 533.519> 70 108<0 316 408 731.008> 150 28<316 408> 315 68<316 408> 905.6 109.4<236.519 491.127>
AnchorPoint: "Anchor-0" 526 731.008 basechar 0
AnchorPoint: "Anchor-2" 526 0 basechar 0
LayerCount: 2
Fore
SplineSet
425.400390625 363.373046875 m 0xb440
 425.400390625 192.622359081 517.137439496 85.7919921875 665 85.7919921875 c 0
 813.479746959 85.7919921875 905.599609375 192.623346313 905.599609375 363.373046875 c 0
 905.599609375 533.519492169 813.479746959 638.192382812 665 638.192382812 c 0
 517.137439496 638.192382812 425.400390625 533.519492169 425.400390625 363.373046875 c 0xb440
315 364.692382812 m 0xb0c0
 315 589.47265625 454.924900968 738.9921875 665 738.9921875 c 0
 875.075099032 738.9921875 1015 589.47265625 1015 364.692382812 c 0
 1015 139.911132812 875.07606184 -10.0078125 665 -10.0078125 c 0
 454.92393816 -10.0078125 315 139.911132812 315 364.692382812 c 0xb0c0
150 408 m 5x21c0
 383 408 l 5
 383 316 l 5
 150 316 l 5
 150 408 l 5x21c0
70 0 m 257x6a40
 70 731.0078125 l 257
 178 731.0078125 l 257
 178 0 l 257
 70 0 l 257x6a40
EndSplineSet
Validated: 5
EndChar

StartChar: one.tosf
Encoding: 57365 57365 188
Width: 600
VWidth: 0
Flags: W
HStem: 0 87<65 256 353 525> 40 47<256 353>
VStem: 256 97<40 453.958>
LayerCount: 2
Fore
SplineSet
65 87 m 1xa0
 525 87 l 1
 525 0 l 1
 65 0 l 1
 65 87 l 1xa0
353 550.958007812 m 1
 353 39 l 1
 256 40 l 1x60
 256 453.958007812 l 1
 205.263262128 416.277732275 94 361.958007812 94 361.958007812 c 1
 67 439.958007812 l 1
 67 439.958007812 193.674782986 503.118803581 263 550.958007812 c 1
 353 550.958007812 l 1
EndSplineSet
Validated: 5
EndChar

StartChar: two.tosf
Encoding: 57366 57366 189
Width: 600
Flags: W
HStem: 0 93<187.287 540> 474.011 83.9893<178.302 383.104>
VStem: 420.127 101.989<323.019 438.711>
LayerCount: 2
Fore
SplineSet
70 33 m 2
 70 162.024378757 160.918895535 219.262395365 312.760742188 274.0390625 c 0
 383.669560664 299.619288454 420.126953125 326.067382812 420.126953125 381 c 0
 420.126953125 435.893554688 382.610829423 474.010742188 294.221679688 474.010742188 c 0
 181.539286601 474.010742188 111.134765625 416.517446816 111.134765625 416.513671875 c 1
 88.7041015625 506.293945312 l 1
 88.7041015625 506.293945312 161.153145834 558 302.221679688 558 c 0
 447.383426751 558 522.116210938 491.025390625 522.116210938 379.723632812 c 0
 522.116210938 290.186523438 474.509931344 241.560240156 362.766601562 201.452148438 c 0
 243.818726896 158.758125661 199.235592304 130.44168869 187.287109375 93 c 1
 540 93 l 1
 540 0 l 1
 70 0 l 1
 70 33 l 2
EndSplineSet
Validated: 1
EndChar

StartChar: three.tosf
Encoding: 57367 57367 190
Width: 600
Flags: W
HStem: -191.057 93.9893<127.782 369.925> 166.394 81.5869<174.645 366.073> 467.944 89.9893<159.561 369.785>
VStem: 412.011 103.989<287.791 426.497> 440.011 104.989<-32.9485 112.097>
LayerCount: 2
Fore
SplineSet
174.64453125 247.98046875 m 1xe8
 259.64453125 247.98046875 l 2
 352.874447605 247.98046875 412.010742188 273.026367188 412.010742188 355.94140625 c 0
 412.010742188 433.799339812 364.387622735 467.944335938 273.10546875 467.944335938 c 0
 151.90534843 467.944335938 86.4306640625 402.451171875 86.4306640625 402.447265625 c 1
 61 497.227539062 l 1
 61 497.227539062 129.150495091 557.93359375 282.10546875 557.93359375 c 0
 429.038357723 557.93359375 516 486.614809959 516 359.94140625 c 0xf0
 516 235.528320312 411.142578125 212.30859375 411.142578125 212.30859375 c 1
 411.142578125 212.30859375 545 189.729579163 545 29.94140625 c 0
 545 -109.928533441 435.746056197 -191.056640625 268.10546875 -191.056640625 c 0
 110.610387216 -191.056640625 45 -143.350585938 45 -143.350585938 c 5
 65.4306640625 -47.5703125 l 5
 65.4306640625 -47.57421875 137.189506418 -97.0673828125 265.10546875 -97.0673828125 c 0
 371.557847505 -97.0673828125 440.010742188 -48.09610109 440.010742188 36.94140625 c 0
 440.010742188 122.426814986 386.493767254 166.393554688 274.638671875 166.393554688 c 2
 174.638671875 166.393554688 l 1
 174.64453125 247.98046875 l 1xe8
EndSplineSet
Validated: 1
EndChar

StartChar: four.tosf
Encoding: 57368 57368 191
Width: 600
Flags: W
HStem: 0 91<120 564>
VStem: 357 98<-193 407>
LayerCount: 2
Fore
SplineSet
365 551 m 5
 455 551 l 5
 455 -193 l 1
 357 -193 l 1
 357 407 l 5
 120 91 l 1
 564 91 l 1
 564 0 l 1
 33 0 l 1
 15 82 l 1
 365 551 l 5
EndSplineSet
Validated: 5
EndChar

StartChar: five.tosf
Encoding: 57369 57369 192
Width: 600
Flags: W
HStem: -192.995 92.9893<120.625 352.233> 233.455 82.915<234.257 392.597> 454.011 94<199 523>
VStem: 446.011 103.989<-9.04855 177.744>
LayerCount: 2
Fore
SplineSet
339 316.370117188 m 0
 472.608734556 316.370117188 550 226.745826003 550 80.0029296875 c 0
 550 -88.5808002539 435.126001875 -192.995117188 258.10546875 -192.995117188 c 0
 104.230271486 -192.995117188 40 -145.2890625 40 -145.2890625 c 1
 60.4306640625 -50.5087890625 l 1
 60.4306640625 -50.5126953125 129.289402717 -100.005859375 252.10546875 -100.005859375 c 0
 379.860345048 -100.005859375 446.010742188 -25.0997718922 446.010742188 86.0029296875 c 0
 446.010742188 173.071289062 407.735734309 233.455078125 309.638671875 233.455078125 c 4
 188.532406455 233.455078125 153.638671875 135.455078125 153.638671875 135.455078125 c 1
 73.64453125 156.041992188 l 1
 119 548.010742188 l 1
 523 548.010742188 l 1
 523 454.010742188 l 1
 199 454.010742188 l 1
 172 246.002929688 l 1
 172 246.002929688 213.66687878 316.370117188 339 316.370117188 c 0
EndSplineSet
Validated: 1
EndChar

StartChar: seven.tosf
Encoding: 57371 57371 194
Width: 600
VWidth: 0
Flags: W
HStem: 456.958 91<56 441>
VStem: 152.5 110<-181.05 -90.8811>
LayerCount: 2
Fore
SplineSet
556 547.958007812 m 5
 556 473.950195312 l 5
 556 473.950195312 316.831894531 214.563476562 262.5 -181.049804688 c 5
 152.5 -181.049804688 l 5
 200.978810402 147.7578125 441 456.958007812 441 456.958007812 c 5
 56 456.958007812 l 5
 56 547.958007812 l 5
 556 547.958007812 l 5
EndSplineSet
Validated: 1
EndChar

StartChar: eight.tosf
Encoding: 57372 57372 195
Width: 600
Flags: W
HStem: -10.0078 85.7998<205.307 398.148> 351.134 77.7168<210.425 390.206> 371.051 41.8828<151.559 448.441> 657.192 81.7998<217.904 385.151>
VStem: 39 100.4<135.777 293.012> 74 95.4004<473.587 611.885> 431.6 94.4004<473.587 610.787> 461.6 99.4004<135.777 293.012>
LayerCount: 2
Fore
SplineSet
169.400390625 541.611328125 m 0xd6
 169.400390625 477.0859375 210.425456676 428.850585938 300 428.850585938 c 0
 390.205965512 428.850585938 431.599609375 477.0859375 431.599609375 541.611328125 c 4
 431.599609375 606.701171875 391.886705883 657.192382812 300 657.192382812 c 0
 208.745601856 657.192382812 169.400390625 606.701171875 169.400390625 541.611328125 c 0xd6
74 547 m 0
 74 657.407226562 155.071614583 738.9921875 300 738.9921875 c 0
 444.928385417 738.9921875 526 657.407226562 526 547 c 4
 526 439.119140625 448.440998264 371.05078125 300 371.05078125 c 0xb6
 151.559001736 371.05078125 74 439.119140625 74 547 c 0
139.400390625 216.373046875 m 0xd9
 139.400390625 134.62890625 188.064315338 75.7919921875 300 75.7919921875 c 0
 412.556337902 75.7919921875 461.599609375 134.62890625 461.599609375 216.373046875 c 0
 461.599609375 295.24609375 410.503581266 351.133789062 300 351.133789062 c 0
 190.116318626 351.133789062 139.400390625 295.24609375 139.400390625 216.373046875 c 0xd9
39 208.692382812 m 0
 39 331.346679688 128.981536156 412.93359375 300 412.93359375 c 0xb9
 471.018463844 412.93359375 561 331.346679688 561 208.692382812 c 0
 561 80.244140625 466.971952217 -10.0078125 300 -10.0078125 c 0
 133.028047783 -10.0078125 39 80.244140625 39 208.692382812 c 0
EndSplineSet
Validated: 5
EndChar

StartChar: uni0404
Encoding: 1028 1028 197
Width: 678
Flags: W
HStem: -10.0078 98.7998<298.239 545.421> 314 97<150 504> 637.192 101.8<300.904 537.81>
VStem: 50 110.4<229.211 485.572>
AnchorPoint: "Anchor-0" 396 731.008 basechar 0
AnchorPoint: "Anchor-2" 395 0 basechar 0
LayerCount: 2
Fore
SplineSet
150 411 m 1
 504 411 l 1
 504 314 l 1
 150 314 l 1
 150 411 l 1
EndSplineSet
Refer: 10 67 N 1 0 0 1 0 0 3
Validated: 5
EndChar

StartChar: uni0454
Encoding: 1108 1108 198
Width: 510
Flags: W
HStem: -10.0078 86.7998<228.438 416.227> 225 78<111 385> 442.192 88.7998<228.049 415.684>
VStem: 45 103.4<159.5 359.232>
AnchorPoint: "Anchor-0" 299 523.008 basechar 0
AnchorPoint: "Anchor-2" 298 0 basechar 0
LayerCount: 2
Fore
SplineSet
111 303 m 1
 385 303 l 5
 385 225 l 5
 111 225 l 1
 111 303 l 1
EndSplineSet
Refer: 34 99 N 1 0 0 1 0 0 3
Validated: 5
EndChar

StartChar: uni042D
Encoding: 1069 1069 199
Width: 678
Flags: W
HStem: -10.0078 98.7998<132.579 379.761> 314 97<174 530> 637.192 101.8<140.19 377.096>
VStem: 517.6 12.4004<314 411>
AnchorPoint: "Anchor-0" 282 731.008 basechar 0
AnchorPoint: "Anchor-2" 283 0 basechar 0
LayerCount: 2
Fore
SplineSet
628 356.9921875 m 0
 628 132.518554688 498.357421875 -10.0078125 268 -10.0078125 c 0
 116.1015625 -10.0078125 40 45 40 45 c 1
 60.9150390625 148.7421875 l 5
 60.9150390625 148.7421875 126.842773438 88.7919921875 263 88.7919921875 c 4
 436.28014255 88.7919921875 517.599609375 193.179048696 517.599609375 355.791992188 c 0
 517.599609375 517.387732126 436.235670103 637.192382812 265 637.192382812 c 0
 128.486328125 637.192382812 71.5537109375 575.676757812 71.5537109375 575.676757812 c 1
 47.271484375 687.216796875 l 1
 47.271484375 687.216796875 116.22265625 738.9921875 268 738.9921875 c 0
 497.7265625 738.9921875 628 580.915039062 628 356.9921875 c 0
530 411 m 1
 530 314 l 1
 174 314 l 1
 174 411 l 1
 530 411 l 1
EndSplineSet
Validated: 5
EndChar

StartChar: uni044D
Encoding: 1101 1101 200
Width: 510
Flags: W
HStem: -10.0078 85.7998<93.7731 281.829> 225 78<125 399> 443.192 87.7998<94.3156 282.217>
VStem: 362.6 36.4004<225 303>
AnchorPoint: "Anchor-0" 211 523.008 basechar 0
AnchorPoint: "Anchor-2" 212 0 basechar 0
LayerCount: 2
Fore
SplineSet
465 261.9921875 m 0
 465 95.625 369.200195312 -10.0078125 202.15234375 -10.0078125 c 0
 91.126953125 -10.0078125 35 33 35 33 c 1
 52.9150390625 124.7421875 l 1
 52.9150390625 124.7421875 97.6884765625 75.7919921875 189.412109375 75.7919921875 c 0
 307.283203125 75.7919921875 362.599609375 148.120117188 362.599609375 260.791992188 c 0
 362.599609375 365.536132812 308.077148438 443.192382812 193.33203125 443.192382812 c 0
 97.05078125 443.192382812 56.5537109375 394.676757812 56.5537109375 394.676757812 c 1
 35.271484375 487.216796875 l 1
 35.271484375 487.216796875 87.40234375 530.9921875 201.171875 530.9921875 c 0
 368.372070312 530.9921875 465 419.67578125 465 261.9921875 c 0
399 303 m 1
 399 225 l 1
 125 225 l 5
 125 303 l 5
 399 303 l 1
EndSplineSet
Validated: 5
EndChar

StartChar: uni0423
Encoding: 1059 1059 201
Width: 634
VWidth: 0
Flags: W
HStem: 0 21G<156.5 286.007> 711.008 20G<10 145.244 496.081 624>
AnchorPoint: "Anchor-0" 309 731.008 basechar 0
AnchorPoint: "Anchor-2" 227 0 basechar 0
LayerCount: 2
Fore
SplineSet
276.5 0 m 5
 156.5 0 l 5
 264.5 221.092773438 l 1
 10 731.0078125 l 1
 136 731.0078125 l 1
 323.807617188 324.6875 l 1
 505 731.0078125 l 1
 624 731.0078125 l 1
 276.5 0 l 5
EndSplineSet
Validated: 1
EndChar

StartChar: uni042C
Encoding: 1068 1068 202
Width: 633
Flags: W
HStem: 0 97<180 410.698> 363.008 96<161 416.557> 711.008 20G<70 180>
VStem: 70 110<97 363.008 459.008 731.008> 161 19<363.008 459.008> 473.6 114.4<153.245 309.661>
AnchorPoint: "Anchor-0" 312 731.015 basechar 0
AnchorPoint: "Anchor-2" 302 0 basechar 0
LayerCount: 2
Fore
SplineSet
161 459.0078125 m 1xec
 327 459.0078125 l 2
 505.605680279 459.0078125 588 368.269035194 588 233.015625 c 4
 588 93.5838732109 505.776829027 0 327 0 c 2
 70 0 l 1
 70 731.0078125 l 1
 180 731.0078125 l 1
 180 97 l 1xf4
 313 97 l 2
 412.099154318 97 473.599609375 135.616418807 473.599609375 232.215820312 c 4
 473.599609375 326.398646629 412.109633331 363.0078125 313 363.0078125 c 2
 161 363.0078125 l 1
 161 459.0078125 l 1xec
EndSplineSet
Validated: 5
EndChar

StartChar: uni044C
Encoding: 1100 1100 203
Width: 529
Flags: W
HStem: 0 80.96<163 351.22> 259.726 82.0801<129 353.523> 501.011 20G<65 163>
VStem: 65 98<80.96 259.726 341.806 521.011> 129 34<259.726 341.806> 383.6 102.4<113.22 230.965>
AnchorPoint: "Anchor-0" 257 521.017 basechar 0
AnchorPoint: "Anchor-2" 247 -1.43457 basechar 0
LayerCount: 2
Fore
SplineSet
129 341.805664062 m 1xec
 267 341.805664062 l 6
 417.767519959 341.805664062 486 288.542244172 486 170.850585938 c 0
 486 62.0557025929 410.451027964 -1.88321580552e-14 278 0 c 6
 65 0 l 1
 65 521.010742188 l 1
 163 521.010742188 l 1
 163 80.9599609375 l 1xf4
 261 80.9599609375 l 6
 343.291988515 80.9599609375 383.599609375 111.429070176 383.599609375 173.634765625 c 0
 383.599609375 232.558412757 344.596008517 259.725585938 260 259.725585938 c 6
 129 259.725585938 l 1
 129 341.805664062 l 1xec
EndSplineSet
Validated: 5
EndChar

StartChar: uni0411
Encoding: 1041 1041 204
Width: 636
Flags: W
HStem: 0 97<180 418.487> 355.008 93<161 418.449> 633.008 98<180 541>
VStem: 161 19<355.008 448.008> 476.6 114.4<150.808 303.29>
AnchorPoint: "Anchor-0" 312 731.015 basechar 0
AnchorPoint: "Anchor-2" 302 0 basechar 0
LayerCount: 2
Fore
SplineSet
161 448.0078125 m 1
 327 448.0078125 l 2
 507.658619134 448.0078125 591 360.079625454 591 229.015625 c 0
 591 91.9773908437 507.831735108 0 327 0 c 2
 70 0 l 1
 70 731.0078125 l 1
 541 731.0078125 l 29
 541 633.0078125 l 5
 180 633.0078125 l 1
 180 97 l 1
 313 96 l 2
 413.950326087 96 476.599609375 133.759645862 476.599609375 228.215820312 c 0
 476.599609375 319.518261531 413.961000848 355.0078125 313 355.0078125 c 2
 161 355.0078125 l 1
 161 448.0078125 l 1
EndSplineSet
Validated: 5
EndChar

StartChar: uni0431
Encoding: 1073 1073 205
Width: 612
Flags: W
HStem: -10.0078 87.7998<228.995 388.742> 445.192 76.7998<225.37 389.46>
VStem: 45 102.4<173.558 378.807> 466.6 100.4<161.33 364.553>
AnchorPoint: "Anchor-0" 314 751.019 basechar 0
AnchorPoint: "Anchor-2" 308 0 basechar 0
LayerCount: 2
Fore
SplineSet
147.400390625 274.373046875 m 6
 147.400390625 159.129882812 205.19921875 77.7919921875 304.807617188 77.7919921875 c 0
 404.420898438 77.7919921875 466.599609375 148.060546875 466.599609375 260.373046875 c 0
 466.599609375 372.322778552 410.060297677 445.192382812 309.807617188 445.192382812 c 0
 219.02299467 445.192382812 147.400390625 398.055664062 147.400390625 295.373046875 c 6
 147.400390625 274.373046875 l 6
131.966796875 423.109375 m 1
 131.966796875 423.109375 183.758789062 521.9921875 335.807617188 521.9921875 c 0
 484.1171875 521.9921875 567 411.560546875 567 259.692382812 c 0
 567 98.5009765625 461.118164062 -10.0078125 305.807617188 -10.0078125 c 0
 150.498046875 -10.0078125 45 108.30078125 45 324 c 0
 45 525.512782949 75.983960362 702.89637202 357.931640625 730.140625 c 0
 468.738673807 740.847770528 529.407226562 754.924804688 529.407226562 754.924804688 c 1
 539.11328125 660.213867188 l 1
 539.11328125 660.213867188 524.471801751 648.740164968 401.91796875 637.508789062 c 0
 364.494374157 634.079125148 334.32265963 629.650022081 296.62109375 622.53125 c 0
 165.494550565 597.772066848 140.071193356 504.157776792 131.966796875 423.109375 c 1
EndSplineSet
Validated: 1
EndChar

StartChar: uni042B
Encoding: 1067 1067 206
Width: 845
Flags: W
HStem: 0 97<180 402.301> 363.008 96<161 409.142> 710.992 20.0156G<70 180 693 800>
VStem: 70 110<97 363.008 459.008 731.008> 161 19<363.008 459.008> 468.6 114.4<155.922 309.671> 693 107<0 730.992>
LayerCount: 2
Fore
SplineSet
693 0 m 261xe6
 693 730.9921875 l 261
 800 730.9921875 l 261
 800 0 l 261
 693 0 l 261xe6
161 459.0078125 m 1xee
 317 459.0078125 l 2
 499.027646448 459.0078125 583 370.276836956 583 238.015625 c 4
 583 95.591796875 499.202101591 0 317 0 c 2
 70 0 l 1
 70 731.0078125 l 1
 180 731.0078125 l 1
 180 97 l 1xf6
 303 97 l 2
 405.184250702 97 468.599609375 137.044486341 468.599609375 237.215820312 c 4
 468.599609375 327.798068393 405.195625995 363.0078125 303 363.0078125 c 2
 161 363.0078125 l 1
 161 459.0078125 l 1xee
EndSplineSet
Validated: 5
EndChar

StartChar: uni044B
Encoding: 1099 1099 207
Width: 730
Flags: W
HStem: 0 80.96<163 351.22> 259.726 82.0801<129 353.523> 501.011 20G<65 163 586 687>
VStem: 65 98<80.96 259.726 341.806 521.011> 129 34<259.726 341.806> 383.6 102.4<113.22 230.965> 586 101<0 521.011>
AnchorPoint: "Anchor-0" 397 521.017 basechar 0
AnchorPoint: "Anchor-2" 387 -1.43457 basechar 0
LayerCount: 2
Fore
SplineSet
586 0 m 257xe6
 586 521.010742188 l 261
 687 521.010742188 l 257
 687 0 l 257
 586 0 l 257xe6
129 341.805664062 m 1xee
 267 341.805664062 l 2
 417.767519959 341.805664062 486 288.542244172 486 170.850585938 c 4
 486 62.0557025929 410.451027964 -1.88321580552e-14 278 0 c 2
 65 0 l 1
 65 521.010742188 l 1
 163 521.010742188 l 1
 163 80.9599609375 l 1xf6
 261 80.9599609375 l 2
 343.291988515 80.9599609375 383.599609375 111.429070176 383.599609375 173.634765625 c 0
 383.599609375 232.558412757 344.596008517 259.725585938 260 259.725585938 c 2
 129 259.725585938 l 1
 129 341.805664062 l 1xee
EndSplineSet
Validated: 5
EndChar

StartChar: uni044E
Encoding: 1102 1102 208
Width: 842
Flags: W
HStem: -10.0078 84.7998<453.441 620.069> 0 21G<65 166> 218 84<130 324> 442.192 88.7998<453.441 620.069> 501.011 20G<65 166>
VStem: 65 310.4<145.831 372.561> 65 101<0 218 302 521.011> 130 36<218 302> 276 48<218 302> 697.6 99.4004<157.315 359.227>
AnchorPoint: "Anchor-0" 397 523.008 basechar 0
AnchorPoint: "Anchor-2" 397 0 basechar 0
LayerCount: 2
Fore
SplineSet
130 302 m 1x21c0
 324 302 l 1
 324 218 l 1
 130 218 l 1
 130 302 l 1x21c0
375.400390625 259.373046875 m 0xb440
 375.400390625 145.831054688 437.19921875 74.7919921875 536.807617188 74.7919921875 c 0
 636.420898438 74.7919921875 697.599609375 145.830078125 697.599609375 259.373046875 c 0
 697.599609375 372.560546875 636.420898438 442.192382812 536.807617188 442.192382812 c 0
 437.19921875 442.192382812 375.400390625 372.560546875 375.400390625 259.373046875 c 0xb440
276 260.692382812 m 0xb0c0
 276 423.017578125 381.498046875 530.9921875 536.807617188 530.9921875 c 0
 692.1171875 530.9921875 797 423.017578125 797 260.692382812 c 0
 797 98.30078125 692.118164062 -10.0078125 536.807617188 -10.0078125 c 0
 381.498046875 -10.0078125 276 98.30078125 276 260.692382812 c 0xb0c0
65 0 m 257x6a40
 65 521.010742188 l 257
 166 521.010742188 l 257
 166 0 l 257
 65 0 l 257x6a40
EndSplineSet
Validated: 5
EndChar

StartChar: uni041B
Encoding: 1051 1051 209
Width: 774
VWidth: 0
Flags: W
HStem: -10.0088 103.998<37.6534 125.466> 0 21G<596 704> 634.008 97<283.126 596>
VStem: 596 108<0 634.008>
AnchorPoint: "Anchor-0" 457 731.008 basechar 0
AnchorPoint: "Anchor-2" 417 0 basechar 0
LayerCount: 2
Fore
SplineSet
106 -10.0087890625 m 4xb0
 57 -10.0087890625 30 4.9892578125 30 4.9892578125 c 5
 39 104.989257812 l 5
 39 104.989257812 53.8046875 93.9892578125 78 93.9892578125 c 4xb0
 125.490110966 93.9892578125 163.187391562 122.319109206 170.6875 349.240234375 c 4
 177.512221554 555.709384909 179.512695312 731.0078125 179.512695312 731.0078125 c 5
 704 731.0078125 l 5
 704 0 l 5
 596 0 l 5x70
 596 634.0078125 l 5
 283.125976562 634.0078125 l 5
 277.626551478 75 243.891352686 -10.0087890625 106 -10.0087890625 c 4xb0
EndSplineSet
Validated: 1
EndChar

StartChar: uni0414
Encoding: 1044 1044 210
Width: 868
VWidth: 0
Flags: W
HStem: 0 101<142 623> 30 71<84 270.891 623 731> 634.008 97<310.126 623>
VStem: 40 102<-159 0> 623 108<30 634.008> 726 102<-159 0>
AnchorPoint: "Anchor-0" 464 731.008 basechar 0
AnchorPoint: "Anchor-2" 434 0 basechar 0
LayerCount: 2
Fore
SplineSet
133 29.9912109375 m 0x78
 84 29.9912109375 57 44.9892578125 57 44.9892578125 c 1
 66 101 l 1
 66 101 80.8046875 101 105 101 c 0
 152.490110966 101 190.392543906 129.545019775 197.6875 349.240234375 c 0
 204.543251916 555.708356883 206.512695312 731.0078125 206.512695312 731.0078125 c 1
 731 731.0078125 l 1
 731 30 l 5
 623 30 l 1
 623 634.0078125 l 1
 310.125976562 634.0078125 l 1
 304.626551478 109.7200871 270.891352686 29.9912109375 133 29.9912109375 c 0x78
828 101 m 1x74
 828 -159 l 1
 726 -159 l 1
 726 0 l 1
 142 0 l 1xb4
 142 -159 l 1
 40 -159 l 1
 40 101 l 1
 828 101 l 1x74
EndSplineSet
Validated: 5
EndChar

StartChar: uni043B
Encoding: 1083 1083 211
Width: 613
VWidth: 0
Flags: W
HStem: -9.99805 89.1982<32.1703 105.154> 0 21G<448 548> 433.578 87.8398<234.411 448>
VStem: 140.129 94.2822<261.183 433.578> 448 100<0 433.171>
AnchorPoint: "Anchor-0" 349.643 521.418 basechar 0
AnchorPoint: "Anchor-2" 317.643 0.407227 basechar 0
LayerCount: 2
Fore
SplineSet
81.642578125 -9.998046875 m 4xb8
 45.471045661 -9.998046875 25 2 25 2 c 5
 33.48046875 86.1201171875 l 5
 33.48046875 86.1201171875 44.8949238802 79.2001953125 64.4404296875 79.2001953125 c 4xb8
 120.135872643 79.2001953125 140.12890625 120 140.12890625 521.41796875 c 5
 548 521.010742188 l 5
 548 0 l 5
 448 0 l 5x78
 448 433.170898438 l 5
 234.411132812 433.578125 l 5
 230.139797593 80 204.963789422 -9.998046875 81.642578125 -9.998046875 c 4xb8
EndSplineSet
Validated: 1
EndChar

StartChar: uni0434
Encoding: 1076 1076 212
Width: 689
VWidth: 0
Flags: W
HStem: 0 91<127 473> 20.002 70.998<70.471 229.964> 40 51<473 573> 433.578 87.8398<259.411 473>
VStem: 35 92<-130 0> 165.129 94.2822<268.127 433.578> 473 100<40 433.171> 562 92<-130 0>
AnchorPoint: "Anchor-0" 369.643 521.418 basechar 0
AnchorPoint: "Anchor-2" 344.643 0.407227 basechar 0
LayerCount: 2
Fore
SplineSet
106.642578125 20.001953125 m 0x5e
 70.471045661 20.001953125 50 32 50 32 c 1
 59 91 l 1x3e
 59 91 70.4292169086 91 90 91 c 0x5e
 145.283682568 91 165.12890625 130.71113355 165.12890625 521.41796875 c 1
 573 521.010742188 l 1
 573 40 l 1
 473 40 l 1x3e
 473 433.170898438 l 1
 259.411132812 433.578125 l 1
 255.139797593 103.913240662 229.963789422 20.001953125 106.642578125 20.001953125 c 0x5e
654 91 m 1x3d
 654 -130 l 1
 562 -130 l 1
 562 0 l 1
 127 0 l 1x9d
 127 -130 l 1
 35 -130 l 1
 35 91 l 1
 654 91 l 1x3d
EndSplineSet
Validated: 5
EndChar

StartChar: uni0426
Encoding: 1062 1062 213
Width: 790
VWidth: 0
Flags: W
HStem: 0 97<178 545 648 653> 711.008 20G<70 178 545 653>
VStem: 70 108<97 731.008> 545 108<98 731.008> 648 102<-159 0> 648 5<0 98>
AnchorPoint: "Anchor-2" 359 0 basechar 0
AnchorPoint: "Anchor-0" 359 731.008 basechar 0
LayerCount: 2
Fore
SplineSet
648 -159 m 1xe8
 648 98 l 1xe4
 750 98 l 1
 750 -159 l 1
 648 -159 l 1xe8
70 0 m 1
 70 731.0078125 l 1
 178 731.0078125 l 1
 178 97 l 1
 545 97 l 1
 545 731.0078125 l 1
 653 731.0078125 l 1xf0
 653 0 l 1
 70 0 l 1
EndSplineSet
Validated: 5
EndChar

StartChar: uni0446
Encoding: 1094 1094 214
Width: 631
VWidth: 0
Flags: W
HStem: 0 89<165 415 504 515> 501.011 20G<65 165 415 515>
VStem: 65 100<89 521.011> 415 100<90 521.011> 504 92<-130 0> 504 11<0 90>
AnchorPoint: "Anchor-2" 288 0 basechar 0
AnchorPoint: "Anchor-0" 288 521.019 basechar 0
LayerCount: 2
Fore
SplineSet
504 -130 m 1xe8
 504 90 l 1xe4
 596 90 l 1
 596 -130 l 1
 504 -130 l 1xe8
165 89 m 1
 415 89 l 1
 415 521.010742188 l 1
 515 521.010742188 l 1xf0
 515 0 l 1
 65 0 l 1
 65 521.010742188 l 1
 165 521.010742188 l 1
 165 89 l 1
EndSplineSet
Validated: 5
EndChar

StartChar: uni0428
Encoding: 1064 1064 215
Width: 1000
VWidth: 0
Flags: W
HStem: 30 67<445.5 551.5> 711.008 20G<70 178 445.5 551.5 822 930>
VStem: 70 108<97 731.008> 445.5 106<30 731.008> 822 108<97 731.008>
AnchorPoint: "Anchor-2" 499 0 basechar 0
AnchorPoint: "Anchor-0" 499 731.008 basechar 0
LayerCount: 2
Fore
SplineSet
70 0 m 1
 70 731.0078125 l 1
 178 731.0078125 l 1
 178 97 l 1
 822 97 l 1
 822 731.0078125 l 1
 930 731.0078125 l 1
 930 0 l 1
 70 0 l 1
445.5 30 m 257
 445.5 731.0078125 l 257
 551.5 731.0078125 l 257
 551.5 30 l 257
 445.5 30 l 257
EndSplineSet
Validated: 5
EndChar

StartChar: uni0448
Encoding: 1096 1096 216
Width: 830
VWidth: 0
Flags: W
HStem: 30 59<361 460> 501.011 20G<65 165 361 460 665 765>
VStem: 65 100<89 521.011> 361 99<30 521.011> 665 100<89 521.011>
AnchorPoint: "Anchor-0" 412 521.019 basechar 0
AnchorPoint: "Anchor-2" 412 -4.99995e-10 basechar 0
LayerCount: 2
Fore
SplineSet
361 30 m 257
 361 521.010742188 l 257
 460 521.010742188 l 257
 460 30 l 257
 361 30 l 257
165 89 m 1
 665 89 l 1
 665 521.010742188 l 1
 765 521.010742188 l 1
 765 0 l 1
 65 0 l 1
 65 521.010742188 l 1
 165 521.010742188 l 1
 165 89 l 1
EndSplineSet
Validated: 5
EndChar

StartChar: uni0429
Encoding: 1065 1065 217
Width: 1067
VWidth: 0
Flags: W
HStem: 30 67<445.5 551.5> 711.008 20G<70 178 445.5 551.5 822 930>
VStem: 70 108<97 731.008> 445.5 106<30 731.008> 822 108<97 731.008> 925 102<-159 98>
AnchorPoint: "Anchor-0" 499 731.008 basechar 0
AnchorPoint: "Anchor-2" 499 0 basechar 0
LayerCount: 2
Fore
SplineSet
925 -159 m 1xf4
 925 98 l 1
 1027 98 l 1
 1027 -159 l 1
 925 -159 l 1xf4
EndSplineSet
Refer: 215 1064 N 1 0 0 1 0 0 2
Validated: 5
EndChar

StartChar: uni0449
Encoding: 1097 1097 218
Width: 881
VWidth: 0
Flags: W
HStem: 30 59<361 460> 501.011 20G<65 165 361 460 665 765>
VStem: 65 100<89 521.011> 361 99<30 521.011> 665 100<89 521.011> 754 92<-130 90>
AnchorPoint: "Anchor-2" 412 -4.99995e-10 basechar 0
AnchorPoint: "Anchor-0" 412 521.019 basechar 0
LayerCount: 2
Fore
SplineSet
754 -130 m 1xf4
 754 90 l 1
 846 90 l 1
 846 -130 l 1
 754 -130 l 1xf4
EndSplineSet
Refer: 216 1096 N 1 0 0 1 0 0 2
Validated: 5
EndChar

StartChar: uni042F
Encoding: 1071 1071 219
Width: 654
Flags: W
HStem: 0 21G<5 151.958 474 584> 284 90<245.251 493> 284 71<257 320> 641.008 90<237.245 474>
VStem: 64 114.4<428.042 585.942> 474 110<0 284 374 641.008> 474 19<284 374>
AnchorPoint: "Anchor-0" 362 731.015 basechar 0
AnchorPoint: "Anchor-2" 352 0 basechar 0
LayerCount: 2
Fore
SplineSet
257 355 m 1xb8
 369 355 l 1
 139 0 l 1
 5 0 l 1
 257 355 l 1xb8
493 284 m 1xda
 320 284 l 2
 144.815884477 284 64 366.75390625 64 505.9921875 c 0
 64 648.061373224 147.168264892 731.0078125 328 731.0078125 c 2
 584 731.0078125 l 1
 584 0 l 1
 474 0 l 1
 474 641.0078125 l 5xdc
 353 641.0078125 l 6
 245.268430153 641.0078125 178.400390625 610.708076102 178.400390625 506.791992188 c 4
 178.400390625 404.27461791 245.250844365 374 353 374 c 6
 493 374 l 5
 493 284 l 1xda
EndSplineSet
Validated: 5
EndChar

StartChar: uni044F
Encoding: 1103 1103 220
Width: 531
Flags: W
HStem: 0 21G<5 137.362 369 466> 192.205 76.0801<188.879 402> 440.051 80.96<183.251 369>
VStem: 49 103.4<296.162 413.051> 369 97<0 192.205 268.285 440.051> 369 33<192.205 268.285>
AnchorPoint: "Anchor-0" 261 521.017 basechar 0
AnchorPoint: "Anchor-2" 247 -1.43457 basechar 0
LayerCount: 2
Fore
SplineSet
172 229 m 1xf0
 277 229 l 1
 124 0 l 1
 5 0 l 1
 172 229 l 1xf0
402 192.205078125 m 1xf4
 260 192.205078125 l 2
 114.739969354 192.205078125 49 244.222242672 49 359.16015625 c 4
 49 462.2239855 121.643242342 521.010742188 249 521.010742188 c 2
 466 521.010742188 l 1
 466 0 l 1
 369 0 l 1
 369 440.05078125 l 1xf8
 267 440.05078125 l 2
 190.077815773 440.05078125 152.400390625 412.540642188 152.400390625 356.375976562 c 4
 152.400390625 296.083457653 188.879478594 268.28515625 268 268.28515625 c 2
 402 268.28515625 l 1
 402 192.205078125 l 1xf4
EndSplineSet
Validated: 5
EndChar

StartChar: uni044A
Encoding: 1098 1098 221
Width: 654
Flags: W
HStem: 0 80.96<290 476.22> 259.726 82.0801<256 478.523> 437.011 84<40 192>
VStem: 192 98<80.96 259.726 341.806 437.011> 256 34<259.726 341.806> 508.6 102.4<113.22 230.965>
AnchorPoint: "Anchor-0" 362 521.017 basechar 0
AnchorPoint: "Anchor-2" 352 -1.43457 basechar 0
LayerCount: 2
Fore
SplineSet
256 341.805664062 m 5xec
 392 341.805664062 l 6
 542.767519959 341.805664062 611 288.542244172 611 170.850585938 c 4
 611 62.0557025927 535.451027964 -1.62092561595e-14 403 0 c 6
 192 0 l 5
 192 437.010742188 l 5xf4
 40 437.010742188 l 5
 40 521.010742188 l 5
 290 521.010742188 l 5xec
 290 80.9599609375 l 5xf4
 386 80.9599609375 l 6
 468.291988515 80.9599609375 508.599609375 111.429070176 508.599609375 173.634765625 c 4
 508.599609375 232.558412757 469.596008517 259.725585938 385 259.725585938 c 6
 256 259.725585938 l 5
 256 341.805664062 l 5xec
EndSplineSet
Validated: 5
EndChar

StartChar: uni042A
Encoding: 1066 1066 222
Width: 793
Flags: W
HStem: 0 97<340 570.698> 363.008 96<306 576.557> 636.008 95<45 230>
VStem: 230 110<97 363.008 459.008 636.008> 306 34<363.008 459.008> 633.6 114.4<153.245 309.661>
AnchorPoint: "Anchor-0" 427 731.015 basechar 0
AnchorPoint: "Anchor-2" 417 0 basechar 0
LayerCount: 2
Fore
SplineSet
306 459.0078125 m 5xec
 487 459.0078125 l 6
 665.605680279 459.0078125 748 368.269035194 748 233.015625 c 4
 748 93.5838732109 665.776829027 -2.22599716437e-14 487 0 c 6
 230 0 l 5
 230 636.0078125 l 5xf4
 45 636.0078125 l 1
 45 731.0078125 l 1
 340 731.0078125 l 5xec
 340 97 l 5xf4
 473 97 l 6
 572.099154318 97 633.599609375 135.616418807 633.599609375 232.215820312 c 4
 633.599609375 326.398646629 572.109633331 363.0078125 473 363.0078125 c 6
 306 363.0078125 l 5
 306 459.0078125 l 5xec
EndSplineSet
Validated: 5
EndChar

StartChar: uni0427
Encoding: 1063 1063 223
Width: 687
Flags: W
HStem: 0 21G<509 617> 258 96<230.605 451.033> 711.008 19.9922G<68 180.4 509 617>
VStem: 68 112.4<407.872 731> 509 108<0 315 411 731.008>
AnchorPoint: "Anchor-2" 344 0 basechar 0
AnchorPoint: "Anchor-0" 350 731.015 basechar 0
LayerCount: 2
Fore
SplineSet
509 0 m 257
 509 731.0078125 l 257
 617 731.0078125 l 257
 617 0 l 257
 509 0 l 257
68 731 m 1
 180.400390625 731 l 1
 180.400390625 517 l 2
 180.400390625 381.228395062 233.428964657 354 329 354 c 0
 450.512558695 354 531 411 531 411 c 1
 531 315 l 1
 531 315 447.461097044 258 304 258 c 0
 146.15148278 258 68 338.133479101 68 504.9921875 c 2
 68 731 l 1
EndSplineSet
Validated: 5
EndChar

StartChar: uni0447
Encoding: 1095 1095 224
Width: 571
VWidth: 0
Flags: W
HStem: -0.0185547 21G<408 506> 163 82.1729<197.042 382.186> 500.992 20G<63 162.4 408 506>
VStem: 63 99.4004<283.857 520.992> 408 98<-0.0185547 212.992 299.992 520.992>
AnchorPoint: "Anchor-0" 293 521.019 basechar 0
AnchorPoint: "Anchor-2" 291 0 basechar 0
LayerCount: 2
Back
SplineSet
512 0 m 261xe4
 512 731.0078125 l 261
 620 731.0078125 l 261
 620 0 l 261
 512 0 l 261xe4
68 731 m 5
 180.400390625 731 l 5
 180.400390625 515 l 6
 180.400390625 389.228395062 236.997518724 352 339 352 c 4
 460.512558695 352 541 409 541 409 c 5xec
 541 313 l 5xec
 541 313 457.461097044 256 314 256 c 4
 149.462986288 256 68 346.133479101 68 502.9921875 c 6
 68 731 l 5
EndSplineSet
Fore
SplineSet
438 299.9921875 m 1
 438 212.9921875 l 1
 438 212.9921875 372.42387483 163 261 163 c 0
 123.3984375 163 63 220.69467987 63 367.9921875 c 2
 63 520.9921875 l 1
 162.400390625 520.9921875 l 1
 162.400390625 373.619140625 l 6
 162.400390625 273.502432822 199.268853356 245.172851562 284 245.172851562 c 0
 382.646085151 245.172851562 438 299.9921875 438 299.9921875 c 1
506 520.9921875 m 257
 506 -0.0185546875 l 257
 408 -0.0185546875 l 257
 408 520.9921875 l 257
 506 520.9921875 l 257
EndSplineSet
Validated: 5
EndChar

StartChar: uni040F
Encoding: 1039 1039 225
Width: 723
VWidth: 0
Flags: W
HStem: 0 97<178 310.5 412.5 545> 0 68<310.5 412.5> 711.008 20G<70 178 545 653>
VStem: 70 108<97 731.008> 310.5 102<-159 68> 545 108<97 731.008>
CounterMasks: 1 1c
AnchorPoint: "Anchor-2" 359 0 basechar 0
AnchorPoint: "Anchor-0" 359 731.008 basechar 0
LayerCount: 2
Fore
SplineSet
70 0 m 1x7c
 70 731.0078125 l 1
 178 731.0078125 l 1
 178 97 l 1
 545 97 l 1xbc
 545 731.0078125 l 1
 653 731.0078125 l 1
 653 0 l 1
 70 0 l 1x7c
310.5 -159 m 1
 310.5 68 l 1
 412.5 68 l 1x7c
 412.5 -159 l 1
 310.5 -159 l 1
EndSplineSet
Validated: 5
EndChar

StartChar: uni045F
Encoding: 1119 1119 226
Width: 580
VWidth: 0
Flags: W
HStem: 0 89<165 244 336 415> 0 60<244 336> 501.011 20G<65 165 415 515>
VStem: 65 100<89 521.011> 244 92<-130 60> 415 100<89 521.011>
CounterMasks: 1 1c
AnchorPoint: "Anchor-2" 288 0 basechar 0
AnchorPoint: "Anchor-0" 288 521.019 basechar 0
LayerCount: 2
Fore
SplineSet
165 89 m 1xbc
 415 89 l 1xbc
 415 521.010742188 l 1
 515 521.010742188 l 1
 515 0 l 1
 65 0 l 1x7c
 65 521.010742188 l 1
 165 521.010742188 l 1
 165 89 l 1xbc
244 -130 m 1
 244 60 l 5
 336 60 l 5x7c
 336 -130 l 1
 244 -130 l 1
EndSplineSet
Validated: 5
EndChar

StartChar: uni0409
Encoding: 1033 1033 227
Width: 1142
Flags: W
HStem: -10.0088 103.998<37.6541 133.169> 0 94<694 919.698> 356.008 93<665 925.557> 634.008 97<299.126 584>
VStem: 201.513 97.6133<483.31 634.008> 584 110<94 356.008 449.008 634.008> 665 29<356.008 449.008> 982.6 114.4<149.147 302.687>
LayerCount: 2
Fore
SplineSet
665 449.0078125 m 1x7b
 836 449.0078125 l 2
 1014.60568028 449.0078125 1097 359.875086771 1097 227.015625 c 4
 1097 91.1741496601 1014.77682903 -2.16909823436e-14 836 0 c 2
 584 0 l 1
 584 634.0078125 l 1x7d
 299.125976562 634.0078125 l 1
 284.504523593 108 256.347242475 -10.0087890625 106 -10.0087890625 c 0
 57 -10.0087890625 30 4.9892578125 30 4.9892578125 c 1
 39 104.989257812 l 1
 39 104.989257812 55.8046875 93.9892578125 78 93.9892578125 c 0
 148.737032817 93.9892578125 191.901761933 114 201.512695312 731.0078125 c 1
 694 731.0078125 l 1xbb
 694 94 l 1x7d
 822 94 l 2
 921.093552331 94 982.599609375 131.759645863 982.599609375 226.215820312 c 4
 982.599609375 319.678550355 921.109633331 356.0078125 822 356.0078125 c 2
 665 356.0078125 l 1
 665 449.0078125 l 1x7b
EndSplineSet
Validated: 5
EndChar

StartChar: uni040A
Encoding: 1034 1034 228
Width: 1089
Flags: W
HStem: 0 93<651 870.86> 331.008 94<162 598> 344.008 92<623 870.795> 711.008 20G<70 178 541 651>
VStem: 70 108<0 331.008 425.008 731.008> 162 16<331.008 425.008> 541 110<93 331.008 344.008 425.008 436.008 731.008> 929.6 114.4<146.709 294.791>
AnchorPoint: "Anchor-0" 552 731.008 basechar 0
AnchorPoint: "Anchor-2" 552 0 basechar 0
LayerCount: 2
Fore
SplineSet
70 0 m 257x9b
 70 731.0078125 l 257
 178 731.0078125 l 257
 178 0 l 257
 70 0 l 257x9b
162 425.0078125 m 1xd7
 598 425.0078125 l 1xd7
 623 436.0078125 l 1
 779 436.0078125 l 2
 960.342932084 436.0078125 1044 350.488702821 1044 223.015625 c 4
 1044 89.5676672929 960.516703801 -2.1302404285e-14 779 0 c 2
 541 0 l 1
 541 731.0078125 l 1
 651 731.0078125 l 1
 651 93 l 1
 765 93 l 2
 866.567383343 93 929.599609375 129.902872919 929.599609375 222.215820312 c 4
 929.599609375 309.917780158 866.578123354 344.0078125 765 344.0078125 c 2
 623 344.0078125 l 1xb7
 598 331.0078125 l 1
 162 331.0078125 l 1
 162 425.0078125 l 1xd7
EndSplineSet
Validated: 5
EndChar

StartChar: uni0459
Encoding: 1113 1113 229
Width: 893
Flags: W
HStem: -9.99805 89.1982<31.9575 113.587> 0 80.96<541 718.099> 245.726 76.0801<507 720.649> 433.578 87.8398<247.411 441>
VStem: 158.129 89.2822<271.876 433.578> 441 100<80.96 245.726 321.806 433.171> 507 34<245.726 321.806> 748.6 101.4<108.202 217.878>
AnchorPoint: "Anchor-0" 455 521.017 basechar 0
AnchorPoint: "Anchor-2" 457 -1.43457 basechar 0
LayerCount: 2
Fore
SplineSet
507 321.805664062 m 1x7b
 635 321.805664062 l 2
 783.013775302 321.805664062 850 271.65788253 850 160.850585938 c 0
 850 58.4235404756 775.903892811 -1.52794443764e-14 646 0 c 2
 441 0 l 1
 441 433.170898438 l 1x7d
 247.411132812 433.578125 l 1
 238 80 217 -9.998046875 89.642578125 -9.998046875 c 0
 48.3623046875 -9.998046875 25 2 25 2 c 1
 33.48046875 89.1201171875 l 1
 33.48046875 89.1201171875 49.419921875 79.2001953125 70.4404296875 79.2001953125 c 0
 129.364623765 79.2001953125 148.12890625 120 158.12890625 521.41796875 c 1
 541 521.010742188 l 1xbb
 541 80.9599609375 l 1x7d
 630 80.9599609375 l 2
 709.607086371 80.9599609375 748.599609375 108.141325536 748.599609375 163.634765625 c 0
 748.599609375 219.820669201 710.858264961 245.725585938 629 245.725585938 c 2
 507 245.725585938 l 1
 507 321.805664062 l 1x7b
EndSplineSet
Validated: 5
EndChar

StartChar: uni045A
Encoding: 1114 1114 230
Width: 852
Flags: W
HStem: 0 78.96<504 679.647> 227.726 81.0801<132 462> 238.726 76.0801<476 681.27> 501.011 20G<65 165 404 504>
VStem: 65 100<0 227.726 308.806 521.011> 132 33<227.726 308.806> 404 100<78.96 227.726 238.726 308.806 314.806 521.011> 708.6 100.4<104.552 212.776>
AnchorPoint: "Anchor-2" 428 0 basechar 0
AnchorPoint: "Anchor-0" 428 521.019 basechar 0
LayerCount: 2
Fore
SplineSet
65 0 m 257x9b
 65 521.010742188 l 257
 165 521.010742188 l 257
 165 0 l 257
 65 0 l 257x9b
132 308.805664062 m 1xd7
 463 308.805664062 l 1xd7
 476 314.805664062 l 1
 606 314.805664062 l 2
 744.375669003 314.805664062 809 264.904296875 809 156.850585938 c 4
 809 56.333984375 737.988919775 -1.7402745911e-14 617 0 c 2
 404 0 l 1
 404 521.010742188 l 1
 504 521.010742188 l 1
 504 78.9599609375 l 1
 600 78.9599609375 l 2
 671.552379939 78.9599609375 708.599609375 104.8125 708.599609375 159.634765625 c 4
 708.599609375 213.083007812 672.645034294 238.725585938 599 238.725585938 c 2
 476 238.725585938 l 1xb7
 462 227.725585938 l 1
 132 227.725585938 l 1
 132 308.805664062 l 1xd7
EndSplineSet
Validated: 5
EndChar

StartChar: uni040B
Encoding: 1035 1035 231
Width: 831
Flags: W
HStem: 0.0078125 20.9922G<234 342 650.6 761> 395.008 85<390.171 591.929> 635.008 96<45 234 342 583> 635.008 56<234 342>
VStem: 234 108<0 321.008 413.008 691.008> 301 41<321.008 413.008> 650.6 110.4<0.0078125 328.768>
AnchorPoint: "Anchor-2" 452 731.008 basechar 0
AnchorPoint: "Anchor-0" 455 -0.00683594 basechar 0
LayerCount: 2
Fore
SplineSet
583 635.0078125 m 257xe2
 45 635.0078125 l 257
 45 731.0078125 l 257
 583 731.0078125 l 257
 583 635.0078125 l 257xe2
342 691.0078125 m 261xda
 342 0 l 261
 234 0 l 261
 234 691.0078125 l 261
 342 691.0078125 l 261xda
761 0.0078125 m 1
 650.599609375 0.0078125 l 1
 650.599609375 204.0078125 l 2
 650.599609375 359.543788904 598.166262364 395.0078125 493 395.0078125 c 4
 377.502784653 395.0078125 301 321.0078125 301 321.0078125 c 5
 301 413.0078125 l 5xc6
 301 413.0078125 382.698995044 480.0078125 523 480.0078125 c 4
 682.18630907 480.0078125 761 400.521028996 761 216.015625 c 2
 761 0.0078125 l 1
EndSplineSet
Validated: 5
EndChar

StartChar: uni045B
Encoding: 1115 1115 232
Width: 647
VWidth: 0
Flags: W
HStem: 0 21G<123 222 486.6 586> 435.819 88.1729<297.803 444.947> 587 79<38 364> 731.002 20G<123 222>
VStem: 123 99<0 751.002> 172 50<263.692 420.012> 486.6 99.4004<0 390.124>
AnchorPoint: "Anchor-0" 172 751.019 basechar 0
AnchorPoint: "Anchor-2" 351 0 basechar 0
LayerCount: 2
Fore
SplineSet
123 0 m 257xfa
 123 751.001953125 l 257
 222 751.001953125 l 257
 222 0 l 257
 123 0 l 257xfa
38 587 m 1
 38 666 l 1
 364 666 l 1
 364 587 l 1
 38 587 l 1
222 247 m 1
 172 263.692382812 l 1xf6
 172 420.01171875 256.099609375 523.9921875 399 523.9921875 c 0
 528.95703125 523.9921875 586 448.100585938 586 307 c 2
 586 0 l 1
 486.599609375 0 l 1
 486.599609375 298.373046875 l 2
 486.599609375 390.40625 451.854492188 435.819335938 372 435.819335938 c 0
 282.51953125 435.819335938 222 369 222 247 c 1
EndSplineSet
Validated: 5
EndChar

StartChar: uni0402
Encoding: 1026 1026 233
Width: 844
Flags: W
HStem: -10 87.4004<457.746 612.595> 0 21G<224 332> 400.008 85<383.171 590.498> 635.008 96<45 224 332 583> 635.008 56<224 332>
VStem: 224 108<0 326.008 418.008 691.008> 294 38<326.008 418.008> 663.6 110.4<130.465 327.612>
AnchorPoint: "Anchor-2" 452 731.008 basechar 0
AnchorPoint: "Anchor-0" 455 -0.00683594 basechar 0
LayerCount: 2
Fore
SplineSet
583 635.0078125 m 257x31
 45 635.0078125 l 257
 45 731.0078125 l 257
 583 731.0078125 l 257
 583 635.0078125 l 257x31
332 691.0078125 m 257x6d
 332 0 l 257
 224 0 l 257
 224 691.0078125 l 257
 332 691.0078125 l 257x6d
555 -10 m 0xa3
 489.237771538 -10 448 3 448 3 c 1
 460 92 l 1
 460 92 489.692679539 77.400390625 537 77.400390625 c 0
 614.32305546 77.400390625 663.599609375 120.511307339 663.599609375 230 c 0
 663.599609375 351.481585292 595.880431574 400.0078125 486 400.0078125 c 0
 370.502784653 400.0078125 294 326.0078125 294 326.0078125 c 1
 294 418.0078125 l 1
 294 418.0078125 375.698995044 485.0078125 516 485.0078125 c 0
 688.563309832 485.0078125 774 384.735873253 774 228.015625 c 0
 774 84.4023059642 699.134308439 -10 555 -10 c 0xa3
EndSplineSet
Validated: 5
EndChar

StartChar: uni0452
Encoding: 1106 1106 234
Width: 589
VWidth: 0
Flags: W
HStem: -200.009 90.998<285.728 411.585> 0 21G<65 164> 435.819 88.1729<239.803 386.947> 587 79<-30 321> 731.002 20G<65 164>
VStem: 65 99<0 751.002> 114 50<263.692 420.012> 428.6 99.4004<-92.3415 390.124>
AnchorPoint: "Anchor-0" 114 751.019 basechar 0
AnchorPoint: "Anchor-2" 268 -190 basechar 0
LayerCount: 2
Fore
SplineSet
65 0 m 257xfd
 65 751.001953125 l 257
 164 751.001953125 l 257
 164 0 l 257
 65 0 l 257xfd
-30 587 m 1
 -30 666 l 1
 321 666 l 1
 321 587 l 1
 -30 587 l 1
164 247 m 1
 114 263.692382812 l 1xfb
 114 420.01171875 198.099609375 523.9921875 341 523.9921875 c 0
 470.95703125 523.9921875 528 448.100585938 528 307 c 2
 528 -43.0107421875 l 2
 528 -147.677734375 484.100585938 -200.008789062 373 -200.008789062 c 0
 305.655273438 -200.008789062 280 -180.010742188 280 -180.010742188 c 1
 287 -94.0107421875 l 1
 287 -94.0107421875 317.4921875 -109.010742188 350 -109.010742188 c 0
 392.682115645 -109.010742188 428.599608944 -93.7460937129 428.599609375 -32.0107421875 c 2
 428.599609375 298.373046875 l 2
 428.599609375 390.40625 393.854492188 435.819335938 314 435.819335938 c 0
 224.51953125 435.819335938 164 369 164 247 c 1
EndSplineSet
Validated: 5
EndChar

StartChar: uni0490
Encoding: 1168 1168 235
Width: 591
VWidth: 0
Flags: W
HStem: 0 21G<70 177> 633.008 98<177 444>
VStem: 70 107<0 633.008> 444 102<731.008 860.008>
AnchorPoint: "Anchor-0" 302 731.015 basechar 0
AnchorPoint: "Anchor-2" 302 0 basechar 0
LayerCount: 2
Fore
SplineSet
546 633.0078125 m 1
 177 633.0078125 l 1
 177 0 l 1
 70 0 l 1
 70 731.0078125 l 1
 444 731.0078125 l 1
 444 860.0078125 l 1
 546 860.0078125 l 1
 546 633.0078125 l 1
EndSplineSet
Validated: 1
EndChar

StartChar: uni0491
Encoding: 1169 1169 236
Width: 470
VWidth: 0
Flags: W
HStem: 0 21G<65 163> 437.011 84<163 338>
VStem: 65 98<0 437.011> 338 92<521.011 627.011>
AnchorPoint: "Anchor-0" 256 521.019 basechar 0
AnchorPoint: "Anchor-2" 256 0 basechar 0
LayerCount: 2
Fore
SplineSet
163 437.010742188 m 1
 163 0 l 1
 65 0 l 1
 65 521.010742188 l 1
 338 521.010742188 l 1
 338 627.010742188 l 1
 430 627.010742188 l 1
 430 437.010742188 l 1
 163 437.010742188 l 1
EndSplineSet
Validated: 1
EndChar

StartChar: Thorn
Encoding: 222 222 237
Width: 644
Flags: W
HStem: 0 21G<70 178> 150 92<161 422.086> 498.008 91<161 423.606> 711.008 20G<70 178>
VStem: 70 108<0 150 242 498.008 589.008 731.008> 161 17<150 242 498.008 589.008> 479.6 114.4<294.334 449.003>
AnchorPoint: "Anchor-2" 302 0 basechar 0
AnchorPoint: "Anchor-0" 292 731.015 basechar 0
LayerCount: 2
Fore
SplineSet
70 0 m 257xfa
 70 731.0078125 l 257
 178 731.0078125 l 257
 178 0 l 257
 70 0 l 257xfa
161 150 m 1xf6
 161 242 l 1
 301 242 l 2
 409.983398438 242 479.599609375 269.408203125 479.599609375 370.791992188 c 0
 479.599609375 475.963867188 409.971679688 498.0078125 301 498.0078125 c 6
 161 498.0078125 l 5
 161 589.0078125 l 5
 315 589.0078125 l 6
 500.736328125 589.0078125 594 514.604492188 594 367.9921875 c 0
 594 226.75390625 500.5546875 150 315 150 c 2
 161 150 l 1xf6
EndSplineSet
Validated: 5
EndChar

StartChar: thorn
Encoding: 254 254 238
Width: 608
VWidth: 0
Flags: W
HStem: -10.0586 84.1729<233.188 392.624> 446.761 84.1729<233.69 392.606> 731.002 20G<65 165>
VStem: 65 100<-189.99 751> 127 38<75.946 205.241> 136 29<317.634 445.728> 462.548 100.452<152.641 370.136>
AnchorPoint: "Anchor-0" 114 751.019 basechar 0
AnchorPoint: "Anchor-2" 113 -189.988 basechar 0
LayerCount: 2
Fore
SplineSet
563 255.93359375 m 0xe6
 563 96.9226098079 476.870572805 -10.05859375 326.700195312 -10.05859375 c 0
 198.079682192 -10.05859375 127 75.9459833184 127 205.241210938 c 1xea
 165 241.93359375 l 1
 165 131.453915234 225.495075706 74.1142578125 314.940429688 74.1142578125 c 0
 406.628505466 74.1142578125 462.547851562 139.802495463 462.547851562 259.314453125 c 0
 462.547851562 387.639973728 404.480266879 446.760742188 309.059570312 446.760742188 c 0
 223.123026485 446.760742188 165 383.421084766 165 278.94140625 c 1xf2
 136 317.633789062 l 1
 136 445.727945201 202.331096276 530.93359375 330.620117188 530.93359375 c 0
 468.359419882 530.93359375 563 437.371129919 563 255.93359375 c 0xe6
65 -189.994140625 m 261xf2
 65 751.001953125 l 257
 165 751 l 257
 165 -189.99 l 257
 65 -189.994140625 l 261xf2
EndSplineSet
Validated: 5
EndChar

StartChar: Eth
Encoding: 208 208 239
Width: 800
Flags: W
HStem: 0 98<238 490.066> 325 89<40 428> 633.008 98<238 490.158>
VStem: 131 107<98 633.008> 638.6 111.4<239.467 491.32>
AnchorPoint: "Anchor-2" 363 0 basechar 0
AnchorPoint: "Anchor-0" 363 731.015 basechar 0
LayerCount: 2
Fore
SplineSet
40 325 m 1
 40 414 l 1
 428 414 l 1
 428 325 l 1
 40 325 l 1
EndSplineSet
Refer: 13 68 N 1 0 0 1 61 0 2
Validated: 5
EndChar

StartChar: eth
Encoding: 240 240 240
Width: 619
Flags: W
HStem: -10.0078 87.7998<225.465 389.358> 455.192 75.7998<229.519 391.831>
VStem: 45 100.4<162.712 367.979> 469.6 104.4<169.423 373.106>
AnchorPoint: "Anchor-0" 298 751.019 basechar 0
AnchorPoint: "Anchor-2" 304 0 basechar 0
LayerCount: 2
Fore
SplineSet
142 545 m 1
 129 616 l 1
 495 683 l 1
 508 612 l 1
 142 545 l 1
469.599609375 273.373046875 m 2
 469.599609375 284.373046875 l 2
 469.599609375 387.055664062 401.9765625 455.192382812 311.192382812 455.192382812 c 0
 210.939453125 455.192382812 145.400390625 383.323242188 145.400390625 263.373046875 c 0
 145.400390625 151.060546875 206.579101562 77.7919921875 306.192382812 77.7919921875 c 0
 405.80078125 77.7919921875 469.599609375 150.129882812 469.599609375 273.373046875 c 2
458.033203125 450.109375 m 1
 424.627846064 570.800143421 323.599588306 640.132090355 191 679 c 1
 232.592773438 756.924804688 l 1
 407.06903837 703.890460357 574 570.032426815 574 305 c 0
 574 100.30078125 456.501953125 -10.0078125 301.192382812 -10.0078125 c 0
 145.881835938 -10.0078125 45 106.500976562 45 267.692382812 c 0
 45 419.560546875 135.518103068 530.9921875 293.192382812 530.9921875 c 4
 422.289681621 530.9921875 458.033203125 450.109375 458.033203125 450.109375 c 1
EndSplineSet
Validated: 5
EndChar

StartChar: guilsinglleft
Encoding: 8249 8249 241
Width: 322
VWidth: 0
Flags: W
VStem: 35 276
LayerCount: 2
Fore
SplineSet
135.536132812 266 m 5
 311 58.5 l 5
 200.5 58.5 l 5
 35 243 l 5
 35 288 l 5
 199.5 472.5 l 5
 312 472.5 l 5
 135.536132812 266 l 5
EndSplineSet
Validated: 1
EndChar

StartChar: guilsinglright
Encoding: 8250 8250 242
Width: 322
VWidth: 0
Flags: W
VStem: 10 277
LayerCount: 2
Fore
SplineSet
186.463867188 266 m 1
 10 472.5 l 5
 122.5 472.5 l 1
 287 288 l 1
 287 243 l 1
 121.5 58.5 l 1
 11 58.5 l 1
 186.463867188 266 l 1
EndSplineSet
Validated: 1
EndChar

StartChar: asciitilde
Encoding: 126 126 245
Width: 550
Flags: W
HStem: 290 80<310.856 491.064> 359 80<58.9363 242.466>
LayerCount: 2
Fore
SplineSet
395 290 m 0x80
 289.727060547 290 247.015380859 359 152 359 c 0
 78.4575195313 359 35 322 35 322 c 1
 15 395 l 1
 15 395 66.999609375 439 155 439 c 0x40
 265.202880859 439 307.914560547 370 398 370 c 0
 471.543359375 370 515 407 515 407 c 1
 535 334 l 1
 535 334 483.000390625 290 395 290 c 0x80
EndSplineSet
Validated: 1
EndChar

StartChar: asciicircum
Encoding: 94 94 246
Width: 472
VWidth: 0
Flags: W
HStem: 711.008 20G<180.66 291.34>
LayerCount: 2
Fore
SplineSet
236 646.471679688 m 5
 102 397.0078125 l 1
 10 410.0078125 l 1
 192 731.0078125 l 1
 280 731.0078125 l 1
 462 410.0078125 l 1
 370 397.0078125 l 1
 236 646.471679688 l 5
EndSplineSet
Validated: 1
EndChar

StartChar: Eng
Encoding: 330 330 247
Width: 749
VWidth: 0
Flags: W
HStem: -9.99805 95.2979<366.778 522.985> 0 21G<70 178> 646.008 93<287.506 483.368> 711.008 20G<70 178>
VStem: 70 108<0 731.008> 130 48<420 649.292> 575 108<143.522 539.098>
AnchorPoint: "Anchor-0" 372 731.008 basechar 0
AnchorPoint: "Anchor-2" 368 0 basechar 0
LayerCount: 2
Back
SplineSet
70 0 m 257xf0
 70 731.0078125 l 257
 178 731.0078125 l 257
 178 0 l 257
 70 0 l 257xf0
390 646.0078125 m 0
 289.372571873 646.0078125 178 600.388350057 178 400 c 1
 130 420 l 1
 130 649.291528202 241.518806744 739.0078125 407 739.0078125 c 0
 614.45890411 739.0078125 673 606.57895344 673 421.0078125 c 6
 673 0 l 1
 565 0 l 1
 565 405.0078125 l 6
 565 568.564054757 521.089487656 646.0078125 390 646.0078125 c 0
EndSplineSet
Fore
SplineSet
70 0 m 257x5a
 70 731.0078125 l 257
 178 731.0078125 l 257
 178 0 l 257
 70 0 l 257x5a
390 646.0078125 m 0xa6
 289.372571873 646.0078125 178 600.388350057 178 400 c 1xaa
 130 420 l 1
 130 649.291528202 241.518806744 739.0078125 407 739.0078125 c 0
 622.258111031 739.0078125 683 594.546432783 683 391.0078125 c 6
 683 266.399414062 l 6
 683 44.2367955353 585.669027549 -9.998046875 460 -9.998046875 c 0
 393.038099692 -9.998046875 357 10 357 10 c 1
 369 102.200195312 l 1
 369 102.200195312 401.797345139 85.2998046875 445 85.2998046875 c 0
 537.059151786 85.2998046875 575 138.804793532 575 268.599609375 c 6
 575 370.0078125 l 6
 575 557.364900915 528.580315522 646.0078125 390 646.0078125 c 0xa6
EndSplineSet
Validated: 5
EndChar

StartChar: eng
Encoding: 331 331 248
Width: 589
VWidth: 0
Flags: W
HStem: -200.009 90.998<285.728 411.585> 0 21G<65 165> 442.819 88.1729<239.803 386.947> 501.011 20G<65 165>
VStem: 65 100<0 521.011> 114 50<270.692 427.012> 428.6 99.4004<-92.3415 397.124>
AnchorPoint: "Anchor-0" 295 521.019 basechar 0
AnchorPoint: "Anchor-2" 293 0 basechar 0
LayerCount: 2
Fore
SplineSet
65 0 m 257xda
 65 521.010742188 l 257
 165 521.010742188 l 261
 165 0 l 261
 65 0 l 257xda
164 254 m 5xe6
 114 270.692382812 l 5
 114 427.01171875 198.099609375 530.9921875 341 530.9921875 c 0
 470.95703125 530.9921875 528 455.100585938 528 314 c 2
 528 -43.0107421875 l 2
 528 -147.677734375 484.100585938 -200.008789062 373 -200.008789062 c 0
 305.655273438 -200.008789062 280 -180.010742188 280 -180.010742188 c 1
 287 -94.0107421875 l 1
 287 -94.0107421875 317.4921875 -109.010742188 350 -109.010742188 c 0
 392.682115645 -109.010742188 428.599608944 -93.7460937129 428.599609375 -32.0107421875 c 2
 428.599609375 305.373046875 l 2
 428.599609375 397.40625 393.854492188 442.819335938 314 442.819335938 c 0
 224.51953125 442.819335938 164 376 164 254 c 5xe6
EndSplineSet
Validated: 5
EndChar

StartChar: AE
Encoding: 198 198 249
Width: 1000
VWidth: 0
Flags: W
HStem: 0 97<602 955> 204 98<210 563> 322 97<575 890> 633.766 97.2422<467.092 495 602 955> 633.766 57.2422<495 602>
VStem: 495 68<204 302> 575 27<322 419>
AnchorPoint: "Anchor-0" 500 731.008 basechar 0
AnchorPoint: "Anchor-2" 472 0 basechar 0
LayerCount: 2
Fore
SplineSet
210 302 m 5xe6
 563 302 l 5
 563 204 l 5
 210 204 l 5
 210 302 l 5xe6
955 731.0078125 m 1xf6
 955 633.765625 l 1
 467.091796875 633.765625 l 1
 135 0 l 1
 10 0 l 1
 404 731.0078125 l 1
 955 731.0078125 l 1xf6
575 419 m 1
 890 419 l 1
 890 322 l 1
 575 322 l 1
 575 419 l 1
602 691.0078125 m 1xee
 602 97 l 1
 955 97 l 1
 955 0 l 1
 495 0 l 1
 495 691.0078125 l 1
 602 691.0078125 l 1xee
EndSplineSet
Validated: 5
EndChar

StartChar: ae
Encoding: 230 230 250
Width: 886
VWidth: 0
Flags: W
HStem: -10.0088 81.1729<176.358 320.915 559.946 745.719> 227 79<449 752.324> 255.811 69.1729<222.817 375> 447.192 83.7998<154.113 329.299 537.319 693.054>
VStem: 45 106.4<95.3612 205.394> 378 68<95.6248 419.676> 449 15.4004<227 306>
AnchorPoint: "Anchor-0" 439.729 523.008 basechar 0
AnchorPoint: "Anchor-2" 436 0 basechar 0
LayerCount: 2
Fore
SplineSet
378 261.9921875 m 0xde
 378 419.676080354 465.877332836 530.9921875 617.927734375 530.9921875 c 0
 776.448112519 530.9921875 851 428.249669746 851 257 c 0
 851 239.675 850.6484375 227 850.6484375 227 c 1
 449 227 l 1
 449 306 l 1
 752.32421875 306 l 1
 744.92181674 373.605894416 717.344131773 447.192382812 616.028320312 447.192382812 c 0
 513.240613511 447.192382812 464.400390625 368.684942449 464.400390625 262.791992188 c 0
 464.400390625 150.120102502 519.191060608 77.7919921875 645.408203125 77.7919921875 c 0
 753.528857359 77.7919921875 806.733398438 122.7421875 806.733398438 122.7421875 c 1
 822.6484375 30 l 1
 822.6484375 30 762.90609917 -10.0078125 639.528320312 -10.0078125 c 0
 473.38098944 -10.0078125 378 95.6248084128 378 261.9921875 c 0xde
370 322.010742188 m 2
 370 380.432520893 358.232960835 445.192382812 252.728515625 445.192382812 c 0
 154.913759848 445.192382812 108.282226562 397.676757812 108.282226562 397.676757812 c 1
 88 487.216796875 l 1
 88 487.216796875 145.317686332 530.9921875 258.728515625 530.9921875 c 0
 402.489933132 530.9921875 446 459.257668026 446 357.010742188 c 2
 446 192 l 2
 446 67.4015651737 360.538381792 -10.0087890625 232 -10.0087890625 c 4
 120.289225958 -10.0087890625 45 40.0046006941 45 136.991210938 c 0
 45 261.701427225 154.641693811 321.353093572 375 324.983398438 c 1
 391 255.810546875 l 1xbe
 236.9264971 252.475435938 151.400390625 230.24413826 151.400390625 152.610351562 c 0
 151.400390625 98.8523128337 186.818714643 71.1640625 245 71.1640625 c 4
 319.566847279 71.1640625 370 110.003546353 370 214 c 2
 370 322.010742188 l 2
EndSplineSet
Validated: 5
EndChar

StartChar: OE
Encoding: 338 338 251
Width: 1009
Flags: W
HStem: 0 97<318.711 501 608 959> 30 67<501 608> 322 97<581 894> 634.008 97<318.616 501 608 959> 634.008 67<501 608>
VStem: 50 111.4<242.392 488.402> 501 107<30 322 419 701.008> 581 27<322 419>
AnchorPoint: "Anchor-2" 489 0 basechar 0
AnchorPoint: "Anchor-0" 489 731.015 basechar 0
LayerCount: 2
Fore
SplineSet
581 419 m 1x25
 894 419 l 1
 894 322 l 1
 581 322 l 1
 581 419 l 1x25
608 30 m 1x6e
 501 30 l 1
 501 701.0078125 l 1
 608 701.0078125 l 1
 608 30 l 1x6e
448 731.0078125 m 6xb4
 959 731.0078125 l 1
 959 634.0078125 l 1
 455 634.0078125 l 6
 268.844938406 634.0078125 161.400390625 556.689453125 161.400390625 365.791992188 c 0
 161.400390625 174.338867187 268.825205525 97 455 97 c 6
 959 97 l 1
 959 0 l 1
 448 0 l 6
 170.692207792 0 50 147.470703125 50 364.9921875 c 0
 50 583.118164062 170.425689935 731.0078125 448 731.0078125 c 6xb4
EndSplineSet
Validated: 5
EndChar

StartChar: oe
Encoding: 339 339 252
Width: 981
Flags: W
HStem: -10.0078 87.7998<221.674 389.252 642.373 859.655> 227 79<544 847.324> 443.192 87.7998<222.704 390.245 626.179 793.739>
VStem: 45 100.4<160.982 359.726> 473 86.4004<122.872 394.181> 544 12<230.891 304.869>
AnchorPoint: "Anchor-2" 513 0 basechar 0
AnchorPoint: "Anchor-0" 513 523.008 basechar 0
LayerCount: 2
Fore
SplineSet
473 261.9921875 m 0xf8
 473 419.676080354 560.877332836 530.9921875 712.927734375 530.9921875 c 0
 871.448112519 530.9921875 946 428.249669746 946 257 c 0
 946 239.675 945.6484375 227 945.6484375 227 c 1
 544 227 l 1
 544 306 l 1xf4
 847.32421875 306 l 1
 839.92181674 373.605894416 812.344131773 447.192382812 711.028320312 447.192382812 c 0
 608.240613511 447.192382812 559.400390625 368.684942449 559.400390625 262.791992188 c 0
 559.400390625 150.120102502 614.191060608 77.7919921875 740.408203125 77.7919921875 c 0
 848.528857359 77.7919921875 901.733398438 122.7421875 901.733398438 122.7421875 c 1
 917.6484375 30 l 1
 917.6484375 30 857.90609917 -10.0078125 734.528320312 -10.0078125 c 0
 568.38098944 -10.0078125 473 95.6248084128 473 261.9921875 c 0xf8
145.400390625 260.373046875 m 0
 145.400390625 146.830575592 206.816540763 75.7919921875 305.807617188 75.7919921875 c 0
 404.801691092 75.7919921875 465.599609375 146.830271366 465.599609375 260.373046875 c 4
 465.599609375 373.560509513 404.801691092 443.192382812 305.807617188 443.192382812 c 0
 206.816540763 443.192382812 145.400390625 373.560244952 145.400390625 260.373046875 c 0
45 260.692382812 m 0
 45 423.017578125 150.498488216 530.9921875 305.807617188 530.9921875 c 0
 455.148293981 530.9921875 556 423.017578125 556 260.692382812 c 0
 556 98.3007812504 453.939696755 -10.0078125 302.807617188 -10.0078125 c 0
 149.284263809 -10.0078125 45 98.30078125 45 260.692382812 c 0
EndSplineSet
Validated: 5
EndChar

StartChar: uni1E9E
Encoding: 7838 7838 253
Width: 737
VWidth: 0
Flags: W
HStem: -9.99805 91.9893<309.358 522.098> 0 21G<70 177> 344.452 74.5869<445.239 518.531> 639.008 92<229.672 502.941>
VStem: 70 107<0 585.069> 580.483 106.517<136.658 289.979>
AnchorPoint: "Anchor-2" 302 0 basechar 0
AnchorPoint: "Anchor-0" 302 731.015 basechar 0
LayerCount: 2
Fore
SplineSet
338 731.0078125 m 2x7c
 635 731.0078125 l 5
 635 653.0078125 l 5
 445.239257812 419.0390625 l 1
 620.79679737 419.0390625 687 327.750765322 687 216.296875 c 0
 687 72.6126794357 598.567272887 -9.998046875 437.978515625 -9.998046875 c 0
 338.876456713 -9.998046875 279 17.2158203125 279 17.2158203125 c 1
 294.657226562 110.078125 l 1
 294.657226562 110.078125 346.986411956 81.9912109375 428.978515625 81.9912109375 c 0xbc
 515.224018018 81.9912109375 580.483398438 120.841211667 580.483398438 215 c 0
 580.483398438 285.564100971 542.223415956 344.452148438 409.233398438 344.452148438 c 2
 325 344.452148438 l 1
 325 409 l 1
 502.94140625 639.0078125 l 5
 344 639.0078125 l 2
 204.081081081 639.0078125 177 591.593072955 177 482 c 2
 177 0 l 1
 70 0 l 1
 70 500 l 2
 70 689.311071953 161.46031746 731.0078125 338 731.0078125 c 2x7c
EndSplineSet
Validated: 1
EndChar

StartChar: germandbls
Encoding: 223 223 254
Width: 658
VWidth: 0
Flags: W
HStem: -9.99805 88.9893<247.935 448.097> 0.00195312 21G<65 167> 363.452 79.5869<276.645 392.193> 676.013 84.998<221.413 392.06>
VStem: 65 102<0.00195312 618.801> 439.011 102.989<485.454 629.885> 508.011 104.989<137.446 297.105>
AnchorPoint: "Anchor-0" 303 751.019 basechar 0
AnchorPoint: "Anchor-2" 313 0 basechar 0
LayerCount: 2
Fore
SplineSet
311 761.010742188 m 0x7c
 457.370992298 761.010742188 542 686.029296875 542 567 c 0x7c
 542 440.41796875 437.142578125 411.3671875 437.142578125 411.3671875 c 1
 437.142578125 411.3671875 613 400.012853426 613 216 c 0
 613 72.9658342851 519.987500603 -9.998046875 371.10546875 -9.998046875 c 0
 283.824844127 -9.998046875 239 11.7080078125 239 11.7080078125 c 1
 250.430664062 99.48828125 l 1
 250.430664062 99.4869355252 291.451487558 78.9912109375 357.10546875 78.9912109375 c 0
 454.107170063 78.9912109375 508.010742188 131.314182278 508.010742188 217 c 0xba
 508.010742188 315.693173348 443.013671875 363.452148438 309.638671875 363.452148438 c 2
 276.638671875 363.452148438 l 1
 276.64453125 443.0390625 l 1
 303.64453125 443.0390625 l 2
 386.627929688 443.0390625 439.010742188 475.606445312 439.010742188 558 c 0
 439.010742188 633.171875 392.862181334 676.012695312 308 676.012695312 c 0
 227.513631292 676.012695312 167 642.43328683 167 518.012695312 c 2
 167 0.001953125 l 1
 65 0.001953125 l 1
 65 528.012695312 l 2
 65 683.346065032 144.672233266 761.010742188 311 761.010742188 c 0x7c
EndSplineSet
Validated: 1
EndChar

StartChar: longs
Encoding: 383 383 255
Width: 352
VWidth: 0
Flags: W
HStem: 0.00195312 21G<66 167> 676.013 84.998<188.184 328.92>
VStem: 66 101<0.00195312 653.061>
AnchorPoint: "Anchor-0" 202 751.019 basechar 0
AnchorPoint: "Anchor-2" 163 0 basechar 0
LayerCount: 2
Fore
SplineSet
235 761.010742188 m 0
 307.413793103 761.010742188 335 740.012695312 335 740.012695312 c 1
 327 655.012695312 l 1
 327 655.012695312 299.866510538 676.012695312 255 676.012695312 c 0
 201.64371308 676.012695312 167 657.377544722 167 582.012695312 c 2
 167 0.001953125 l 1
 66 0.001953125 l 1
 66 591.012695312 l 2
 66 704.34597715 113.86465242 761.010742188 235 761.010742188 c 0
EndSplineSet
Validated: 1
EndChar

StartChar: uni0259
Encoding: 601 601 256
Width: 568
Flags: W
HStem: -10.0078 83.7998<200.356 360.114> 228.984 79<139.676 447> 443.192 87.7998<131.923 347.962>
VStem: 429.6 17.4004<228.984 307.984>
AnchorPoint: "Anchor-0" 275 523.008 basechar 0
AnchorPoint: "Anchor-2" 277 0 basechar 0
LayerCount: 2
Fore
SplineSet
530 254.9921875 m 0
 530 99.6533203125 437.727539062 -10.0078125 278.072265625 -10.0078125 c 0
 114.791274284 -10.0078125 38 94.984375 38 269.984375 c 0
 38 291.9296875 38.3515625 307.984375 38.3515625 307.984375 c 1
 447 307.984375 l 1
 447 228.984375 l 1
 139.67578125 228.984375 l 5
 144.229961563 145.498046875 175.682238395 73.7919921875 279.971679688 73.7919921875 c 0
 381.403320312 73.7919921875 429.599609375 150.596679688 429.599609375 254.192382812 c 0
 429.599609375 369.30078125 376.01953125 443.192382812 252.591796875 443.192382812 c 0
 143.130859375 443.192382812 89.2666015625 398.2421875 89.2666015625 398.2421875 c 1
 73.3515625 490.984375 l 1
 73.3515625 490.984375 133.74609375 530.9921875 258.471679688 530.9921875 c 0
 430.97265625 530.9921875 530 423.805664062 530 254.9921875 c 0
EndSplineSet
EndChar

StartChar: uni018F
Encoding: 399 399 257
Width: 758
Flags: W
HStem: -9.99805 94.7783<267.759 469.939> 329.082 88.4902<151.955 619.93> 639.974 99.0186<188.786 449.279>
VStem: 40 111.955<208.567 329.082> 597.136 22.7939<329.082 417.572>
AnchorPoint: "Anchor-0" 357.982 728.532 basechar 0
AnchorPoint: "Anchor-2" 365.23 3.1123 basechar 0
LayerCount: 2
Fore
SplineSet
708 357.15234375 m 0
 708 141.934570312 582.969387563 -9.998046875 366.634765625 -9.998046875 c 0
 144.480202331 -9.998046875 40 131.291015625 40 366.791992188 c 0
 40 396.117537836 40.4609375 417.572265625 40.4609375 417.572265625 c 1
 619.9296875 417.572265625 l 1
 619.9296875 329.08203125 l 1
 151.955078125 329.08203125 l 5
 151.955078125 194.942136317 213.58203125 84.7802734375 369.123046875 84.7802734375 c 0
 523.691566231 84.7802734375 597.135742188 200.295864626 597.135742188 356.104492188 c 0
 597.135742188 528.991210938 515.8583632 639.973632812 328.626953125 639.973632812 c 0
 185.234375 639.973632812 114.671875 581.088867188 114.671875 581.088867188 c 1
 93.822265625 686.581054688 l 1
 93.822265625 686.581054688 172.939453125 738.9921875 336.330078125 738.9921875 c 0
 572.450193524 738.9921875 708 590.702148437 708 357.15234375 c 0
EndSplineSet
EndChar

StartChar: at
Encoding: 64 64 258
Width: 937
VWidth: 0
Flags: W
HStem: -150.337 76.5176<339.756 667.035> -24.3223 20G<782.204 785.962> 62.5771 74.5029<375.297 506.848 664.294 761.596> 467.17 72.1221<424.12 559.23> 510.266 20G<626.093 720.567> 663.175 79.1621<358.629 634.331>
VStem: 34 84.5176<140.099 426.08> 244.215 91.9844<175.866 362.405> 589.975 63.0771<194 359.404> 827.926 75.0742<223.516 478.463>
LayerCount: 2
Back
SplineSet
321.618164062 207.94140625 m 4xd2
 321.618164062 401.02734375 432.962890625 530.93359375 595.002929688 530.93359375 c 4
 687.154296875 530.93359375 758.036132812 474.03125 758.036132812 369.568359375 c 4
 758.036132812 342 754.983398438 325.7109375 754.983398438 325.7109375 c 5xd4
 714.040039062 289.018554688 l 5
 714.040039062 289.018554688 717.546875 308 717.546875 327.448242188 c 4
 717.546875 412.999023438 661.076171875 446.760742188 603.11328125 446.760742188 c 4
 491.17578125 446.760742188 423.126953125 363.692382812 423.126953125 212.560546875 c 4
 423.126953125 117.780273438 468.556640625 74.1142578125 543.209960938 74.1142578125 c 4
 642.109375 74.1142578125 690.743164062 154.71875 709 260 c 5xd8
 726.240234375 193.307617188 l 5
 707.811523438 88.1787109375 652.056640625 -10.05859375 508.592773438 -10.05859375 c 4
 397.772460938 -10.05859375 321.618164062 64.111328125 321.618164062 207.94140625 c 4xd2
762.740234375 -1.9169921875 m 261xb8
 662.740234375 -1.9169921875 l 261
 754.946289062 521.010742188 l 261
 854.946289062 521.010742188 l 261
 762.740234375 -1.9169921875 l 261xb8
EndSplineSet
Fore
SplineSet
244.21484375 260.331054688 m 0xf7c0
 244.21484375 414.1796875 345.83203125 539.291992188 485.34375 539.291992188 c 0
 568.306640625 539.291992188 620.013671875 500.766601562 620.013671875 422.697265625 c 0
 620.013671875 402.665039062 617.795898438 390.827148438 617.795898438 390.827148438 c 1
 588.42578125 330.478515625 l 1
 588.42578125 330.478515625 589.974609375 345.272460938 589.974609375 359.404296875 c 0
 589.974609375 435.958984375 553.060546875 467.169921875 495.237304688 467.169921875 c 0
 405.077148438 467.169921875 336.19921875 376.458984375 336.19921875 254.237304688 c 0
 336.19921875 176.770507812 378.686523438 137.080078125 440.288085938 137.080078125 c 0
 523.348632812 137.080078125 563 216 583 303 c 1
 605.645507812 247.692382812 l 1
 588.947265625 152.515625 547.422851562 62.5771484375 417.421875 62.5771484375 c 0
 315.354492188 62.5771484375 244.21484375 131.837890625 244.21484375 260.331054688 c 0xf7c0
494.2109375 742.336914062 m 0
 749.560546875 742.336914062 903 585.021484375 903 356 c 4
 903 151.6328125 797.240234375 63.595703125 693.215820312 63.595703125 c 0
 615.022460938 63.595703125 564.262695312 96.849609375 564.262695312 185.135742188 c 0
 564.262695312 205.70703125 565.893554688 221.083007812 569.73046875 242.252929688 c 2
 630.298828125 530.265625 l 1
 720.567382812 530.265625 l 1xefc0
 659.709960938 246.708007812 l 2
 655.672851562 228.264648438 653.051757812 212.553710938 653.051757812 194 c 0
 653.051757812 152.244140625 680.848632812 139.240234375 709.59765625 139.240234375 c 0
 778.823242188 139.240234375 827.92578125 218.40234375 827.92578125 356.879882812 c 4
 827.92578125 519.752929688 731.547851562 663.174804688 497.774414062 663.174804688 c 0
 252.859375 663.174804688 118.517578125 503.65234375 118.517578125 281.689453125 c 0
 118.517578125 42.21484375 258.689453125 -73.8193359375 490.965820312 -73.8193359375 c 0
 685.375976562 -73.8193359375 782.204101562 -4.322265625 782.204101562 -4.322265625 c 1
 796.895507812 -82.51171875 l 1
 796.895507812 -82.51171875 712.488102841 -150.336914062 487.401367188 -150.336914062 c 0
 184.549818795 -150.336914062 34 29.8955078122 34 281.689453125 c 0
 34 527.081054688 194.764648438 742.336914062 494.2109375 742.336914062 c 0
EndSplineSet
Validated: 5
EndChar

StartChar: uni20B5
Encoding: 8373 8373 260
Width: 611
Flags: W
HStem: 9.99219 13.0078<325 420> 706 11.9922<327 422>
VStem: 45 116.4<230.454 492.356> 325 95<-96 23 706 825>
LayerCount: 2
Fore
SplineSet
325 -96 m 1
 325 23 l 1
 420 23 l 1
 420 -96 l 1
 325 -96 l 1
327 706 m 1
 327 825 l 1
 422 825 l 1
 422 706 l 1
 327 706 l 1
45 362.9921875 m 0
 45 571.088296435 160.19907047 717.9921875 367 717.9921875 c 0
 508.463244917 717.9921875 572.728515625 670.216796875 572.728515625 670.216796875 c 1
 553.446289062 562.676757812 l 1
 553.446289062 562.676757812 502.693606385 617.192382812 381 617.192382812 c 0
 234.373934624 617.192382812 161.400390625 527.630380831 161.400390625 362.791992188 c 0
 161.400390625 190.30546875 235.579919125 109.791992188 387 109.791992188 c 0
 505.639518034 109.791992188 563.084960938 154.7421875 563.084960938 154.7421875 c 1
 576 50 l 1
 576 50 516.488331588 9.9921875 371 9.9921875 c 0
 161.137130875 9.9921875 45 147.081506607 45 362.9921875 c 0
EndSplineSet
Validated: 5
EndChar

StartChar: alpha
Encoding: 945 945 261
Width: 636
VWidth: 0
Flags: W
HStem: -7.99805 83.998<212.637 377.694 541.633 612.635> 445.811 85.1729<219.455 374.816> 501.011 20G<454 560>
VStem: 45 103.4<148.507 365.925> 439 98<81.4596 117 179 442.062> 439 29<74.3979 201.291>
AnchorPoint: "Anchor-0" 315 521.019 basechar 0
AnchorPoint: "Anchor-2" 312 -0.00878906 basechar 0
LayerCount: 2
Fore
SplineSet
439 105 m 6xb8
 439 281 l 6
 439 392.266841839 454 521.010742188 454 521.010742188 c 261
 560 521.010742188 l 261
 560 521.010742188 537 365.255859375 537 179 c 6
 537 117 l 6
 537 84 557.319335938 76 578 76 c 4
 601.088656144 76 612 84 612 84 c 5
 616 7 l 5
 616 7 597.880766916 -7.998046875 550 -7.998046875 c 4
 476.033324972 -7.998046875 439 29 439 105 c 6xb8
45 260.991210938 m 0
 45 422.393407726 141.234359732 530.983398438 281.307617188 530.983398438 c 0
 407.349289595 530.983398438 477 444.17989285 477 313.68359375 c 1
 439 276.991210938 l 1
 439 388.129214538 383.656534731 445.810546875 301.828125 445.810546875 c 0
 204.473515792 445.810546875 148.400390625 379.058246022 148.400390625 257.610351562 c 0
 148.400390625 131.338627616 204.974517181 73.1640625 297.908203125 73.1640625 c 0
 382.074366884 73.1640625 439 136.126292272 439 239.983398438 c 1xd8
 468 201.291015625 l 1xd4
 468 74.3979309678 404.033001111 -10.0087890625 280.328125 -10.0087890625 c 0
 140.831920187 -10.0087890625 45 82.1927662037 45 260.991210938 c 0
EndSplineSet
Validated: 5
EndChar

